<?xml version="1.0" encoding="UTF-8" standalone="no"?>
<!DOCTYPE svg PUBLIC "-//W3C//DTD SVG 1.1//EN"
 "http://www.w3.org/Graphics/SVG/1.1/DTD/svg11.dtd">
<!-- Generated by graphviz version 2.42.4 (0)
 -->
<!-- Title: issuance_flow Pages: 1 -->
<svg width="1656pt" height="165pt"
 viewBox="0.00 0.00 1656.00 165.25" xmlns="http://www.w3.org/2000/svg" xmlns:xlink="http://www.w3.org/1999/xlink">
<g id="graph0" class="graph" transform="scale(1 1) rotate(0) translate(4 161.25)">
<title>issuance_flow</title>
<g id="clust1" class="cluster">
<title>cluster_app</title>
<path fill="transparent" stroke="#868e96" stroke-dasharray="5,2" d="M20,-70.25C20,-70.25 1456,-70.25 1456,-70.25 1462,-70.25 1468,-76.25 1468,-82.25 1468,-82.25 1468,-137.25 1468,-137.25 1468,-143.25 1462,-149.25 1456,-149.25 1456,-149.25 20,-149.25 20,-149.25 14,-149.25 8,-143.25 8,-137.25 8,-137.25 8,-82.25 8,-82.25 8,-76.25 14,-70.25 20,-70.25"/>
<text text-anchor="middle" x="88.5" y="-137.25" font-family="Helvetica,sans-Serif" font-size="10.00" fill="#495057">Desktop App (Go + Fyne GUI)</text>
</g>
<!-- form -->
<g id="node1" class="node">
<title>form</title>
<path fill="#dbe4ff" stroke="#495057" stroke-width="1.2" d="M116,-122.25C116,-122.25 28,-122.25 28,-122.25 22,-122.25 16,-116.25 16,-110.25 16,-110.25 16,-90.25 16,-90.25 16,-84.25 22,-78.25 28,-78.25 28,-78.25 116,-78.25 116,-78.25 122,-78.25 128,-84.25 128,-90.25 128,-90.25 128,-110.25 128,-110.25 128,-116.25 122,-122.25 116,-122.25"/>
<text text-anchor="middle" x="72" y="-109.45" font-family="Helvetica,sans-Serif" font-size="11.00">Credential Form</text>
<text text-anchor="middle" x="72" y="-97.45" font-family="Helvetica,sans-Serif" font-size="11.00">(recipient, honor,</text>
<text text-anchor="middle" x="72" y="-85.45" font-family="Helvetica,sans-Serif" font-size="11.00">detail, date)</text>
</g>
<!-- validate -->
<g id="node2" class="node">
<title>validate</title>
<path fill="#f8f9fa" stroke="#495057" stroke-width="1.2" d="M296,-116.25C296,-116.25 249,-116.25 249,-116.25 243,-116.25 237,-110.25 237,-104.25 237,-104.25 237,-92.25 237,-92.25 237,-86.25 243,-80.25 249,-80.25 249,-80.25 296,-80.25 296,-80.25 302,-80.25 308,-86.25 308,-92.25 308,-92.25 308,-104.25 308,-104.25 308,-110.25 302,-116.25 296,-116.25"/>
<text text-anchor="middle" x="272.5" y="-101.45" font-family="Helvetica,sans-Serif" font-size="11.00">Validate</text>
<text text-anchor="middle" x="272.5" y="-89.45" font-family="Helvetica,sans-Serif" font-size="11.00">credential</text>
</g>
<!-- form&#45;&gt;validate -->
<g id="edge1" class="edge">
<title>form&#45;&gt;validate</title>
<path fill="none" stroke="#6c757d" d="M128.03,-99.7C159.09,-99.38 197.42,-99 226.65,-98.7"/>
<polygon fill="#6c757d" stroke="#6c757d" points="227.01,-102.2 236.97,-98.6 226.94,-95.2 227.01,-102.2"/>
<text text-anchor="middle" x="182.5" y="-102.05" font-family="Helvetica,sans-Serif" font-size="9.00">credential fields</text>
</g>
<!-- canonicalize -->
<g id="node3" class="node">
<title>canonicalize</title>
<path fill="#f8f9fa" stroke="#495057" stroke-width="1.2" d="M433,-115.25C433,-115.25 357,-115.25 357,-115.25 351,-115.25 345,-109.25 345,-103.25 345,-103.25 345,-91.25 345,-91.25 345,-85.25 351,-79.25 357,-79.25 357,-79.25 433,-79.25 433,-79.25 439,-79.25 445,-85.25 445,-91.25 445,-91.25 445,-103.25 445,-103.25 445,-109.25 439,-115.25 433,-115.25"/>
<text text-anchor="middle" x="395" y="-100.45" font-family="Helvetica,sans-Serif" font-size="11.00">Canonicalize</text>
<text text-anchor="middle" x="395" y="-88.45" font-family="Helvetica,sans-Serif" font-size="11.00">(JSON → bytes)</text>
</g>
<!-- validate&#45;&gt;canonicalize -->
<g id="edge2" class="edge">
<title>validate&#45;&gt;canonicalize</title>
<path fill="none" stroke="#6c757d" d="M308.03,-97.96C316.32,-97.89 325.4,-97.82 334.47,-97.74"/>
<polygon fill="#6c757d" stroke="#6c757d" points="334.68,-101.24 344.65,-97.66 334.62,-94.24 334.68,-101.24"/>
</g>
<!-- sign_req -->
<g id="node4" class="node">
<title>sign_req</title>
<path fill="#f8f9fa" stroke="#495057" stroke-width="1.2" d="M631,-115.25C631,-115.25 564,-115.25 564,-115.25 558,-115.25 552,-109.25 552,-103.25 552,-103.25 552,-91.25 552,-91.25 552,-85.25 558,-79.25 564,-79.25 564,-79.25 631,-79.25 631,-79.25 637,-79.25 643,-85.25 643,-91.25 643,-91.25 643,-103.25 643,-103.25 643,-109.25 637,-115.25 631,-115.25"/>
<text text-anchor="middle" x="597.5" y="-100.45" font-family="Helvetica,sans-Serif" font-size="11.00">Sign via</text>
<text text-anchor="middle" x="597.5" y="-88.45" font-family="Helvetica,sans-Serif" font-size="11.00">piv&#45;go (PCSC)</text>
</g>
<!-- canonicalize&#45;&gt;sign_req -->
<g id="edge3" class="edge">
<title>canonicalize&#45;&gt;sign_req</title>
<path fill="none" stroke="#6c757d" d="M445.05,-97.25C474.19,-97.25 511.22,-97.25 541.37,-97.25"/>
<polygon fill="#6c757d" stroke="#6c757d" points="541.73,-100.75 551.73,-97.25 541.73,-93.75 541.73,-100.75"/>
<text text-anchor="middle" x="498.5" y="-100.05" font-family="Helvetica,sans-Serif" font-size="9.00">canonical bytes</text>
</g>
<!-- verify_rt -->
<g id="node5" class="node">
<title>verify_rt</title>
<path fill="#f8f9fa" stroke="#495057" stroke-width="1.2" d="M821.5,-122.25C821.5,-122.25 774.5,-122.25 774.5,-122.25 768.5,-122.25 762.5,-116.25 762.5,-110.25 762.5,-110.25 762.5,-98.25 762.5,-98.25 762.5,-92.25 768.5,-86.25 774.5,-86.25 774.5,-86.25 821.5,-86.25 821.5,-86.25 827.5,-86.25 833.5,-92.25 833.5,-98.25 833.5,-98.25 833.5,-110.25 833.5,-110.25 833.5,-116.25 827.5,-122.25 821.5,-122.25"/>
<text text-anchor="middle" x="798" y="-107.45" font-family="Helvetica,sans-Serif" font-size="11.00">Verify</text>
<text text-anchor="middle" x="798" y="-95.45" font-family="Helvetica,sans-Serif" font-size="11.00">round&#45;trip</text>
</g>
<!-- sign_req&#45;&gt;verify_rt -->
<g id="edge6" class="edge">
<title>sign_req&#45;&gt;verify_rt</title>
<path fill="none" stroke="#6c757d" d="M643.05,-98.82C675.64,-99.97 719.68,-101.52 752.31,-102.67"/>
<polygon fill="#6c757d" stroke="#6c757d" points="752.35,-106.18 762.47,-103.03 752.6,-99.18 752.35,-106.18"/>
<text text-anchor="middle" x="702" y="-104.05" font-family="Helvetica,sans-Serif" font-size="9.00">signature</text>
</g>
<!-- yubikey -->
<g id="node10" class="node">
<title>yubikey</title>
<path fill="#fff3bf" stroke="#495057" stroke-width="1.2" d="M835,-55.21C835,-58.27 818.42,-60.75 798,-60.75 777.58,-60.75 761,-58.27 761,-55.21 761,-55.21 761,-5.29 761,-5.29 761,-2.23 777.58,0.25 798,0.25 818.42,0.25 835,-2.23 835,-5.29 835,-5.29 835,-55.21 835,-55.21"/>
<path fill="none" stroke="#495057" stroke-width="1.2" d="M835,-55.21C835,-52.15 818.42,-49.66 798,-49.66 777.58,-49.66 761,-52.15 761,-55.21"/>
<text text-anchor="middle" x="798" y="-39.45" font-family="Helvetica,sans-Serif" font-size="11.00">YubiKey</text>
<text text-anchor="middle" x="798" y="-27.45" font-family="Helvetica,sans-Serif" font-size="11.00">PIV slot 9c</text>
<text text-anchor="middle" x="798" y="-15.45" font-family="Helvetica,sans-Serif" font-size="11.00">Ed25519</text>
</g>
<!-- sign_req&#45;&gt;yubikey -->
<g id="edge4" class="edge">
<title>sign_req&#45;&gt;yubikey</title>
<path fill="none" stroke="#6c757d" stroke-dasharray="5,2" d="M643.19,-81.4C649.17,-79.32 655.23,-77.22 661,-75.25 690.95,-65.03 724.72,-53.85 751.13,-45.19"/>
<polygon fill="#6c757d" stroke="#6c757d" points="752.44,-48.44 760.86,-42 750.27,-41.79 752.44,-48.44"/>
<text text-anchor="middle" x="702" y="-88.05" font-family="Helvetica,sans-Serif" font-size="9.00">PIN via</text>
<text text-anchor="middle" x="702" y="-78.05" font-family="Helvetica,sans-Serif" font-size="9.00">GUI dialog</text>
</g>
<!-- log -->
<g id="node6" class="node">
<title>log</title>
<path fill="#f8f9fa" stroke="#495057" stroke-width="1.2" d="M945,-122.25C945,-122.25 884,-122.25 884,-122.25 878,-122.25 872,-116.25 872,-110.25 872,-110.25 872,-98.25 872,-98.25 872,-92.25 878,-86.25 884,-86.25 884,-86.25 945,-86.25 945,-86.25 951,-86.25 957,-92.25 957,-98.25 957,-98.25 957,-110.25 957,-110.25 957,-116.25 951,-122.25 945,-122.25"/>
<text text-anchor="middle" x="914.5" y="-107.45" font-family="Helvetica,sans-Serif" font-size="11.00">Append to</text>
<text text-anchor="middle" x="914.5" y="-95.45" font-family="Helvetica,sans-Serif" font-size="11.00">issuance log</text>
</g>
<!-- verify_rt&#45;&gt;log -->
<g id="edge7" class="edge">
<title>verify_rt&#45;&gt;log</title>
<path fill="none" stroke="#6c757d" d="M833.66,-104.25C842.46,-104.25 852.11,-104.25 861.56,-104.25"/>
<polygon fill="#6c757d" stroke="#6c757d" points="861.69,-107.75 871.69,-104.25 861.69,-100.75 861.69,-107.75"/>
</g>
<!-- encode -->
<g id="node7" class="node">
<title>encode</title>
<path fill="#f8f9fa" stroke="#495057" stroke-width="1.2" d="M1061,-122.25C1061,-122.25 1006,-122.25 1006,-122.25 1000,-122.25 994,-116.25 994,-110.25 994,-110.25 994,-98.25 994,-98.25 994,-92.25 1000,-86.25 1006,-86.25 1006,-86.25 1061,-86.25 1061,-86.25 1067,-86.25 1073,-92.25 1073,-98.25 1073,-98.25 1073,-110.25 1073,-110.25 1073,-116.25 1067,-122.25 1061,-122.25"/>
<text text-anchor="middle" x="1033.5" y="-107.45" font-family="Helvetica,sans-Serif" font-size="11.00">Base64URL</text>
<text text-anchor="middle" x="1033.5" y="-95.45" font-family="Helvetica,sans-Serif" font-size="11.00">encode</text>
</g>
<!-- log&#45;&gt;encode -->
<g id="edge8" class="edge">
<title>log&#45;&gt;encode</title>
<path fill="none" stroke="#6c757d" d="M957.08,-104.25C965.67,-104.25 974.8,-104.25 983.62,-104.25"/>
<polygon fill="#6c757d" stroke="#6c757d" points="983.79,-107.75 993.79,-104.25 983.79,-100.75 983.79,-107.75"/>
</g>
<!-- build_url -->
<g id="node8" class="node">
<title>build_url</title>
<path fill="#f8f9fa" stroke="#495057" stroke-width="1.2" d="M1252,-122.25C1252,-122.25 1172,-122.25 1172,-122.25 1166,-122.25 1160,-116.25 1160,-110.25 1160,-110.25 1160,-98.25 1160,-98.25 1160,-92.25 1166,-86.25 1172,-86.25 1172,-86.25 1252,-86.25 1252,-86.25 1258,-86.25 1264,-92.25 1264,-98.25 1264,-98.25 1264,-110.25 1264,-110.25 1264,-116.25 1258,-122.25 1252,-122.25"/>
<text text-anchor="middle" x="1212" y="-107.45" font-family="Helvetica,sans-Serif" font-size="11.00">Build</text>
<text text-anchor="middle" x="1212" y="-95.45" font-family="Helvetica,sans-Serif" font-size="11.00">verification URL</text>
</g>
<!-- encode&#45;&gt;build_url -->
<g id="edge9" class="edge">
<title>encode&#45;&gt;build_url</title>
<path fill="none" stroke="#6c757d" d="M1073.23,-104.25C1095.62,-104.25 1124.29,-104.25 1149.68,-104.25"/>
<polygon fill="#6c757d" stroke="#6c757d" points="1149.96,-107.75 1159.96,-104.25 1149.96,-100.75 1149.96,-107.75"/>
<text text-anchor="middle" x="1116.5" y="-107.05" font-family="Helvetica,sans-Serif" font-size="9.00">p=...&amp;s=...</text>
</g>
<!-- gen_qr -->
<g id="node9" class="node">
<title>gen_qr</title>
<path fill="#f8f9fa" stroke="#495057" stroke-width="1.2" d="M1448,-122.25C1448,-122.25 1384,-122.25 1384,-122.25 1378,-122.25 1372,-116.25 1372,-110.25 1372,-110.25 1372,-98.25 1372,-98.25 1372,-92.25 1378,-86.25 1384,-86.25 1384,-86.25 1448,-86.25 1448,-86.25 1454,-86.25 1460,-92.25 1460,-98.25 1460,-98.25 1460,-110.25 1460,-110.25 1460,-116.25 1454,-122.25 1448,-122.25"/>
<text text-anchor="middle" x="1416" y="-107.45" font-family="Helvetica,sans-Serif" font-size="11.00">Generate QR</text>
<text text-anchor="middle" x="1416" y="-95.45" font-family="Helvetica,sans-Serif" font-size="11.00">(SVG + PNG)</text>
</g>
<!-- build_url&#45;&gt;gen_qr -->
<g id="edge10" class="edge">
<title>build_url&#45;&gt;gen_qr</title>
<path fill="none" stroke="#6c757d" d="M1264.23,-104.25C1293.93,-104.25 1331.27,-104.25 1361.37,-104.25"/>
<polygon fill="#6c757d" stroke="#6c757d" points="1361.68,-107.75 1371.68,-104.25 1361.68,-100.75 1361.68,-107.75"/>
<text text-anchor="middle" x="1318" y="-107.05" font-family="Helvetica,sans-Serif" font-size="9.00">verification URL</text>
</g>
<!-- qr -->
<g id="node11" class="node">
<title>qr</title>
<polygon fill="#ffe3e3" stroke="#495057" stroke-width="1.2" points="1642,-122.25 1569,-122.25 1569,-86.25 1648,-86.25 1648,-116.25 1642,-122.25"/>
<polyline fill="none" stroke="#495057" stroke-width="1.2" points="1642,-122.25 1642,-116.25 "/>
<polyline fill="none" stroke="#495057" stroke-width="1.2" points="1648,-116.25 1642,-116.25 "/>
<text text-anchor="middle" x="1608.5" y="-107.45" font-family="Helvetica,sans-Serif" font-size="11.00">QR Code</text>
<text text-anchor="middle" x="1608.5" y="-95.45" font-family="Helvetica,sans-Serif" font-size="11.00">on Diploma</text>
</g>
<!-- gen_qr&#45;&gt;qr -->
<g id="edge11" class="edge">
<title>gen_qr&#45;&gt;qr</title>
<path fill="none" stroke="#6c757d" d="M1460.23,-104.25C1489.49,-104.25 1528.2,-104.25 1558.59,-104.25"/>
<polygon fill="#6c757d" stroke="#6c757d" points="1558.97,-107.75 1568.97,-104.25 1558.97,-100.75 1558.97,-107.75"/>
<text text-anchor="middle" x="1514.5" y="-117.05" font-family="Helvetica,sans-Serif" font-size="9.00">SVG for print</text>
<text text-anchor="middle" x="1514.5" y="-107.05" font-family="Helvetica,sans-Serif" font-size="9.00">PNG for preview</text>
</g>
<!-- yubikey&#45;&gt;sign_req -->
<g id="edge5" class="edge">
<title>yubikey&#45;&gt;sign_req</title>
<path fill="none" stroke="#6c757d" stroke-dasharray="5,2" d="M760.78,-24.63C732.43,-21.83 692.65,-21.53 661,-35.25 643.46,-42.85 628.15,-57.82 617.07,-71.14"/>
<polygon fill="#6c757d" stroke="#6c757d" points="614.19,-69.14 610.73,-79.15 619.68,-73.48 614.19,-69.14"/>
<text text-anchor="middle" x="702" y="-38.05" font-family="Helvetica,sans-Serif" font-size="9.00">64&#45;byte signature</text>
</g>
</g>
</svg>
