<?xml version="1.0" encoding="UTF-8" standalone="no"?>
<!DOCTYPE svg PUBLIC "-//W3C//DTD SVG 1.1//EN"
 "http://www.w3.org/Graphics/SVG/1.1/DTD/svg11.dtd">
<!-- Generated by graphviz version 2.42.4 (0)
 -->
<!-- Title: issuance_flow Pages: 1 -->
<svg width="1437pt" height="143pt"
 viewBox="0.00 0.00 1437.00 143.00" xmlns="http://www.w3.org/2000/svg" xmlns:xlink="http://www.w3.org/1999/xlink">
<g id="graph0" class="graph" transform="scale(1 1) rotate(0) translate(4 139)">
<title>issuance_flow</title>
<g id="clust1" class="cluster">
<title>cluster_issuer</title>
<path fill="transparent" stroke="#868e96" stroke-dasharray="5,2" d="M20,-56C20,-56 93,-56 93,-56 99,-56 105,-62 105,-68 105,-68 105,-115 105,-115 105,-121 99,-127 93,-127 93,-127 20,-127 20,-127 14,-127 8,-121 8,-115 8,-115 8,-68 8,-68 8,-62 14,-56 20,-56"/>
<text text-anchor="middle" x="51" y="-115" font-family="Helvetica,sans-Serif" font-size="10.00" fill="#495057">Issuer (Prince)</text>
</g>
<g id="clust2" class="cluster">
<title>cluster_server</title>
<path fill="transparent" stroke="#868e96" stroke-dasharray="5,2" d="M217,-56C217,-56 1238,-56 1238,-56 1244,-56 1250,-62 1250,-68 1250,-68 1250,-115 1250,-115 1250,-121 1244,-127 1238,-127 1238,-127 217,-127 217,-127 211,-127 205,-121 205,-115 205,-115 205,-68 205,-68 205,-62 211,-56 217,-56"/>
<text text-anchor="middle" x="276" y="-115" font-family="Helvetica,sans-Serif" font-size="10.00" fill="#495057">Signing Server (localhost)</text>
</g>
<!-- form -->
<g id="node1" class="node">
<title>form</title>
<path fill="#dbe4ff" stroke="#495057" stroke-width="1.2" d="M85,-100C85,-100 28,-100 28,-100 22,-100 16,-94 16,-88 16,-88 16,-76 16,-76 16,-70 22,-64 28,-64 28,-64 85,-64 85,-64 91,-64 97,-70 97,-76 97,-76 97,-88 97,-88 97,-94 91,-100 85,-100"/>
<text text-anchor="middle" x="56.5" y="-85.2" font-family="Helvetica,sans-Serif" font-size="11.00">Issuer Form</text>
<text text-anchor="middle" x="56.5" y="-73.2" font-family="Helvetica,sans-Serif" font-size="11.00">(browser)</text>
</g>
<!-- validate -->
<g id="node2" class="node">
<title>validate</title>
<path fill="#f8f9fa" stroke="#495057" stroke-width="1.2" d="M272,-100C272,-100 225,-100 225,-100 219,-100 213,-94 213,-88 213,-88 213,-76 213,-76 213,-70 219,-64 225,-64 225,-64 272,-64 272,-64 278,-64 284,-70 284,-76 284,-76 284,-88 284,-88 284,-94 278,-100 272,-100"/>
<text text-anchor="middle" x="248.5" y="-85.2" font-family="Helvetica,sans-Serif" font-size="11.00">Validate</text>
<text text-anchor="middle" x="248.5" y="-73.2" font-family="Helvetica,sans-Serif" font-size="11.00">credential</text>
</g>
<!-- form&#45;&gt;validate -->
<g id="edge1" class="edge">
<title>form&#45;&gt;validate</title>
<path fill="none" stroke="#6c757d" d="M97.33,-82C128.03,-82 170.49,-82 202.43,-82"/>
<polygon fill="#6c757d" stroke="#6c757d" points="202.83,-85.5 212.83,-82 202.83,-78.5 202.83,-85.5"/>
<text text-anchor="middle" x="159.5" y="-94.8" font-family="Helvetica,sans-Serif" font-size="9.00">credential JSON</text>
<text text-anchor="middle" x="159.5" y="-84.8" font-family="Helvetica,sans-Serif" font-size="9.00">+ bearer token</text>
</g>
<!-- canonicalize -->
<g id="node3" class="node">
<title>canonicalize</title>
<path fill="#f8f9fa" stroke="#495057" stroke-width="1.2" d="M409,-100C409,-100 333,-100 333,-100 327,-100 321,-94 321,-88 321,-88 321,-76 321,-76 321,-70 327,-64 333,-64 333,-64 409,-64 409,-64 415,-64 421,-70 421,-76 421,-76 421,-88 421,-88 421,-94 415,-100 409,-100"/>
<text text-anchor="middle" x="371" y="-85.2" font-family="Helvetica,sans-Serif" font-size="11.00">Canonicalize</text>
<text text-anchor="middle" x="371" y="-73.2" font-family="Helvetica,sans-Serif" font-size="11.00">(JSON → bytes)</text>
</g>
<!-- validate&#45;&gt;canonicalize -->
<g id="edge2" class="edge">
<title>validate&#45;&gt;canonicalize</title>
<path fill="none" stroke="#6c757d" d="M284.03,-82C292.32,-82 301.4,-82 310.47,-82"/>
<polygon fill="#6c757d" stroke="#6c757d" points="310.65,-85.5 320.65,-82 310.65,-78.5 310.65,-85.5"/>
</g>
<!-- sign_req -->
<g id="node4" class="node">
<title>sign_req</title>
<path fill="#f8f9fa" stroke="#495057" stroke-width="1.2" d="M612,-100C612,-100 540,-100 540,-100 534,-100 528,-94 528,-88 528,-88 528,-76 528,-76 528,-70 534,-64 540,-64 540,-64 612,-64 612,-64 618,-64 624,-70 624,-76 624,-76 624,-88 624,-88 624,-94 618,-100 612,-100"/>
<text text-anchor="middle" x="576" y="-85.2" font-family="Helvetica,sans-Serif" font-size="11.00">Sign via</text>
<text text-anchor="middle" x="576" y="-73.2" font-family="Helvetica,sans-Serif" font-size="11.00">YubiKey PIV 9c</text>
</g>
<!-- canonicalize&#45;&gt;sign_req -->
<g id="edge3" class="edge">
<title>canonicalize&#45;&gt;sign_req</title>
<path fill="none" stroke="#6c757d" d="M421.14,-82C450.24,-82 487.24,-82 517.66,-82"/>
<polygon fill="#6c757d" stroke="#6c757d" points="517.71,-85.5 527.71,-82 517.71,-78.5 517.71,-85.5"/>
<text text-anchor="middle" x="474.5" y="-84.8" font-family="Helvetica,sans-Serif" font-size="9.00">canonical bytes</text>
</g>
<!-- verify_rt -->
<g id="node5" class="node">
<title>verify_rt</title>
<path fill="#f8f9fa" stroke="#495057" stroke-width="1.2" d="M801,-100C801,-100 754,-100 754,-100 748,-100 742,-94 742,-88 742,-88 742,-76 742,-76 742,-70 748,-64 754,-64 754,-64 801,-64 801,-64 807,-64 813,-70 813,-76 813,-76 813,-88 813,-88 813,-94 807,-100 801,-100"/>
<text text-anchor="middle" x="777.5" y="-85.2" font-family="Helvetica,sans-Serif" font-size="11.00">Verify</text>
<text text-anchor="middle" x="777.5" y="-73.2" font-family="Helvetica,sans-Serif" font-size="11.00">round&#45;trip</text>
</g>
<!-- sign_req&#45;&gt;verify_rt -->
<g id="edge6" class="edge">
<title>sign_req&#45;&gt;verify_rt</title>
<path fill="none" stroke="#6c757d" d="M624.03,-82C656.52,-82 699.5,-82 731.54,-82"/>
<polygon fill="#6c757d" stroke="#6c757d" points="731.96,-85.5 741.96,-82 731.96,-78.5 731.96,-85.5"/>
<text text-anchor="middle" x="683" y="-84.8" font-family="Helvetica,sans-Serif" font-size="9.00">signature</text>
</g>
<!-- yubikey -->
<g id="node9" class="node">
<title>yubikey</title>
<path fill="#fff3bf" stroke="#495057" stroke-width="1.2" d="M809.5,-40C809.5,-42.21 795.16,-44 777.5,-44 759.84,-44 745.5,-42.21 745.5,-40 745.5,-40 745.5,-4 745.5,-4 745.5,-1.79 759.84,0 777.5,0 795.16,0 809.5,-1.79 809.5,-4 809.5,-4 809.5,-40 809.5,-40"/>
<path fill="none" stroke="#495057" stroke-width="1.2" d="M809.5,-40C809.5,-37.79 795.16,-36 777.5,-36 759.84,-36 745.5,-37.79 745.5,-40"/>
<text text-anchor="middle" x="777.5" y="-25.2" font-family="Helvetica,sans-Serif" font-size="11.00">YubiKey</text>
<text text-anchor="middle" x="777.5" y="-13.2" font-family="Helvetica,sans-Serif" font-size="11.00">Ed25519</text>
</g>
<!-- sign_req&#45;&gt;yubikey -->
<g id="edge4" class="edge">
<title>sign_req&#45;&gt;yubikey</title>
<path fill="none" stroke="#6c757d" stroke-dasharray="5,2" d="M624.03,-67.86C657.96,-57.65 703.31,-44.01 735.71,-34.27"/>
<polygon fill="#6c757d" stroke="#6c757d" points="736.75,-37.61 745.32,-31.38 734.74,-30.91 736.75,-37.61"/>
<text text-anchor="middle" x="683" y="-62.8" font-family="Helvetica,sans-Serif" font-size="9.00">PIN + touch</text>
</g>
<!-- log -->
<g id="node6" class="node">
<title>log</title>
<path fill="#f8f9fa" stroke="#495057" stroke-width="1.2" d="M923,-100C923,-100 862,-100 862,-100 856,-100 850,-94 850,-88 850,-88 850,-76 850,-76 850,-70 856,-64 862,-64 862,-64 923,-64 923,-64 929,-64 935,-70 935,-76 935,-76 935,-88 935,-88 935,-94 929,-100 923,-100"/>
<text text-anchor="middle" x="892.5" y="-85.2" font-family="Helvetica,sans-Serif" font-size="11.00">Append to</text>
<text text-anchor="middle" x="892.5" y="-73.2" font-family="Helvetica,sans-Serif" font-size="11.00">issuance log</text>
</g>
<!-- verify_rt&#45;&gt;log -->
<g id="edge7" class="edge">
<title>verify_rt&#45;&gt;log</title>
<path fill="none" stroke="#6c757d" d="M813.02,-82C821.41,-82 830.57,-82 839.58,-82"/>
<polygon fill="#6c757d" stroke="#6c757d" points="839.63,-85.5 849.63,-82 839.63,-78.5 839.63,-85.5"/>
</g>
<!-- encode -->
<g id="node7" class="node">
<title>encode</title>
<path fill="#f8f9fa" stroke="#495057" stroke-width="1.2" d="M1039,-100C1039,-100 984,-100 984,-100 978,-100 972,-94 972,-88 972,-88 972,-76 972,-76 972,-70 978,-64 984,-64 984,-64 1039,-64 1039,-64 1045,-64 1051,-70 1051,-76 1051,-76 1051,-88 1051,-88 1051,-94 1045,-100 1039,-100"/>
<text text-anchor="middle" x="1011.5" y="-85.2" font-family="Helvetica,sans-Serif" font-size="11.00">Base64URL</text>
<text text-anchor="middle" x="1011.5" y="-73.2" font-family="Helvetica,sans-Serif" font-size="11.00">encode</text>
</g>
<!-- log&#45;&gt;encode -->
<g id="edge8" class="edge">
<title>log&#45;&gt;encode</title>
<path fill="none" stroke="#6c757d" d="M935.08,-82C943.67,-82 952.8,-82 961.62,-82"/>
<polygon fill="#6c757d" stroke="#6c757d" points="961.79,-85.5 971.79,-82 961.79,-78.5 961.79,-85.5"/>
</g>
<!-- build_url -->
<g id="node8" class="node">
<title>build_url</title>
<path fill="#f8f9fa" stroke="#495057" stroke-width="1.2" d="M1230,-100C1230,-100 1150,-100 1150,-100 1144,-100 1138,-94 1138,-88 1138,-88 1138,-76 1138,-76 1138,-70 1144,-64 1150,-64 1150,-64 1230,-64 1230,-64 1236,-64 1242,-70 1242,-76 1242,-76 1242,-88 1242,-88 1242,-94 1236,-100 1230,-100"/>
<text text-anchor="middle" x="1190" y="-85.2" font-family="Helvetica,sans-Serif" font-size="11.00">Build</text>
<text text-anchor="middle" x="1190" y="-73.2" font-family="Helvetica,sans-Serif" font-size="11.00">verification URL</text>
</g>
<!-- encode&#45;&gt;build_url -->
<g id="edge9" class="edge">
<title>encode&#45;&gt;build_url</title>
<path fill="none" stroke="#6c757d" d="M1051.23,-82C1073.62,-82 1102.29,-82 1127.68,-82"/>
<polygon fill="#6c757d" stroke="#6c757d" points="1127.96,-85.5 1137.96,-82 1127.96,-78.5 1127.96,-85.5"/>
<text text-anchor="middle" x="1094.5" y="-84.8" font-family="Helvetica,sans-Serif" font-size="9.00">p=...&amp;s=...</text>
</g>
<!-- qr -->
<g id="node11" class="node">
<title>qr</title>
<polygon fill="#ffe3e3" stroke="#495057" stroke-width="1.2" points="1423,-100 1350,-100 1350,-64 1429,-64 1429,-94 1423,-100"/>
<polyline fill="none" stroke="#495057" stroke-width="1.2" points="1423,-100 1423,-94 "/>
<polyline fill="none" stroke="#495057" stroke-width="1.2" points="1429,-94 1423,-94 "/>
<text text-anchor="middle" x="1389.5" y="-85.2" font-family="Helvetica,sans-Serif" font-size="11.00">QR Code</text>
<text text-anchor="middle" x="1389.5" y="-73.2" font-family="Helvetica,sans-Serif" font-size="11.00">on Diploma</text>
</g>
<!-- build_url&#45;&gt;qr -->
<g id="edge10" class="edge">
<title>build_url&#45;&gt;qr</title>
<path fill="none" stroke="#6c757d" d="M1242.12,-82C1272.18,-82 1309.98,-82 1339.64,-82"/>
<polygon fill="#6c757d" stroke="#6c757d" points="1339.76,-85.5 1349.76,-82 1339.76,-78.5 1339.76,-85.5"/>
<text text-anchor="middle" x="1296" y="-84.8" font-family="Helvetica,sans-Serif" font-size="9.00">verification URL</text>
</g>
<!-- yubikey&#45;&gt;sign_req -->
<g id="edge5" class="edge">
<title>yubikey&#45;&gt;sign_req</title>
<path fill="none" stroke="#6c757d" stroke-dasharray="5,2" d="M745.42,-16.84C717.38,-13.52 675.52,-11.96 642,-25 625.25,-31.52 609.94,-44.41 598.4,-56.29"/>
<polygon fill="#6c757d" stroke="#6c757d" points="595.6,-54.16 591.38,-63.87 600.74,-58.91 595.6,-54.16"/>
<text text-anchor="middle" x="683" y="-27.8" font-family="Helvetica,sans-Serif" font-size="9.00">64&#45;byte signature</text>
</g>
<!-- registry -->
<g id="node10" class="node">
<title>registry</title>
<path fill="#d3f9d8" stroke="#495057" stroke-width="1.2" d="M106,-42C106,-44.21 83.81,-46 56.5,-46 29.19,-46 7,-44.21 7,-42 7,-42 7,-6 7,-6 7,-3.79 29.19,-2 56.5,-2 83.81,-2 106,-3.79 106,-6 106,-6 106,-42 106,-42"/>
<path fill="none" stroke="#495057" stroke-width="1.2" d="M106,-42C106,-39.79 83.81,-38 56.5,-38 29.19,-38 7,-39.79 7,-42"/>
<text text-anchor="middle" x="56.5" y="-27.2" font-family="Helvetica,sans-Serif" font-size="11.00">Key Registry</text>
<text text-anchor="middle" x="56.5" y="-15.2" font-family="Helvetica,sans-Serif" font-size="11.00">(GitHub Pages)</text>
</g>
<!-- registry&#45;&gt;validate -->
<g id="edge11" class="edge">
<title>registry&#45;&gt;validate</title>
<path fill="none" stroke="#6c757d" stroke-dasharray="1,5" d="M106.19,-33.72C132.78,-39.6 166.09,-47.92 195,-58 197.75,-58.96 200.55,-60.01 203.36,-61.12"/>
<polygon fill="#6c757d" stroke="#6c757d" points="202.28,-64.46 212.85,-65.07 204.96,-58 202.28,-64.46"/>
<text text-anchor="middle" x="159.5" y="-70.8" font-family="Helvetica,sans-Serif" font-size="9.00">pre&#45;sign</text>
<text text-anchor="middle" x="159.5" y="-60.8" font-family="Helvetica,sans-Serif" font-size="9.00">key check</text>
</g>
</g>
</svg>
