<?xml version="1.0" encoding="UTF-8" standalone="no"?>
<!DOCTYPE svg PUBLIC "-//W3C//DTD SVG 1.1//EN"
 "http://www.w3.org/Graphics/SVG/1.1/DTD/svg11.dtd">
<!-- Generated by graphviz version 2.42.4 (0)
 -->
<!-- Title: issuance_flow Pages: 1 -->
<svg width="1910pt" height="228pt"
 viewBox="0.00 0.00 1910.00 228.25" xmlns="http://www.w3.org/2000/svg" xmlns:xlink="http://www.w3.org/1999/xlink">
<g id="graph0" class="graph" transform="scale(1 1) rotate(0) translate(4 224.25)">
<title>issuance_flow</title>
<g id="clust1" class="cluster">
<title>cluster_app</title>
<path fill="transparent" stroke="#868e96" stroke-dasharray="5,2" d="M20,-75.25C20,-75.25 1710,-75.25 1710,-75.25 1716,-75.25 1722,-81.25 1722,-87.25 1722,-87.25 1722,-200.25 1722,-200.25 1722,-206.25 1716,-212.25 1710,-212.25 1710,-212.25 20,-212.25 20,-212.25 14,-212.25 8,-206.25 8,-200.25 8,-200.25 8,-87.25 8,-87.25 8,-81.25 14,-75.25 20,-75.25"/>
<text text-anchor="middle" x="88.5" y="-200.25" font-family="Helvetica,sans-Serif" font-size="10.00" fill="#495057">Desktop App (Go + Fyne GUI)</text>
</g>
<!-- form -->
<g id="node1" class="node">
<title>form</title>
<path fill="#dbe4ff" stroke="#495057" stroke-width="1.2" d="M116,-156.25C116,-156.25 28,-156.25 28,-156.25 22,-156.25 16,-150.25 16,-144.25 16,-144.25 16,-124.25 16,-124.25 16,-118.25 22,-112.25 28,-112.25 28,-112.25 116,-112.25 116,-112.25 122,-112.25 128,-118.25 128,-124.25 128,-124.25 128,-144.25 128,-144.25 128,-150.25 122,-156.25 116,-156.25"/>
<text text-anchor="middle" x="72" y="-143.45" font-family="Helvetica,sans-Serif" font-size="11.00">Credential Form</text>
<text text-anchor="middle" x="72" y="-131.45" font-family="Helvetica,sans-Serif" font-size="11.00">(recipient, honor,</text>
<text text-anchor="middle" x="72" y="-119.45" font-family="Helvetica,sans-Serif" font-size="11.00">detail, date)</text>
</g>
<!-- validate -->
<g id="node2" class="node">
<title>validate</title>
<path fill="#f8f9fa" stroke="#495057" stroke-width="1.2" d="M296,-152.25C296,-152.25 249,-152.25 249,-152.25 243,-152.25 237,-146.25 237,-140.25 237,-140.25 237,-128.25 237,-128.25 237,-122.25 243,-116.25 249,-116.25 249,-116.25 296,-116.25 296,-116.25 302,-116.25 308,-122.25 308,-128.25 308,-128.25 308,-140.25 308,-140.25 308,-146.25 302,-152.25 296,-152.25"/>
<text text-anchor="middle" x="272.5" y="-137.45" font-family="Helvetica,sans-Serif" font-size="11.00">Validate</text>
<text text-anchor="middle" x="272.5" y="-125.45" font-family="Helvetica,sans-Serif" font-size="11.00">credential</text>
</g>
<!-- form&#45;&gt;validate -->
<g id="edge1" class="edge">
<title>form&#45;&gt;validate</title>
<path fill="none" stroke="#6c757d" d="M128.03,-134.25C159.09,-134.25 197.42,-134.25 226.65,-134.25"/>
<polygon fill="#6c757d" stroke="#6c757d" points="226.97,-137.75 236.97,-134.25 226.97,-130.75 226.97,-137.75"/>
<text text-anchor="middle" x="182.5" y="-137.05" font-family="Helvetica,sans-Serif" font-size="9.00">credential fields</text>
</g>
<!-- canonicalize -->
<g id="node3" class="node">
<title>canonicalize</title>
<path fill="#f8f9fa" stroke="#495057" stroke-width="1.2" d="M433,-152.25C433,-152.25 357,-152.25 357,-152.25 351,-152.25 345,-146.25 345,-140.25 345,-140.25 345,-128.25 345,-128.25 345,-122.25 351,-116.25 357,-116.25 357,-116.25 433,-116.25 433,-116.25 439,-116.25 445,-122.25 445,-128.25 445,-128.25 445,-140.25 445,-140.25 445,-146.25 439,-152.25 433,-152.25"/>
<text text-anchor="middle" x="395" y="-137.45" font-family="Helvetica,sans-Serif" font-size="11.00">Canonicalize</text>
<text text-anchor="middle" x="395" y="-125.45" font-family="Helvetica,sans-Serif" font-size="11.00">(JSON → bytes)</text>
</g>
<!-- validate&#45;&gt;canonicalize -->
<g id="edge2" class="edge">
<title>validate&#45;&gt;canonicalize</title>
<path fill="none" stroke="#6c757d" d="M308.03,-134.25C316.32,-134.25 325.4,-134.25 334.47,-134.25"/>
<polygon fill="#6c757d" stroke="#6c757d" points="334.65,-137.75 344.65,-134.25 334.65,-130.75 334.65,-137.75"/>
</g>
<!-- dup -->
<g id="node4" class="node">
<title>dup</title>
<polygon fill="#e6fcf5" stroke="#495057" stroke-width="1.2" points="651,-178.25 552,-134.25 651,-90.25 750,-134.25 651,-178.25"/>
<text text-anchor="middle" x="651" y="-143.45" font-family="Helvetica,sans-Serif" font-size="11.00">Already in</text>
<text text-anchor="middle" x="651" y="-131.45" font-family="Helvetica,sans-Serif" font-size="11.00">issuance log?</text>
<text text-anchor="middle" x="651" y="-119.45" font-family="Helvetica,sans-Serif" font-size="11.00">(payload hash)</text>
</g>
<!-- canonicalize&#45;&gt;dup -->
<g id="edge3" class="edge">
<title>canonicalize&#45;&gt;dup</title>
<path fill="none" stroke="#6c757d" d="M445.27,-134.25C472.73,-134.25 508.06,-134.25 541.62,-134.25"/>
<polygon fill="#6c757d" stroke="#6c757d" points="541.97,-137.75 551.97,-134.25 541.97,-130.75 541.97,-137.75"/>
<text text-anchor="middle" x="498.5" y="-137.05" font-family="Helvetica,sans-Serif" font-size="9.00">canonical bytes</text>
</g>
<!-- sign_req -->
<g id="node5" class="node">
<title>sign_req</title>
<path fill="#f8f9fa" stroke="#495057" stroke-width="1.2" d="M877,-121.25C877,-121.25 810,-121.25 810,-121.25 804,-121.25 798,-115.25 798,-109.25 798,-109.25 798,-97.25 798,-97.25 798,-91.25 804,-85.25 810,-85.25 810,-85.25 877,-85.25 877,-85.25 883,-85.25 889,-91.25 889,-97.25 889,-97.25 889,-109.25 889,-109.25 889,-115.25 883,-121.25 877,-121.25"/>
<text text-anchor="middle" x="843.5" y="-106.45" font-family="Helvetica,sans-Serif" font-size="11.00">Sign via</text>
<text text-anchor="middle" x="843.5" y="-94.45" font-family="Helvetica,sans-Serif" font-size="11.00">piv&#45;go (PCSC)</text>
</g>
<!-- dup&#45;&gt;sign_req -->
<g id="edge4" class="edge">
<title>dup&#45;&gt;sign_req</title>
<path fill="none" stroke="#6c757d" d="M723.75,-122.57C744.94,-119.13 767.8,-115.41 787.74,-112.16"/>
<polygon fill="#6c757d" stroke="#6c757d" points="788.57,-115.57 797.88,-110.51 787.45,-108.66 788.57,-115.57"/>
<text text-anchor="middle" x="774" y="-117.05" font-family="Helvetica,sans-Serif" font-size="9.00">no</text>
</g>
<!-- encode -->
<g id="node8" class="node">
<title>encode</title>
<path fill="#f8f9fa" stroke="#495057" stroke-width="1.2" d="M1315,-151.25C1315,-151.25 1260,-151.25 1260,-151.25 1254,-151.25 1248,-145.25 1248,-139.25 1248,-139.25 1248,-127.25 1248,-127.25 1248,-121.25 1254,-115.25 1260,-115.25 1260,-115.25 1315,-115.25 1315,-115.25 1321,-115.25 1327,-121.25 1327,-127.25 1327,-127.25 1327,-139.25 1327,-139.25 1327,-145.25 1321,-151.25 1315,-151.25"/>
<text text-anchor="middle" x="1287.5" y="-136.45" font-family="Helvetica,sans-Serif" font-size="11.00">Base64URL</text>
<text text-anchor="middle" x="1287.5" y="-124.45" font-family="Helvetica,sans-Serif" font-size="11.00">encode</text>
</g>
<!-- dup&#45;&gt;encode -->
<g id="edge5" class="edge">
<title>dup&#45;&gt;encode</title>
<path fill="none" stroke="#6c757d" stroke-dasharray="5,2" d="M724.16,-145.98C759.7,-150.79 803.24,-155.25 842.5,-155.25 842.5,-155.25 842.5,-155.25 1169.5,-155.25 1192.24,-155.25 1217.03,-151.19 1237.93,-146.56"/>
<polygon fill="#6c757d" stroke="#6c757d" points="1238.89,-149.92 1247.84,-144.25 1237.31,-143.11 1238.89,-149.92"/>
<text text-anchor="middle" x="1048" y="-178.05" font-family="Helvetica,sans-Serif" font-size="9.00">yes: reuse logged</text>
<text text-anchor="middle" x="1048" y="-168.05" font-family="Helvetica,sans-Serif" font-size="9.00">signature, no PIN,</text>
<text text-anchor="middle" x="1048" y="-158.05" font-family="Helvetica,sans-Serif" font-size="9.00">no new record</text>
</g>
<!-- verify_rt -->
<g id="node6" class="node">
<title>verify_rt</title>
<path fill="#f8f9fa" stroke="#495057" stroke-width="1.2" d="M1071.5,-119.25C1071.5,-119.25 1024.5,-119.25 1024.5,-119.25 1018.5,-119.25 1012.5,-113.25 1012.5,-107.25 1012.5,-107.25 1012.5,-95.25 1012.5,-95.25 1012.5,-89.25 1018.5,-83.25 1024.5,-83.25 1024.5,-83.25 1071.5,-83.25 1071.5,-83.25 1077.5,-83.25 1083.5,-89.25 1083.5,-95.25 1083.5,-95.25 1083.5,-107.25 1083.5,-107.25 1083.5,-113.25 1077.5,-119.25 1071.5,-119.25"/>
<text text-anchor="middle" x="1048" y="-104.45" font-family="Helvetica,sans-Serif" font-size="11.00">Verify</text>
<text text-anchor="middle" x="1048" y="-92.45" font-family="Helvetica,sans-Serif" font-size="11.00">round&#45;trip</text>
</g>
<!-- sign_req&#45;&gt;verify_rt -->
<g id="edge8" class="edge">
<title>sign_req&#45;&gt;verify_rt</title>
<path fill="none" stroke="#6c757d" d="M889.19,-102.81C922.86,-102.48 968.82,-102.02 1002.46,-101.69"/>
<polygon fill="#6c757d" stroke="#6c757d" points="1002.51,-105.19 1012.47,-101.59 1002.44,-98.19 1002.51,-105.19"/>
<text text-anchor="middle" x="948" y="-105.05" font-family="Helvetica,sans-Serif" font-size="9.00">signature</text>
</g>
<!-- yubikey -->
<g id="node11" class="node">
<title>yubikey</title>
<path fill="#fff3bf" stroke="#495057" stroke-width="1.2" d="M1085,-55.21C1085,-58.27 1068.42,-60.75 1048,-60.75 1027.58,-60.75 1011,-58.27 1011,-55.21 1011,-55.21 1011,-5.29 1011,-5.29 1011,-2.23 1027.58,0.25 1048,0.25 1068.42,0.25 1085,-2.23 1085,-5.29 1085,-5.29 1085,-55.21 1085,-55.21"/>
<path fill="none" stroke="#495057" stroke-width="1.2" d="M1085,-55.21C1085,-52.15 1068.42,-49.66 1048,-49.66 1027.58,-49.66 1011,-52.15 1011,-55.21"/>
<text text-anchor="middle" x="1048" y="-39.45" font-family="Helvetica,sans-Serif" font-size="11.00">YubiKey</text>
<text text-anchor="middle" x="1048" y="-27.45" font-family="Helvetica,sans-Serif" font-size="11.00">PIV slot 9c</text>
<text text-anchor="middle" x="1048" y="-15.45" font-family="Helvetica,sans-Serif" font-size="11.00">Ed25519</text>
</g>
<!-- sign_req&#45;&gt;yubikey -->
<g id="edge6" class="edge">
<title>sign_req&#45;&gt;yubikey</title>
<path fill="none" stroke="#6c757d" stroke-dasharray="5,2" d="M886.7,-85.22C893.46,-82.47 900.4,-79.73 907,-77.25 938.11,-65.58 973.59,-53.68 1001.06,-44.77"/>
<polygon fill="#6c757d" stroke="#6c757d" points="1002.34,-48.03 1010.79,-41.63 1000.2,-41.37 1002.34,-48.03"/>
<text text-anchor="middle" x="948" y="-90.05" font-family="Helvetica,sans-Serif" font-size="9.00">PIN via</text>
<text text-anchor="middle" x="948" y="-80.05" font-family="Helvetica,sans-Serif" font-size="9.00">GUI dialog</text>
</g>
<!-- log -->
<g id="node7" class="node">
<title>log</title>
<path fill="#f8f9fa" stroke="#495057" stroke-width="1.2" d="M1199,-128.25C1199,-128.25 1138,-128.25 1138,-128.25 1132,-128.25 1126,-122.25 1126,-116.25 1126,-116.25 1126,-104.25 1126,-104.25 1126,-98.25 1132,-92.25 1138,-92.25 1138,-92.25 1199,-92.25 1199,-92.25 1205,-92.25 1211,-98.25 1211,-104.25 1211,-104.25 1211,-116.25 1211,-116.25 1211,-122.25 1205,-128.25 1199,-128.25"/>
<text text-anchor="middle" x="1168.5" y="-113.45" font-family="Helvetica,sans-Serif" font-size="11.00">Append to</text>
<text text-anchor="middle" x="1168.5" y="-101.45" font-family="Helvetica,sans-Serif" font-size="11.00">issuance log</text>
</g>
<!-- verify_rt&#45;&gt;log -->
<g id="edge9" class="edge">
<title>verify_rt&#45;&gt;log</title>
<path fill="none" stroke="#6c757d" d="M1083.59,-103.88C1093.64,-104.64 1104.83,-105.49 1115.69,-106.31"/>
<polygon fill="#6c757d" stroke="#6c757d" points="1115.7,-109.83 1125.94,-107.09 1116.24,-102.85 1115.7,-109.83"/>
</g>
<!-- log&#45;&gt;encode -->
<g id="edge10" class="edge">
<title>log&#45;&gt;encode</title>
<path fill="none" stroke="#6c757d" d="M1211.08,-118.42C1219.76,-120.13 1228.99,-121.95 1237.91,-123.7"/>
<polygon fill="#6c757d" stroke="#6c757d" points="1237.3,-127.15 1247.79,-125.64 1238.65,-120.28 1237.3,-127.15"/>
</g>
<!-- build_url -->
<g id="node9" class="node">
<title>build_url</title>
<path fill="#f8f9fa" stroke="#495057" stroke-width="1.2" d="M1506,-151.25C1506,-151.25 1426,-151.25 1426,-151.25 1420,-151.25 1414,-145.25 1414,-139.25 1414,-139.25 1414,-127.25 1414,-127.25 1414,-121.25 1420,-115.25 1426,-115.25 1426,-115.25 1506,-115.25 1506,-115.25 1512,-115.25 1518,-121.25 1518,-127.25 1518,-127.25 1518,-139.25 1518,-139.25 1518,-145.25 1512,-151.25 1506,-151.25"/>
<text text-anchor="middle" x="1466" y="-136.45" font-family="Helvetica,sans-Serif" font-size="11.00">Build</text>
<text text-anchor="middle" x="1466" y="-124.45" font-family="Helvetica,sans-Serif" font-size="11.00">verification URL</text>
</g>
<!-- encode&#45;&gt;build_url -->
<g id="edge11" class="edge">
<title>encode&#45;&gt;build_url</title>
<path fill="none" stroke="#6c757d" d="M1327.23,-133.25C1349.62,-133.25 1378.29,-133.25 1403.68,-133.25"/>
<polygon fill="#6c757d" stroke="#6c757d" points="1403.96,-136.75 1413.96,-133.25 1403.96,-129.75 1403.96,-136.75"/>
<text text-anchor="middle" x="1370.5" y="-136.05" font-family="Helvetica,sans-Serif" font-size="9.00">p=...&amp;s=...</text>
</g>
<!-- gen_qr -->
<g id="node10" class="node">
<title>gen_qr</title>
<path fill="#f8f9fa" stroke="#495057" stroke-width="1.2" d="M1702,-151.25C1702,-151.25 1638,-151.25 1638,-151.25 1632,-151.25 1626,-145.25 1626,-139.25 1626,-139.25 1626,-127.25 1626,-127.25 1626,-121.25 1632,-115.25 1638,-115.25 1638,-115.25 1702,-115.25 1702,-115.25 1708,-115.25 1714,-121.25 1714,-127.25 1714,-127.25 1714,-139.25 1714,-139.25 1714,-145.25 1708,-151.25 1702,-151.25"/>
<text text-anchor="middle" x="1670" y="-136.45" font-family="Helvetica,sans-Serif" font-size="11.00">Generate QR</text>
<text text-anchor="middle" x="1670" y="-124.45" font-family="Helvetica,sans-Serif" font-size="11.00">(SVG + PNG)</text>
</g>
<!-- build_url&#45;&gt;gen_qr -->
<g id="edge12" class="edge">
<title>build_url&#45;&gt;gen_qr</title>
<path fill="none" stroke="#6c757d" d="M1518.23,-133.25C1547.93,-133.25 1585.27,-133.25 1615.37,-133.25"/>
<polygon fill="#6c757d" stroke="#6c757d" points="1615.68,-136.75 1625.68,-133.25 1615.68,-129.75 1615.68,-136.75"/>
<text text-anchor="middle" x="1572" y="-136.05" font-family="Helvetica,sans-Serif" font-size="9.00">verification URL</text>
</g>
<!-- qr -->
<g id="node12" class="node">
<title>qr</title>
<polygon fill="#ffe3e3" stroke="#495057" stroke-width="1.2" points="1896,-151.25 1823,-151.25 1823,-115.25 1902,-115.25 1902,-145.25 1896,-151.25"/>
<polyline fill="none" stroke="#495057" stroke-width="1.2" points="1896,-151.25 1896,-145.25 "/>
<polyline fill="none" stroke="#495057" stroke-width="1.2" points="1902,-145.25 1896,-145.25 "/>
<text text-anchor="middle" x="1862.5" y="-136.45" font-family="Helvetica,sans-Serif" font-size="11.00">QR Code</text>
<text text-anchor="middle" x="1862.5" y="-124.45" font-family="Helvetica,sans-Serif" font-size="11.00">on Diploma</text>
</g>
<!-- gen_qr&#45;&gt;qr -->
<g id="edge13" class="edge">
<title>gen_qr&#45;&gt;qr</title>
<path fill="none" stroke="#6c757d" d="M1714.23,-133.25C1743.49,-133.25 1782.2,-133.25 1812.59,-133.25"/>
<polygon fill="#6c757d" stroke="#6c757d" points="1812.97,-136.75 1822.97,-133.25 1812.97,-129.75 1812.97,-136.75"/>
<text text-anchor="middle" x="1768.5" y="-146.05" font-family="Helvetica,sans-Serif" font-size="9.00">SVG for print</text>
<text text-anchor="middle" x="1768.5" y="-136.05" font-family="Helvetica,sans-Serif" font-size="9.00">PNG for preview</text>
</g>
<!-- yubikey&#45;&gt;sign_req -->
<g id="edge7" class="edge">
<title>yubikey&#45;&gt;sign_req</title>
<path fill="none" stroke="#6c757d" stroke-dasharray="5,2" d="M1010.74,-24.51C981.39,-21.54 939.71,-21.19 907,-36.25 888.28,-44.87 872.5,-61.93 861.48,-76.67"/>
<polygon fill="#6c757d" stroke="#6c757d" points="858.49,-74.83 855.55,-85.01 864.2,-78.89 858.49,-74.83"/>
<text text-anchor="middle" x="948" y="-39.05" font-family="Helvetica,sans-Serif" font-size="9.00">64&#45;byte signature</text>
</g>
</g>
</svg>
