<?xml version="1.0" encoding="UTF-8" standalone="no"?>
<!DOCTYPE svg PUBLIC "-//W3C//DTD SVG 1.1//EN"
 "http://www.w3.org/Graphics/SVG/1.1/DTD/svg11.dtd">
<!-- Generated by graphviz version 2.42.4 (0)
 -->
<!-- Title: module_architecture Pages: 1 -->
<svg width="960pt" height="693pt"
 viewBox="0.00 0.00 960.00 693.00" xmlns="http://www.w3.org/2000/svg" xmlns:xlink="http://www.w3.org/1999/xlink">
<g id="graph0" class="graph" transform="scale(1 1) rotate(0) translate(4 689)">
<title>module_architecture</title>
<g id="clust1" class="cluster">
<title>cluster_core</title>
<path fill="transparent" stroke="#4263eb" stroke-dasharray="5,2" d="M300,-8C300,-8 612,-8 612,-8 618,-8 624,-14 624,-20 624,-20 624,-286 624,-286 624,-292 618,-298 612,-298 612,-298 300,-298 300,-298 294,-298 288,-292 288,-286 288,-286 288,-20 288,-20 288,-14 294,-8 300,-8"/>
<text text-anchor="middle" x="326" y="-286" font-family="Helvetica,sans-Serif" font-size="10.00" fill="#4263eb">Core Library</text>
</g>
<g id="clust2" class="cluster">
<title>cluster_server</title>
<path fill="transparent" stroke="#e67700" stroke-dasharray="5,2" d="M20,-227C20,-227 268,-227 268,-227 274,-227 280,-233 280,-239 280,-239 280,-665 280,-665 280,-671 274,-677 268,-677 268,-677 20,-677 20,-677 14,-677 8,-671 8,-665 8,-665 8,-239 8,-239 8,-233 14,-227 20,-227"/>
<text text-anchor="middle" x="51.5" y="-665" font-family="Helvetica,sans-Serif" font-size="10.00" fill="#e67700">Signing Server</text>
</g>
<!-- index -->
<g id="node1" class="node">
<title>index</title>
<path fill="#dbe4ff" stroke="#4263eb" stroke-width="1.2" d="M587.5,-271C587.5,-271 524.5,-271 524.5,-271 518.5,-271 512.5,-265 512.5,-259 512.5,-259 512.5,-247 512.5,-247 512.5,-241 518.5,-235 524.5,-235 524.5,-235 587.5,-235 587.5,-235 593.5,-235 599.5,-241 599.5,-247 599.5,-247 599.5,-259 599.5,-259 599.5,-265 593.5,-271 587.5,-271"/>
<text text-anchor="middle" x="556" y="-256" font-family="Helvetica,sans-Serif" font-size="10.00">index.ts</text>
<text text-anchor="middle" x="556" y="-245" font-family="Helvetica,sans-Serif" font-size="10.00">(barrel export)</text>
</g>
<!-- verify -->
<g id="node2" class="node">
<title>verify</title>
<path fill="#dbe4ff" stroke="#4263eb" stroke-width="1.2" d="M485.5,-198C485.5,-198 426.5,-198 426.5,-198 420.5,-198 414.5,-192 414.5,-186 414.5,-186 414.5,-174 414.5,-174 414.5,-168 420.5,-162 426.5,-162 426.5,-162 485.5,-162 485.5,-162 491.5,-162 497.5,-168 497.5,-174 497.5,-174 497.5,-186 497.5,-186 497.5,-192 491.5,-198 485.5,-198"/>
<text text-anchor="middle" x="456" y="-183" font-family="Helvetica,sans-Serif" font-size="10.00">verify.ts</text>
<text text-anchor="middle" x="456" y="-172" font-family="Helvetica,sans-Serif" font-size="10.00">(orchestrator)</text>
</g>
<!-- credential -->
<g id="node4" class="node">
<title>credential</title>
<path fill="#dbe4ff" stroke="#4263eb" stroke-width="1.2" d="M503.5,-125C503.5,-125 412.5,-125 412.5,-125 406.5,-125 400.5,-119 400.5,-113 400.5,-113 400.5,-101 400.5,-101 400.5,-95 406.5,-89 412.5,-89 412.5,-89 503.5,-89 503.5,-89 509.5,-89 515.5,-95 515.5,-101 515.5,-101 515.5,-113 515.5,-113 515.5,-119 509.5,-125 503.5,-125"/>
<text text-anchor="middle" x="458" y="-110" font-family="Helvetica,sans-Serif" font-size="10.00">credential.ts</text>
<text text-anchor="middle" x="458" y="-99" font-family="Helvetica,sans-Serif" font-size="10.00">(schema + sanitize)</text>
</g>
<!-- verify&#45;&gt;credential -->
<g id="edge1" class="edge">
<title>verify&#45;&gt;credential</title>
<path fill="none" stroke="#868e96" stroke-width="0.8" d="M456.48,-161.81C456.71,-153.79 456.98,-144.05 457.24,-135.07"/>
<polygon fill="#868e96" stroke="#868e96" stroke-width="0.8" points="460.74,-135.12 457.52,-125.03 453.74,-134.93 460.74,-135.12"/>
</g>
<!-- crypto -->
<g id="node5" class="node">
<title>crypto</title>
<path fill="#dbe4ff" stroke="#4263eb" stroke-width="1.2" d="M370,-125C370,-125 328,-125 328,-125 322,-125 316,-119 316,-113 316,-113 316,-101 316,-101 316,-95 322,-89 328,-89 328,-89 370,-89 370,-89 376,-89 382,-95 382,-101 382,-101 382,-113 382,-113 382,-119 376,-125 370,-125"/>
<text text-anchor="middle" x="349" y="-110" font-family="Helvetica,sans-Serif" font-size="10.00">crypto.ts</text>
<text text-anchor="middle" x="349" y="-99" font-family="Helvetica,sans-Serif" font-size="10.00">(Ed25519)</text>
</g>
<!-- verify&#45;&gt;crypto -->
<g id="edge2" class="edge">
<title>verify&#45;&gt;crypto</title>
<path fill="none" stroke="#868e96" stroke-width="0.8" d="M430.37,-161.99C416.31,-152.67 398.69,-140.97 383.45,-130.86"/>
<polygon fill="#868e96" stroke="#868e96" stroke-width="0.8" points="385.06,-127.73 374.79,-125.11 381.19,-133.56 385.06,-127.73"/>
</g>
<!-- registry -->
<g id="node6" class="node">
<title>registry</title>
<path fill="#dbe4ff" stroke="#4263eb" stroke-width="1.2" d="M604,-125C604,-125 546,-125 546,-125 540,-125 534,-119 534,-113 534,-113 534,-101 534,-101 534,-95 540,-89 546,-89 546,-89 604,-89 604,-89 610,-89 616,-95 616,-101 616,-101 616,-113 616,-113 616,-119 610,-125 604,-125"/>
<text text-anchor="middle" x="575" y="-110" font-family="Helvetica,sans-Serif" font-size="10.00">registry.ts</text>
<text text-anchor="middle" x="575" y="-99" font-family="Helvetica,sans-Serif" font-size="10.00">(key registry)</text>
</g>
<!-- verify&#45;&gt;registry -->
<g id="edge3" class="edge">
<title>verify&#45;&gt;registry</title>
<path fill="none" stroke="#868e96" stroke-width="0.8" d="M484.5,-161.99C500.43,-152.49 520.47,-140.54 537.64,-130.29"/>
<polygon fill="#868e96" stroke="#868e96" stroke-width="0.8" points="539.52,-133.24 546.32,-125.11 535.94,-127.23 539.52,-133.24"/>
</g>
<!-- verify_page -->
<g id="node3" class="node">
<title>verify_page</title>
<path fill="#dbe4ff" stroke="#4263eb" stroke-width="1.2" d="M482,-271C482,-271 422,-271 422,-271 416,-271 410,-265 410,-259 410,-259 410,-247 410,-247 410,-241 416,-235 422,-235 422,-235 482,-235 482,-235 488,-235 494,-241 494,-247 494,-247 494,-259 494,-259 494,-265 488,-271 482,-271"/>
<text text-anchor="middle" x="452" y="-256" font-family="Helvetica,sans-Serif" font-size="10.00">verify&#45;page.ts</text>
<text text-anchor="middle" x="452" y="-245" font-family="Helvetica,sans-Serif" font-size="10.00">(browser UI)</text>
</g>
<!-- verify_page&#45;&gt;verify -->
<g id="edge4" class="edge">
<title>verify_page&#45;&gt;verify</title>
<path fill="none" stroke="#868e96" stroke-width="0.8" d="M452.97,-234.81C453.42,-226.79 453.97,-217.05 454.47,-208.07"/>
<polygon fill="#868e96" stroke="#868e96" stroke-width="0.8" points="457.97,-208.21 455.04,-198.03 450.98,-207.82 457.97,-208.21"/>
</g>
<!-- verify_page&#45;&gt;registry -->
<g id="edge6" class="edge">
<title>verify_page&#45;&gt;registry</title>
<path fill="none" stroke="#868e96" stroke-width="0.8" d="M470.77,-234.89C481.73,-224.58 495.61,-210.97 507,-198 525.3,-177.17 544.16,-151.85 557.36,-133.38"/>
<polygon fill="#868e96" stroke="#868e96" stroke-width="0.8" points="560.25,-135.35 563.18,-125.17 554.54,-131.3 560.25,-135.35"/>
</g>
<!-- base64url -->
<g id="node8" class="node">
<title>base64url</title>
<path fill="#dbe4ff" stroke="#4263eb" stroke-width="1.2" d="M408.5,-52C408.5,-52 355.5,-52 355.5,-52 349.5,-52 343.5,-46 343.5,-40 343.5,-40 343.5,-28 343.5,-28 343.5,-22 349.5,-16 355.5,-16 355.5,-16 408.5,-16 408.5,-16 414.5,-16 420.5,-22 420.5,-28 420.5,-28 420.5,-40 420.5,-40 420.5,-46 414.5,-52 408.5,-52"/>
<text text-anchor="middle" x="382" y="-37" font-family="Helvetica,sans-Serif" font-size="10.00">base64url.ts</text>
<text text-anchor="middle" x="382" y="-26" font-family="Helvetica,sans-Serif" font-size="10.00">(encoding)</text>
</g>
<!-- verify_page&#45;&gt;base64url -->
<g id="edge5" class="edge">
<title>verify_page&#45;&gt;base64url</title>
<path fill="none" stroke="#868e96" stroke-width="0.8" d="M419.66,-234.89C384.43,-214.2 330.01,-175.74 307,-125 300.39,-110.43 299.71,-103.24 307,-89 313.53,-76.24 324.64,-65.82 336.33,-57.64"/>
<polygon fill="#868e96" stroke="#868e96" stroke-width="0.8" points="338.4,-60.47 344.89,-52.09 334.59,-54.6 338.4,-60.47"/>
</g>
<!-- validation -->
<g id="node7" class="node">
<title>validation</title>
<path fill="#dbe4ff" stroke="#4263eb" stroke-width="1.2" d="M550.5,-52C550.5,-52 497.5,-52 497.5,-52 491.5,-52 485.5,-46 485.5,-40 485.5,-40 485.5,-28 485.5,-28 485.5,-22 491.5,-16 497.5,-16 497.5,-16 550.5,-16 550.5,-16 556.5,-16 562.5,-22 562.5,-28 562.5,-28 562.5,-40 562.5,-40 562.5,-46 556.5,-52 550.5,-52"/>
<text text-anchor="middle" x="524" y="-37" font-family="Helvetica,sans-Serif" font-size="10.00">validation.ts</text>
<text text-anchor="middle" x="524" y="-26" font-family="Helvetica,sans-Serif" font-size="10.00">(date utils)</text>
</g>
<!-- credential&#45;&gt;validation -->
<g id="edge7" class="edge">
<title>credential&#45;&gt;validation</title>
<path fill="none" stroke="#868e96" stroke-width="0.8" d="M473.98,-88.81C482.16,-80 492.28,-69.13 501.26,-59.46"/>
<polygon fill="#868e96" stroke="#868e96" stroke-width="0.8" points="503.93,-61.74 508.17,-52.03 498.8,-56.97 503.93,-61.74"/>
</g>
<!-- noble -->
<g id="node20" class="node">
<title>noble</title>
<polygon fill="#d3f9d8" stroke="#2b8a3e" stroke-width="1.2" points="720.5,-52 631.5,-52 631.5,-48 627.5,-48 627.5,-44 631.5,-44 631.5,-24 627.5,-24 627.5,-20 631.5,-20 631.5,-16 720.5,-16 720.5,-52"/>
<polyline fill="none" stroke="#2b8a3e" stroke-width="1.2" points="631.5,-48 635.5,-48 635.5,-44 631.5,-44 "/>
<polyline fill="none" stroke="#2b8a3e" stroke-width="1.2" points="631.5,-24 635.5,-24 635.5,-20 631.5,-20 "/>
<text text-anchor="middle" x="676" y="-37" font-family="Helvetica,sans-Serif" font-size="10.00">@noble/curves</text>
<text text-anchor="middle" x="676" y="-26" font-family="Helvetica,sans-Serif" font-size="10.00">(Ed25519)</text>
</g>
<!-- crypto&#45;&gt;noble -->
<g id="edge10" class="edge">
<title>crypto&#45;&gt;noble</title>
<path fill="none" stroke="#868e96" stroke-width="0.8" d="M382.23,-91.75C385.17,-90.73 388.12,-89.8 391,-89 490.54,-61.48 522.64,-77.08 621.58,-53.52"/>
<polygon fill="#868e96" stroke="#868e96" stroke-width="0.8" points="622.49,-56.9 631.37,-51.11 620.82,-50.1 622.49,-56.9"/>
</g>
<!-- registry&#45;&gt;validation -->
<g id="edge9" class="edge">
<title>registry&#45;&gt;validation</title>
<path fill="none" stroke="#868e96" stroke-width="0.8" d="M562.65,-88.81C556.52,-80.27 548.98,-69.77 542.19,-60.32"/>
<polygon fill="#868e96" stroke="#868e96" stroke-width="0.8" points="544.91,-58.11 536.23,-52.03 539.22,-62.19 544.91,-58.11"/>
</g>
<!-- registry&#45;&gt;base64url -->
<g id="edge8" class="edge">
<title>registry&#45;&gt;base64url</title>
<path fill="none" stroke="#868e96" stroke-width="0.8" d="M533.6,-90.77C503.28,-79.62 462.06,-64.45 430.25,-52.75"/>
<polygon fill="#868e96" stroke="#868e96" stroke-width="0.8" points="431.3,-49.41 420.71,-49.24 428.88,-55.98 431.3,-49.41"/>
</g>
<!-- canonical -->
<g id="node9" class="node">
<title>canonical</title>
<path fill="#dbe4ff" stroke="#4263eb" stroke-width="1.2" d="M380,-271C380,-271 308,-271 308,-271 302,-271 296,-265 296,-259 296,-259 296,-247 296,-247 296,-241 302,-235 308,-235 308,-235 380,-235 380,-235 386,-235 392,-241 392,-247 392,-247 392,-259 392,-259 392,-265 386,-271 380,-271"/>
<text text-anchor="middle" x="344" y="-256" font-family="Helvetica,sans-Serif" font-size="10.00">canonical.ts</text>
<text text-anchor="middle" x="344" y="-245" font-family="Helvetica,sans-Serif" font-size="10.00">(JSON serializer)</text>
</g>
<!-- cli -->
<g id="node10" class="node">
<title>cli</title>
<path fill="#fff3bf" stroke="#e67700" stroke-width="1.2" d="M186.5,-650C186.5,-650 133.5,-650 133.5,-650 127.5,-650 121.5,-644 121.5,-638 121.5,-638 121.5,-626 121.5,-626 121.5,-620 127.5,-614 133.5,-614 133.5,-614 186.5,-614 186.5,-614 192.5,-614 198.5,-620 198.5,-626 198.5,-626 198.5,-638 198.5,-638 198.5,-644 192.5,-650 186.5,-650"/>
<text text-anchor="middle" x="160" y="-635" font-family="Helvetica,sans-Serif" font-size="10.00">cli.ts</text>
<text text-anchor="middle" x="160" y="-624" font-family="Helvetica,sans-Serif" font-size="10.00">(entry point)</text>
</g>
<!-- main -->
<g id="node11" class="node">
<title>main</title>
<path fill="#fff3bf" stroke="#e67700" stroke-width="1.2" d="M174.5,-577C174.5,-577 139.5,-577 139.5,-577 133.5,-577 127.5,-571 127.5,-565 127.5,-565 127.5,-553 127.5,-553 127.5,-547 133.5,-541 139.5,-541 139.5,-541 174.5,-541 174.5,-541 180.5,-541 186.5,-547 186.5,-553 186.5,-553 186.5,-565 186.5,-565 186.5,-571 180.5,-577 174.5,-577"/>
<text text-anchor="middle" x="157" y="-562" font-family="Helvetica,sans-Serif" font-size="10.00">main.ts</text>
<text text-anchor="middle" x="157" y="-551" font-family="Helvetica,sans-Serif" font-size="10.00">(startup)</text>
</g>
<!-- cli&#45;&gt;main -->
<g id="edge11" class="edge">
<title>cli&#45;&gt;main</title>
<path fill="none" stroke="#868e96" stroke-width="0.8" d="M159.27,-613.81C158.93,-605.79 158.52,-596.05 158.14,-587.07"/>
<polygon fill="#868e96" stroke="#868e96" stroke-width="0.8" points="161.64,-586.87 157.72,-577.03 154.64,-587.17 161.64,-586.87"/>
</g>
<!-- http -->
<g id="node12" class="node">
<title>http</title>
<path fill="#fff3bf" stroke="#e67700" stroke-width="1.2" d="M105.5,-504C105.5,-504 28.5,-504 28.5,-504 22.5,-504 16.5,-498 16.5,-492 16.5,-492 16.5,-480 16.5,-480 16.5,-474 22.5,-468 28.5,-468 28.5,-468 105.5,-468 105.5,-468 111.5,-468 117.5,-474 117.5,-480 117.5,-480 117.5,-492 117.5,-492 117.5,-498 111.5,-504 105.5,-504"/>
<text text-anchor="middle" x="67" y="-489" font-family="Helvetica,sans-Serif" font-size="10.00">http.ts</text>
<text text-anchor="middle" x="67" y="-478" font-family="Helvetica,sans-Serif" font-size="10.00">(request handler)</text>
</g>
<!-- main&#45;&gt;http -->
<g id="edge12" class="edge">
<title>main&#45;&gt;http</title>
<path fill="none" stroke="#868e96" stroke-width="0.8" d="M135.21,-540.81C123.61,-531.66 109.16,-520.26 96.56,-510.32"/>
<polygon fill="#868e96" stroke="#868e96" stroke-width="0.8" points="98.6,-507.47 88.59,-504.03 94.27,-512.97 98.6,-507.47"/>
</g>
<!-- reg_fetch -->
<g id="node14" class="node">
<title>reg_fetch</title>
<path fill="#fff3bf" stroke="#e67700" stroke-width="1.2" d="M259.5,-504C259.5,-504 188.5,-504 188.5,-504 182.5,-504 176.5,-498 176.5,-492 176.5,-492 176.5,-480 176.5,-480 176.5,-474 182.5,-468 188.5,-468 188.5,-468 259.5,-468 259.5,-468 265.5,-468 271.5,-474 271.5,-480 271.5,-480 271.5,-492 271.5,-492 271.5,-498 265.5,-504 259.5,-504"/>
<text text-anchor="middle" x="224" y="-489" font-family="Helvetica,sans-Serif" font-size="10.00">registry&#45;fetch.ts</text>
<text text-anchor="middle" x="224" y="-478" font-family="Helvetica,sans-Serif" font-size="10.00">(fetch + SSRF)</text>
</g>
<!-- main&#45;&gt;reg_fetch -->
<g id="edge14" class="edge">
<title>main&#45;&gt;reg_fetch</title>
<path fill="none" stroke="#868e96" stroke-width="0.8" d="M173.22,-540.81C181.53,-532 191.8,-521.13 200.92,-511.46"/>
<polygon fill="#868e96" stroke="#868e96" stroke-width="0.8" points="203.61,-513.7 207.93,-504.03 198.52,-508.9 203.61,-513.7"/>
</g>
<!-- key_match -->
<g id="node15" class="node">
<title>key_match</title>
<path fill="#fff3bf" stroke="#e67700" stroke-width="1.2" d="M225,-396C225,-396 169,-396 169,-396 163,-396 157,-390 157,-384 157,-384 157,-372 157,-372 157,-366 163,-360 169,-360 169,-360 225,-360 225,-360 231,-360 237,-366 237,-372 237,-372 237,-384 237,-384 237,-390 231,-396 225,-396"/>
<text text-anchor="middle" x="197" y="-381" font-family="Helvetica,sans-Serif" font-size="10.00">key&#45;match.ts</text>
<text text-anchor="middle" x="197" y="-370" font-family="Helvetica,sans-Serif" font-size="10.00">(key lookup)</text>
</g>
<!-- main&#45;&gt;key_match -->
<g id="edge15" class="edge">
<title>main&#45;&gt;key_match</title>
<path fill="none" stroke="#868e96" stroke-width="0.8" d="M152.72,-540.79C148.88,-522.47 144.74,-492.75 151,-468 156.72,-445.38 169.08,-422.02 179.55,-404.92"/>
<polygon fill="#868e96" stroke="#868e96" stroke-width="0.8" points="182.73,-406.43 185.11,-396.1 176.82,-402.69 182.73,-406.43"/>
</g>
<!-- yubikey -->
<g id="node16" class="node">
<title>yubikey</title>
<path fill="#fff3bf" stroke="#e67700" stroke-width="1.2" d="M259.5,-450C259.5,-450 202.5,-450 202.5,-450 196.5,-450 190.5,-444 190.5,-438 190.5,-438 190.5,-426 190.5,-426 190.5,-420 196.5,-414 202.5,-414 202.5,-414 259.5,-414 259.5,-414 265.5,-414 271.5,-420 271.5,-426 271.5,-426 271.5,-438 271.5,-438 271.5,-444 265.5,-450 259.5,-450"/>
<text text-anchor="middle" x="231" y="-435" font-family="Helvetica,sans-Serif" font-size="10.00">yubikey.ts</text>
<text text-anchor="middle" x="231" y="-424" font-family="Helvetica,sans-Serif" font-size="10.00">(YubiKey PIV)</text>
</g>
<!-- main&#45;&gt;yubikey -->
<g id="edge13" class="edge">
<title>main&#45;&gt;yubikey</title>
<path fill="none" stroke="#868e96" stroke-width="0.8" d="M154.49,-540.84C152.58,-521.46 152.38,-489.81 167,-468 170.84,-462.28 175.94,-457.4 181.58,-453.28"/>
<polygon fill="#868e96" stroke="#868e96" stroke-width="0.8" points="183.65,-456.11 190.17,-447.76 179.87,-450.22 183.65,-456.11"/>
</g>
<!-- sign -->
<g id="node13" class="node">
<title>sign</title>
<path fill="#fff3bf" stroke="#e67700" stroke-width="1.2" d="M126.5,-396C126.5,-396 43.5,-396 43.5,-396 37.5,-396 31.5,-390 31.5,-384 31.5,-384 31.5,-372 31.5,-372 31.5,-366 37.5,-360 43.5,-360 43.5,-360 126.5,-360 126.5,-360 132.5,-360 138.5,-366 138.5,-372 138.5,-372 138.5,-384 138.5,-384 138.5,-390 132.5,-396 126.5,-396"/>
<text text-anchor="middle" x="85" y="-381" font-family="Helvetica,sans-Serif" font-size="10.00">sign.ts</text>
<text text-anchor="middle" x="85" y="-370" font-family="Helvetica,sans-Serif" font-size="10.00">(sign orchestrator)</text>
</g>
<!-- http&#45;&gt;sign -->
<g id="edge16" class="edge">
<title>http&#45;&gt;sign</title>
<path fill="none" stroke="#868e96" stroke-width="0.8" d="M69.89,-467.97C72.71,-451.38 77.04,-425.88 80.34,-406.43"/>
<polygon fill="#868e96" stroke="#868e96" stroke-width="0.8" points="83.83,-406.79 82.06,-396.34 76.93,-405.61 83.83,-406.79"/>
</g>
<!-- http&#45;&gt;key_match -->
<g id="edge17" class="edge">
<title>http&#45;&gt;key_match</title>
<path fill="none" stroke="#868e96" stroke-width="0.8" d="M79.83,-468C92.05,-452.59 111.56,-429.92 132,-414 137.91,-409.4 144.51,-405.07 151.17,-401.14"/>
<polygon fill="#868e96" stroke="#868e96" stroke-width="0.8" points="153.25,-403.99 160.24,-396.03 149.81,-397.89 153.25,-403.99"/>
</g>
<!-- sign&#45;&gt;credential -->
<g id="edge21" class="edge">
<title>sign&#45;&gt;credential</title>
<path fill="none" stroke="#868e96" stroke-width="0.8" stroke-dasharray="5,2" d="M138.79,-361.65C141.89,-361.03 144.98,-360.47 148,-360 239.22,-345.89 475.25,-370.66 563,-342 596.51,-331.06 612.36,-329.08 629,-298 659.39,-241.22 629.58,-201.86 579,-162 561.61,-148.29 540.19,-137.26 520.23,-128.83"/>
<polygon fill="#868e96" stroke="#868e96" stroke-width="0.8" points="521.46,-125.55 510.88,-125.02 518.82,-132.03 521.46,-125.55"/>
</g>
<!-- sign&#45;&gt;crypto -->
<g id="edge22" class="edge">
<title>sign&#45;&gt;crypto</title>
<path fill="none" stroke="#868e96" stroke-width="0.8" stroke-dasharray="5,2" d="M138.5,-362.06C141.71,-361.32 144.89,-360.63 148,-360 249.33,-339.6 540.95,-375.81 609,-298 629.77,-274.25 624.18,-254.67 609,-227 559.06,-135.96 495.46,-159.8 391.87,-125.09"/>
<polygon fill="#868e96" stroke="#868e96" stroke-width="0.8" points="392.98,-121.77 382.38,-121.78 390.67,-128.37 392.98,-121.77"/>
</g>
<!-- sign&#45;&gt;canonical -->
<g id="edge18" class="edge">
<title>sign&#45;&gt;canonical</title>
<path fill="none" stroke="#868e96" stroke-width="0.8" d="M138.62,-359.89C177.25,-346.64 230.34,-326.53 278.98,-300.62"/>
<polygon fill="#868e96" stroke="#868e96" stroke-width="0.8" points="280.89,-303.57 288,-295.72 277.55,-297.42 280.89,-303.57"/>
</g>
<!-- signature -->
<g id="node17" class="node">
<title>signature</title>
<path fill="#fff3bf" stroke="#e67700" stroke-width="1.2" d="M242,-271C242,-271 176,-271 176,-271 170,-271 164,-265 164,-259 164,-259 164,-247 164,-247 164,-241 170,-235 176,-235 176,-235 242,-235 242,-235 248,-235 254,-241 254,-247 254,-247 254,-259 254,-259 254,-265 248,-271 242,-271"/>
<text text-anchor="middle" x="209" y="-256" font-family="Helvetica,sans-Serif" font-size="10.00">signature.ts</text>
<text text-anchor="middle" x="209" y="-245" font-family="Helvetica,sans-Serif" font-size="10.00">(sig validation)</text>
</g>
<!-- sign&#45;&gt;signature -->
<g id="edge19" class="edge">
<title>sign&#45;&gt;signature</title>
<path fill="none" stroke="#868e96" stroke-width="0.8" d="M102.24,-359.9C123.59,-338.72 160.1,-302.51 184.39,-278.41"/>
<polygon fill="#868e96" stroke="#868e96" stroke-width="0.8" points="186.87,-280.88 191.51,-271.35 181.94,-275.91 186.87,-280.88"/>
</g>
<!-- log -->
<g id="node18" class="node">
<title>log</title>
<path fill="#fff3bf" stroke="#e67700" stroke-width="1.2" d="M115.5,-271C115.5,-271 54.5,-271 54.5,-271 48.5,-271 42.5,-265 42.5,-259 42.5,-259 42.5,-247 42.5,-247 42.5,-241 48.5,-235 54.5,-235 54.5,-235 115.5,-235 115.5,-235 121.5,-235 127.5,-241 127.5,-247 127.5,-247 127.5,-259 127.5,-259 127.5,-265 121.5,-271 115.5,-271"/>
<text text-anchor="middle" x="85" y="-256" font-family="Helvetica,sans-Serif" font-size="10.00">log.ts</text>
<text text-anchor="middle" x="85" y="-245" font-family="Helvetica,sans-Serif" font-size="10.00">(issuance log)</text>
</g>
<!-- sign&#45;&gt;log -->
<g id="edge20" class="edge">
<title>sign&#45;&gt;log</title>
<path fill="none" stroke="#868e96" stroke-width="0.8" d="M85,-359.9C85,-339.63 85,-305.6 85,-281.59"/>
<polygon fill="#868e96" stroke="#868e96" stroke-width="0.8" points="88.5,-281.35 85,-271.35 81.5,-281.35 88.5,-281.35"/>
</g>
<!-- reg_fetch&#45;&gt;credential -->
<g id="edge24" class="edge">
<title>reg_fetch&#45;&gt;credential</title>
<path fill="none" stroke="#868e96" stroke-width="0.8" stroke-dasharray="5,2" d="M271.84,-480.25C395.95,-466.83 723.08,-424.19 787,-342 796.82,-329.37 796.27,-319.04 787,-306 780.73,-297.18 773.33,-303.49 764,-298 685.89,-251.99 689.12,-209.64 612,-162 592.48,-149.94 585.57,-150.82 564,-143 550.23,-138.01 535.36,-132.91 521.23,-128.21"/>
<polygon fill="#868e96" stroke="#868e96" stroke-width="0.8" points="522.18,-124.84 511.59,-125.03 519.99,-131.49 522.18,-124.84"/>
<text text-anchor="middle" x="792" y="-249.3" font-family="Times,serif" font-size="14.00">sanitize</text>
</g>
<!-- reg_fetch&#45;&gt;registry -->
<g id="edge23" class="edge">
<title>reg_fetch&#45;&gt;registry</title>
<path fill="none" stroke="#868e96" stroke-width="0.8" stroke-dasharray="5,2" d="M271.77,-483.1C433.73,-476.02 952,-447.97 952,-379 952,-379 952,-379 952,-179 952,-113.48 729.33,-106.73 626.25,-107.12"/>
<polygon fill="#868e96" stroke="#868e96" stroke-width="0.8" points="626.04,-103.62 616.06,-107.18 626.08,-110.62 626.04,-103.62"/>
</g>
<!-- key_match&#45;&gt;registry -->
<g id="edge25" class="edge">
<title>key_match&#45;&gt;registry</title>
<path fill="none" stroke="#868e96" stroke-width="0.8" stroke-dasharray="5,2" d="M237,-374.35C336.89,-367.64 590.47,-349.92 607,-342 656.07,-318.48 660.52,-280.18 649,-227 641.16,-190.79 616.46,-155.55 597.73,-132.94"/>
<polygon fill="#868e96" stroke="#868e96" stroke-width="0.8" points="600.29,-130.54 591.14,-125.2 594.96,-135.08 600.29,-130.54"/>
</g>
<!-- yubikey&#45;&gt;registry -->
<g id="edge28" class="edge">
<title>yubikey&#45;&gt;registry</title>
<path fill="none" stroke="#868e96" stroke-width="0.8" stroke-dasharray="5,2" d="M271.56,-428.27C408.03,-418.55 842,-383.07 842,-325 842,-325 842,-325 842,-179 842,-134.82 703.72,-117.46 626.19,-111.19"/>
<polygon fill="#868e96" stroke="#868e96" stroke-width="0.8" points="626.37,-107.7 616.13,-110.42 625.83,-114.68 626.37,-107.7"/>
<text text-anchor="middle" x="883" y="-249.3" font-family="Times,serif" font-size="14.00">SPKI prefix</text>
</g>
<!-- yubikey&#45;&gt;signature -->
<g id="edge27" class="edge">
<title>yubikey&#45;&gt;signature</title>
<path fill="none" stroke="#868e96" stroke-width="0.8" d="M240.08,-413.65C242.5,-408.15 244.78,-401.96 246,-396 249.22,-380.33 248.67,-375.77 246,-360 241.25,-331.96 229.89,-301.45 221.01,-280.4"/>
<polygon fill="#868e96" stroke="#868e96" stroke-width="0.8" points="224.19,-278.94 217.01,-271.15 217.77,-281.72 224.19,-278.94"/>
</g>
<!-- yubikey_hw -->
<g id="node21" class="node">
<title>yubikey_hw</title>
<polygon fill="#d3f9d8" stroke="#2b8a3e" stroke-width="1.2" points="786,-342 696,-342 696,-338 692,-338 692,-334 696,-334 696,-314 692,-314 692,-310 696,-310 696,-306 786,-306 786,-342"/>
<polyline fill="none" stroke="#2b8a3e" stroke-width="1.2" points="696,-338 700,-338 700,-334 696,-334 "/>
<polyline fill="none" stroke="#2b8a3e" stroke-width="1.2" points="696,-314 700,-314 700,-310 696,-310 "/>
<text text-anchor="middle" x="741" y="-327" font-family="Helvetica,sans-Serif" font-size="10.00">yubico&#45;piv&#45;tool</text>
<text text-anchor="middle" x="741" y="-316" font-family="Helvetica,sans-Serif" font-size="10.00">(YubiKey CLI)</text>
</g>
<!-- yubikey&#45;&gt;yubikey_hw -->
<g id="edge26" class="edge">
<title>yubikey&#45;&gt;yubikey_hw</title>
<path fill="none" stroke="#868e96" stroke-width="0.8" d="M271.52,-425.18C350.67,-413.38 531.27,-384.34 686.25,-343.48"/>
<polygon fill="#868e96" stroke="#868e96" stroke-width="0.8" points="687.19,-346.85 695.95,-340.9 685.39,-340.09 687.19,-346.85"/>
</g>
<!-- types -->
<g id="node19" class="node">
<title>types</title>
<path fill="#fff3bf" stroke="#e67700" stroke-width="1.2" d="M91.5,-650C91.5,-650 28.5,-650 28.5,-650 22.5,-650 16.5,-644 16.5,-638 16.5,-638 16.5,-626 16.5,-626 16.5,-620 22.5,-614 28.5,-614 28.5,-614 91.5,-614 91.5,-614 97.5,-614 103.5,-620 103.5,-626 103.5,-626 103.5,-638 103.5,-638 103.5,-644 97.5,-650 91.5,-650"/>
<text text-anchor="middle" x="60" y="-635" font-family="Helvetica,sans-Serif" font-size="10.00">types.ts</text>
<text text-anchor="middle" x="60" y="-624" font-family="Helvetica,sans-Serif" font-size="10.00">(shared types)</text>
</g>
</g>
</svg>
