<?xml version="1.0" encoding="UTF-8" standalone="no"?>
<!DOCTYPE svg PUBLIC "-//W3C//DTD SVG 1.1//EN"
 "http://www.w3.org/Graphics/SVG/1.1/DTD/svg11.dtd">
<!-- Generated by graphviz version 2.42.4 (0)
 -->
<!-- Title: module_architecture Pages: 1 -->
<svg width="1378pt" height="813pt"
 viewBox="0.00 0.00 1378.00 812.50" xmlns="http://www.w3.org/2000/svg" xmlns:xlink="http://www.w3.org/1999/xlink">
<g id="graph0" class="graph" transform="scale(1 1) rotate(0) translate(4 808.5)">
<title>module_architecture</title>
<g id="clust1" class="cluster">
<title>cluster_ts</title>
<path fill="transparent" stroke="#4263eb" stroke-dasharray="5,2" d="M20,-8C20,-8 370,-8 370,-8 376,-8 382,-14 382,-20 382,-20 382,-395.5 382,-395.5 382,-401.5 376,-407.5 370,-407.5 370,-407.5 20,-407.5 20,-407.5 14,-407.5 8,-401.5 8,-395.5 8,-395.5 8,-20 8,-20 8,-14 14,-8 20,-8"/>
<text text-anchor="middle" x="95" y="-395.5" font-family="Helvetica,sans-Serif" font-size="10.00" fill="#4263eb">TypeScript — Verification Library</text>
</g>
<g id="clust2" class="cluster">
<title>cluster_go</title>
<path fill="transparent" stroke="#e67700" stroke-dasharray="5,2" d="M402,-256C402,-256 1266,-256 1266,-256 1272,-256 1278,-262 1278,-268 1278,-268 1278,-784.5 1278,-784.5 1278,-790.5 1272,-796.5 1266,-796.5 1266,-796.5 402,-796.5 402,-796.5 396,-796.5 390,-790.5 390,-784.5 390,-784.5 390,-268 390,-268 390,-262 396,-256 402,-256"/>
<text text-anchor="middle" x="463.5" y="-784.5" font-family="Helvetica,sans-Serif" font-size="10.00" fill="#e67700">Go — Desktop Signing App</text>
</g>
<!-- index -->
<g id="node1" class="node">
<title>index</title>
<path fill="#dbe4ff" stroke="#4263eb" stroke-width="1.2" d="M253.5,-380.5C253.5,-380.5 190.5,-380.5 190.5,-380.5 184.5,-380.5 178.5,-374.5 178.5,-368.5 178.5,-368.5 178.5,-356.5 178.5,-356.5 178.5,-350.5 184.5,-344.5 190.5,-344.5 190.5,-344.5 253.5,-344.5 253.5,-344.5 259.5,-344.5 265.5,-350.5 265.5,-356.5 265.5,-356.5 265.5,-368.5 265.5,-368.5 265.5,-374.5 259.5,-380.5 253.5,-380.5"/>
<text text-anchor="middle" x="222" y="-365.5" font-family="Helvetica,sans-Serif" font-size="10.00">index.ts</text>
<text text-anchor="middle" x="222" y="-354.5" font-family="Helvetica,sans-Serif" font-size="10.00">(barrel export)</text>
</g>
<!-- verify -->
<g id="node2" class="node">
<title>verify</title>
<path fill="#dbe4ff" stroke="#4263eb" stroke-width="1.2" d="M207.5,-302.5C207.5,-302.5 148.5,-302.5 148.5,-302.5 142.5,-302.5 136.5,-296.5 136.5,-290.5 136.5,-290.5 136.5,-278.5 136.5,-278.5 136.5,-272.5 142.5,-266.5 148.5,-266.5 148.5,-266.5 207.5,-266.5 207.5,-266.5 213.5,-266.5 219.5,-272.5 219.5,-278.5 219.5,-278.5 219.5,-290.5 219.5,-290.5 219.5,-296.5 213.5,-302.5 207.5,-302.5"/>
<text text-anchor="middle" x="178" y="-287.5" font-family="Helvetica,sans-Serif" font-size="10.00">verify.ts</text>
<text text-anchor="middle" x="178" y="-276.5" font-family="Helvetica,sans-Serif" font-size="10.00">(orchestrator)</text>
</g>
<!-- index&#45;&gt;verify -->
<g id="edge1" class="edge">
<title>index&#45;&gt;verify</title>
<path fill="none" stroke="#868e96" stroke-width="0.8" d="M212.02,-344.25C206.39,-334.54 199.25,-322.21 192.97,-311.36"/>
<polygon fill="#868e96" stroke="#868e96" stroke-width="0.8" points="195.98,-309.58 187.94,-302.68 189.93,-313.09 195.98,-309.58"/>
</g>
<!-- credential -->
<g id="node4" class="node">
<title>credential</title>
<path fill="#dbe4ff" stroke="#4263eb" stroke-width="1.2" d="M294.5,-125C294.5,-125 203.5,-125 203.5,-125 197.5,-125 191.5,-119 191.5,-113 191.5,-113 191.5,-101 191.5,-101 191.5,-95 197.5,-89 203.5,-89 203.5,-89 294.5,-89 294.5,-89 300.5,-89 306.5,-95 306.5,-101 306.5,-101 306.5,-113 306.5,-113 306.5,-119 300.5,-125 294.5,-125"/>
<text text-anchor="middle" x="249" y="-110" font-family="Helvetica,sans-Serif" font-size="10.00">credential.ts</text>
<text text-anchor="middle" x="249" y="-99" font-family="Helvetica,sans-Serif" font-size="10.00">(schema + sanitize)</text>
</g>
<!-- index&#45;&gt;credential -->
<g id="edge3" class="edge">
<title>index&#45;&gt;credential</title>
<path fill="none" stroke="#868e96" stroke-width="0.8" d="M225.84,-344.22C230.6,-323.24 239.17,-286.83 248,-256 255.47,-229.92 262.72,-224.79 267,-198 269.52,-182.2 267.42,-177.99 267,-162 266.78,-153.55 268.11,-151.19 266,-143 265.27,-140.18 264.31,-137.32 263.21,-134.5"/>
<polygon fill="#868e96" stroke="#868e96" stroke-width="0.8" points="266.36,-132.98 259.08,-125.28 259.97,-135.84 266.36,-132.98"/>
</g>
<!-- crypto -->
<g id="node5" class="node">
<title>crypto</title>
<path fill="#dbe4ff" stroke="#4263eb" stroke-width="1.2" d="M362,-198C362,-198 320,-198 320,-198 314,-198 308,-192 308,-186 308,-186 308,-174 308,-174 308,-168 314,-162 320,-162 320,-162 362,-162 362,-162 368,-162 374,-168 374,-174 374,-174 374,-186 374,-186 374,-192 368,-198 362,-198"/>
<text text-anchor="middle" x="341" y="-183" font-family="Helvetica,sans-Serif" font-size="10.00">crypto.ts</text>
<text text-anchor="middle" x="341" y="-172" font-family="Helvetica,sans-Serif" font-size="10.00">(Ed25519)</text>
</g>
<!-- index&#45;&gt;crypto -->
<g id="edge4" class="edge">
<title>index&#45;&gt;crypto</title>
<path fill="none" stroke="#868e96" stroke-width="0.8" d="M232.96,-344.3C236.71,-338.04 240.78,-330.82 244,-324 257.76,-294.89 251.93,-283.3 269,-256 280.89,-236.97 298.22,-218.74 312.89,-205.01"/>
<polygon fill="#868e96" stroke="#868e96" stroke-width="0.8" points="315.26,-207.59 320.28,-198.26 310.54,-202.42 315.26,-207.59"/>
</g>
<!-- registry -->
<g id="node6" class="node">
<title>registry</title>
<path fill="#dbe4ff" stroke="#4263eb" stroke-width="1.2" d="M238,-198C238,-198 180,-198 180,-198 174,-198 168,-192 168,-186 168,-186 168,-174 168,-174 168,-168 174,-162 180,-162 180,-162 238,-162 238,-162 244,-162 250,-168 250,-174 250,-174 250,-186 250,-186 250,-192 244,-198 238,-198"/>
<text text-anchor="middle" x="209" y="-183" font-family="Helvetica,sans-Serif" font-size="10.00">registry.ts</text>
<text text-anchor="middle" x="209" y="-172" font-family="Helvetica,sans-Serif" font-size="10.00">(key registry)</text>
</g>
<!-- index&#45;&gt;registry -->
<g id="edge2" class="edge">
<title>index&#45;&gt;registry</title>
<path fill="none" stroke="#868e96" stroke-width="0.8" d="M178.21,-346.88C158.9,-337.99 138.1,-324.52 127,-305 116.23,-286.07 118.22,-275.93 127,-256 136.36,-234.76 155.03,-216.92 172.2,-203.97"/>
<polygon fill="#868e96" stroke="#868e96" stroke-width="0.8" points="174.39,-206.7 180.46,-198.02 170.3,-201.03 174.39,-206.7"/>
</g>
<!-- base64url -->
<g id="node9" class="node">
<title>base64url</title>
<path fill="#dbe4ff" stroke="#4263eb" stroke-width="1.2" d="M81.5,-125C81.5,-125 28.5,-125 28.5,-125 22.5,-125 16.5,-119 16.5,-113 16.5,-113 16.5,-101 16.5,-101 16.5,-95 22.5,-89 28.5,-89 28.5,-89 81.5,-89 81.5,-89 87.5,-89 93.5,-95 93.5,-101 93.5,-101 93.5,-113 93.5,-113 93.5,-119 87.5,-125 81.5,-125"/>
<text text-anchor="middle" x="55" y="-110" font-family="Helvetica,sans-Serif" font-size="10.00">base64url.ts</text>
<text text-anchor="middle" x="55" y="-99" font-family="Helvetica,sans-Serif" font-size="10.00">(encoding)</text>
</g>
<!-- index&#45;&gt;base64url -->
<g id="edge5" class="edge">
<title>index&#45;&gt;base64url</title>
<path fill="none" stroke="#868e96" stroke-width="0.8" d="M178.47,-346.82C157.14,-337.71 132.55,-324.04 116,-305 78.88,-262.29 62.98,-252.28 47,-198 40.96,-177.5 43.62,-153.32 47.42,-135.19"/>
<polygon fill="#868e96" stroke="#868e96" stroke-width="0.8" points="50.87,-135.83 49.74,-125.29 44.05,-134.23 50.87,-135.83"/>
</g>
<!-- canonical -->
<g id="node10" class="node">
<title>canonical</title>
<path fill="#dbe4ff" stroke="#4263eb" stroke-width="1.2" d="M362,-302.5C362,-302.5 290,-302.5 290,-302.5 284,-302.5 278,-296.5 278,-290.5 278,-290.5 278,-278.5 278,-278.5 278,-272.5 284,-266.5 290,-266.5 290,-266.5 362,-266.5 362,-266.5 368,-266.5 374,-272.5 374,-278.5 374,-278.5 374,-290.5 374,-290.5 374,-296.5 368,-302.5 362,-302.5"/>
<text text-anchor="middle" x="326" y="-287.5" font-family="Helvetica,sans-Serif" font-size="10.00">canonical.ts</text>
<text text-anchor="middle" x="326" y="-276.5" font-family="Helvetica,sans-Serif" font-size="10.00">(JSON serializer)</text>
</g>
<!-- index&#45;&gt;canonical -->
<g id="edge6" class="edge">
<title>index&#45;&gt;canonical</title>
<path fill="none" stroke="#868e96" stroke-width="0.8" d="M245.34,-344.44C259.69,-333.96 278.28,-320.38 293.99,-308.89"/>
<polygon fill="#868e96" stroke="#868e96" stroke-width="0.8" points="296.37,-311.49 302.38,-302.76 292.24,-305.84 296.37,-311.49"/>
</g>
<!-- verify&#45;&gt;credential -->
<g id="edge7" class="edge">
<title>verify&#45;&gt;credential</title>
<path fill="none" stroke="#868e96" stroke-width="0.8" d="M202.32,-266.32C221.79,-250.95 247.65,-226.49 259,-198 267.02,-177.88 263.51,-153.36 258.56,-135"/>
<polygon fill="#868e96" stroke="#868e96" stroke-width="0.8" points="261.86,-133.81 255.64,-125.24 255.16,-135.82 261.86,-133.81"/>
</g>
<!-- verify&#45;&gt;crypto -->
<g id="edge8" class="edge">
<title>verify&#45;&gt;crypto</title>
<path fill="none" stroke="#868e96" stroke-width="0.8" d="M219.77,-270.71C233.56,-264.89 248.14,-256.83 259,-246 269.42,-235.61 262.8,-226.6 273,-216 280.18,-208.54 289.3,-202.37 298.51,-197.41"/>
<polygon fill="#868e96" stroke="#868e96" stroke-width="0.8" points="300.28,-200.43 307.67,-192.84 297.16,-194.17 300.28,-200.43"/>
</g>
<!-- verify&#45;&gt;registry -->
<g id="edge9" class="edge">
<title>verify&#45;&gt;registry</title>
<path fill="none" stroke="#868e96" stroke-width="0.8" d="M183.26,-266.11C188.1,-250.11 195.35,-226.14 200.92,-207.71"/>
<polygon fill="#868e96" stroke="#868e96" stroke-width="0.8" points="204.27,-208.72 203.82,-198.13 197.57,-206.69 204.27,-208.72"/>
</g>
<!-- revocation -->
<g id="node7" class="node">
<title>revocation</title>
<path fill="#dbe4ff" stroke="#4263eb" stroke-width="1.2" d="M138,-198C138,-198 68,-198 68,-198 62,-198 56,-192 56,-186 56,-186 56,-174 56,-174 56,-168 62,-162 68,-162 68,-162 138,-162 138,-162 144,-162 150,-168 150,-174 150,-174 150,-186 150,-186 150,-192 144,-198 138,-198"/>
<text text-anchor="middle" x="103" y="-183" font-family="Helvetica,sans-Serif" font-size="10.00">revocation.ts</text>
<text text-anchor="middle" x="103" y="-172" font-family="Helvetica,sans-Serif" font-size="10.00">(revocation list)</text>
</g>
<!-- verify&#45;&gt;revocation -->
<g id="edge10" class="edge">
<title>verify&#45;&gt;revocation</title>
<path fill="none" stroke="#868e96" stroke-width="0.8" d="M165.28,-266.11C153.3,-249.74 135.22,-225.03 121.62,-206.44"/>
<polygon fill="#868e96" stroke="#868e96" stroke-width="0.8" points="124.26,-204.13 115.53,-198.13 118.62,-208.27 124.26,-204.13"/>
</g>
<!-- verify_page -->
<g id="node3" class="node">
<title>verify_page</title>
<path fill="#dbe4ff" stroke="#4263eb" stroke-width="1.2" d="M101,-380.5C101,-380.5 41,-380.5 41,-380.5 35,-380.5 29,-374.5 29,-368.5 29,-368.5 29,-356.5 29,-356.5 29,-350.5 35,-344.5 41,-344.5 41,-344.5 101,-344.5 101,-344.5 107,-344.5 113,-350.5 113,-356.5 113,-356.5 113,-368.5 113,-368.5 113,-374.5 107,-380.5 101,-380.5"/>
<text text-anchor="middle" x="71" y="-365.5" font-family="Helvetica,sans-Serif" font-size="10.00">verify&#45;page.ts</text>
<text text-anchor="middle" x="71" y="-354.5" font-family="Helvetica,sans-Serif" font-size="10.00">(browser UI)</text>
</g>
<!-- verify_page&#45;&gt;verify -->
<g id="edge11" class="edge">
<title>verify_page&#45;&gt;verify</title>
<path fill="none" stroke="#868e96" stroke-width="0.8" d="M95.01,-344.44C109.91,-333.86 129.25,-320.12 145.51,-308.57"/>
<polygon fill="#868e96" stroke="#868e96" stroke-width="0.8" points="147.57,-311.41 153.7,-302.76 143.52,-305.7 147.57,-311.41"/>
</g>
<!-- verify_page&#45;&gt;registry -->
<g id="edge13" class="edge">
<title>verify_page&#45;&gt;registry</title>
<path fill="none" stroke="#868e96" stroke-width="0.8" d="M73.5,-344.41C78.68,-314.64 93.26,-252.94 129,-216 133.79,-211.05 145.27,-205.2 158.09,-199.71"/>
<polygon fill="#868e96" stroke="#868e96" stroke-width="0.8" points="159.66,-202.85 167.58,-195.8 157,-196.37 159.66,-202.85"/>
</g>
<!-- verify_page&#45;&gt;revocation -->
<g id="edge14" class="edge">
<title>verify_page&#45;&gt;revocation</title>
<path fill="none" stroke="#868e96" stroke-width="0.8" d="M68.97,-344.34C66.33,-316.52 63.69,-260.23 79,-216 80.08,-212.87 81.53,-209.75 83.17,-206.75"/>
<polygon fill="#868e96" stroke="#868e96" stroke-width="0.8" points="86.21,-208.49 88.55,-198.16 80.28,-204.78 86.21,-208.49"/>
</g>
<!-- verify_page&#45;&gt;base64url -->
<g id="edge12" class="edge">
<title>verify_page&#45;&gt;base64url</title>
<path fill="none" stroke="#868e96" stroke-width="0.8" d="M63.23,-344.34C53.66,-322.17 37.94,-282.13 32,-246 24.58,-200.83 18.88,-186.86 32,-143 32.91,-139.96 34.17,-136.95 35.65,-134.03"/>
<polygon fill="#868e96" stroke="#868e96" stroke-width="0.8" points="38.82,-135.55 40.9,-125.16 32.79,-131.98 38.82,-135.55"/>
</g>
<!-- validation -->
<g id="node8" class="node">
<title>validation</title>
<path fill="#dbe4ff" stroke="#4263eb" stroke-width="1.2" d="M198.5,-52C198.5,-52 145.5,-52 145.5,-52 139.5,-52 133.5,-46 133.5,-40 133.5,-40 133.5,-28 133.5,-28 133.5,-22 139.5,-16 145.5,-16 145.5,-16 198.5,-16 198.5,-16 204.5,-16 210.5,-22 210.5,-28 210.5,-28 210.5,-40 210.5,-40 210.5,-46 204.5,-52 198.5,-52"/>
<text text-anchor="middle" x="172" y="-37" font-family="Helvetica,sans-Serif" font-size="10.00">validation.ts</text>
<text text-anchor="middle" x="172" y="-26" font-family="Helvetica,sans-Serif" font-size="10.00">(date utils)</text>
</g>
<!-- credential&#45;&gt;validation -->
<g id="edge15" class="edge">
<title>credential&#45;&gt;validation</title>
<path fill="none" stroke="#868e96" stroke-width="0.8" d="M230.36,-88.81C220.62,-79.83 208.54,-68.69 197.9,-58.89"/>
<polygon fill="#868e96" stroke="#868e96" stroke-width="0.8" points="200.19,-56.23 190.47,-52.03 195.45,-61.38 200.19,-56.23"/>
</g>
<!-- noble -->
<g id="node26" class="node">
<title>noble</title>
<polygon fill="#d3f9d8" stroke="#2b8a3e" stroke-width="1.2" points="478.5,-125 389.5,-125 389.5,-121 385.5,-121 385.5,-117 389.5,-117 389.5,-97 385.5,-97 385.5,-93 389.5,-93 389.5,-89 478.5,-89 478.5,-125"/>
<polyline fill="none" stroke="#2b8a3e" stroke-width="1.2" points="389.5,-121 393.5,-121 393.5,-117 389.5,-117 "/>
<polyline fill="none" stroke="#2b8a3e" stroke-width="1.2" points="389.5,-97 393.5,-97 393.5,-93 389.5,-93 "/>
<text text-anchor="middle" x="434" y="-110" font-family="Helvetica,sans-Serif" font-size="10.00">@noble/curves</text>
<text text-anchor="middle" x="434" y="-99" font-family="Helvetica,sans-Serif" font-size="10.00">(Ed25519)</text>
</g>
<!-- crypto&#45;&gt;noble -->
<g id="edge21" class="edge">
<title>crypto&#45;&gt;noble</title>
<path fill="none" stroke="#868e96" stroke-width="0.8" d="M363.51,-161.81C375.51,-152.66 390.43,-141.26 403.46,-131.32"/>
<polygon fill="#868e96" stroke="#868e96" stroke-width="0.8" points="405.87,-133.88 411.69,-125.03 401.62,-128.32 405.87,-133.88"/>
</g>
<!-- registry&#45;&gt;credential -->
<g id="edge17" class="edge">
<title>registry&#45;&gt;credential</title>
<path fill="none" stroke="#868e96" stroke-width="0.8" d="M218.68,-161.81C223.4,-153.44 229.17,-143.2 234.41,-133.9"/>
<polygon fill="#868e96" stroke="#868e96" stroke-width="0.8" points="237.55,-135.46 239.41,-125.03 231.45,-132.02 237.55,-135.46"/>
</g>
<!-- registry&#45;&gt;validation -->
<g id="edge18" class="edge">
<title>registry&#45;&gt;validation</title>
<path fill="none" stroke="#868e96" stroke-width="0.8" d="M198.35,-161.65C192.55,-151.37 185.8,-137.87 182,-125 175.96,-104.55 173.51,-80.51 172.55,-62.42"/>
<polygon fill="#868e96" stroke="#868e96" stroke-width="0.8" points="176.04,-62.12 172.13,-52.27 169.04,-62.41 176.04,-62.12"/>
</g>
<!-- registry&#45;&gt;base64url -->
<g id="edge16" class="edge">
<title>registry&#45;&gt;base64url</title>
<path fill="none" stroke="#868e96" stroke-width="0.8" d="M172.11,-161.99C150.84,-152.19 123.9,-139.77 101.22,-129.31"/>
<polygon fill="#868e96" stroke="#868e96" stroke-width="0.8" points="102.67,-126.12 92.12,-125.11 99.74,-132.48 102.67,-126.12"/>
</g>
<!-- revocation&#45;&gt;credential -->
<g id="edge19" class="edge">
<title>revocation&#45;&gt;credential</title>
<path fill="none" stroke="#868e96" stroke-width="0.8" d="M137.97,-161.99C157.96,-152.27 183.22,-139.99 204.6,-129.59"/>
<polygon fill="#868e96" stroke="#868e96" stroke-width="0.8" points="206.35,-132.63 213.81,-125.11 203.29,-126.34 206.35,-132.63"/>
</g>
<!-- revocation&#45;&gt;validation -->
<g id="edge20" class="edge">
<title>revocation&#45;&gt;validation</title>
<path fill="none" stroke="#868e96" stroke-width="0.8" d="M111.19,-161.92C123.12,-137.02 145.39,-90.54 159.41,-61.27"/>
<polygon fill="#868e96" stroke="#868e96" stroke-width="0.8" points="162.66,-62.59 163.82,-52.06 156.35,-59.57 162.66,-62.59"/>
</g>
<!-- vectors -->
<g id="node30" class="node">
<title>vectors</title>
<polygon fill="#e9ecef" stroke="#868e96" stroke-width="1.2" points="666,-198 580,-198 580,-162 672,-162 672,-192 666,-198"/>
<polyline fill="none" stroke="#868e96" stroke-width="1.2" points="666,-198 666,-192 "/>
<polyline fill="none" stroke="#868e96" stroke-width="1.2" points="672,-192 666,-192 "/>
<text text-anchor="middle" x="626" y="-183" font-family="Helvetica,sans-Serif" font-size="10.00">Cross&#45;language</text>
<text text-anchor="middle" x="626" y="-172" font-family="Helvetica,sans-Serif" font-size="10.00">test vectors</text>
</g>
<!-- canonical&#45;&gt;vectors -->
<g id="edge63" class="edge">
<title>canonical&#45;&gt;vectors</title>
<path fill="none" stroke="#868e96" stroke-width="0.8" stroke-dasharray="1,5" d="M370.46,-262.37C375.66,-260.12 380.92,-257.95 386,-256 447.96,-232.23 520.97,-210.24 570.05,-196.3"/>
<polygon fill="#868e96" stroke="#868e96" stroke-width="0.8" points="368.94,-259.21 361.22,-266.46 371.78,-265.61 368.94,-259.21"/>
<polygon fill="#868e96" stroke="#868e96" stroke-width="0.8" points="571.17,-199.62 579.85,-193.54 569.27,-192.89 571.17,-199.62"/>
</g>
<!-- go_main -->
<g id="node11" class="node">
<title>go_main</title>
<path fill="#ffe8cc" stroke="#e67700" stroke-width="1.2" d="M963,-769.5C963,-769.5 853,-769.5 853,-769.5 847,-769.5 841,-763.5 841,-757.5 841,-757.5 841,-740.5 841,-740.5 841,-734.5 847,-728.5 853,-728.5 853,-728.5 963,-728.5 963,-728.5 969,-728.5 975,-734.5 975,-740.5 975,-740.5 975,-757.5 975,-757.5 975,-763.5 969,-769.5 963,-769.5"/>
<text text-anchor="middle" x="908" y="-757.5" font-family="Helvetica,sans-Serif" font-size="10.00">main.go</text>
<text text-anchor="middle" x="908" y="-746.5" font-family="Helvetica,sans-Serif" font-size="10.00">(app wiring, Help menu,</text>
<text text-anchor="middle" x="908" y="-735.5" font-family="Helvetica,sans-Serif" font-size="10.00">update check)</text>
</g>
<!-- go_gui -->
<g id="node12" class="node">
<title>go_gui</title>
<path fill="#fff3bf" stroke="#e67700" stroke-width="1.2" d="M869.5,-583.5C869.5,-583.5 780.5,-583.5 780.5,-583.5 774.5,-583.5 768.5,-577.5 768.5,-571.5 768.5,-571.5 768.5,-559.5 768.5,-559.5 768.5,-553.5 774.5,-547.5 780.5,-547.5 780.5,-547.5 869.5,-547.5 869.5,-547.5 875.5,-547.5 881.5,-553.5 881.5,-559.5 881.5,-559.5 881.5,-571.5 881.5,-571.5 881.5,-577.5 875.5,-583.5 869.5,-583.5"/>
<text text-anchor="middle" x="825" y="-568.5" font-family="Helvetica,sans-Serif" font-size="10.00">gui/</text>
<text text-anchor="middle" x="825" y="-557.5" font-family="Helvetica,sans-Serif" font-size="10.00">(Fyne GUI — 5 tabs)</text>
</g>
<!-- go_main&#45;&gt;go_gui -->
<g id="edge22" class="edge">
<title>go_main&#45;&gt;go_gui</title>
<path fill="none" stroke="#868e96" stroke-width="0.8" d="M898.96,-728.23C883.92,-695.34 853.75,-629.37 836.96,-592.66"/>
<polygon fill="#868e96" stroke="#868e96" stroke-width="0.8" points="840.15,-591.21 832.81,-583.57 833.78,-594.12 840.15,-591.21"/>
</g>
<!-- go_regmgr -->
<g id="node15" class="node">
<title>go_regmgr</title>
<path fill="#fff3bf" stroke="#e67700" stroke-width="1.2" d="M1044.5,-691.5C1044.5,-691.5 939.5,-691.5 939.5,-691.5 933.5,-691.5 927.5,-685.5 927.5,-679.5 927.5,-679.5 927.5,-667.5 927.5,-667.5 927.5,-661.5 933.5,-655.5 939.5,-655.5 939.5,-655.5 1044.5,-655.5 1044.5,-655.5 1050.5,-655.5 1056.5,-661.5 1056.5,-667.5 1056.5,-667.5 1056.5,-679.5 1056.5,-679.5 1056.5,-685.5 1050.5,-691.5 1044.5,-691.5"/>
<text text-anchor="middle" x="992" y="-676.5" font-family="Helvetica,sans-Serif" font-size="10.00">regmgr/</text>
<text text-anchor="middle" x="992" y="-665.5" font-family="Helvetica,sans-Serif" font-size="10.00">(Registry Manager tab)</text>
</g>
<!-- go_main&#45;&gt;go_regmgr -->
<g id="edge23" class="edge">
<title>go_main&#45;&gt;go_regmgr</title>
<path fill="none" stroke="#868e96" stroke-width="0.8" d="M930.51,-728.3C941.07,-719.06 953.74,-707.98 964.83,-698.28"/>
<polygon fill="#868e96" stroke="#868e96" stroke-width="0.8" points="967.35,-700.72 972.57,-691.5 962.74,-695.45 967.35,-700.72"/>
</g>
<!-- go_ghapi -->
<g id="node16" class="node">
<title>go_ghapi</title>
<path fill="#fff3bf" stroke="#e67700" stroke-width="1.2" d="M1018,-383C1018,-383 944,-383 944,-383 938,-383 932,-377 932,-371 932,-371 932,-354 932,-354 932,-348 938,-342 944,-342 944,-342 1018,-342 1018,-342 1024,-342 1030,-348 1030,-354 1030,-354 1030,-371 1030,-371 1030,-377 1024,-383 1018,-383"/>
<text text-anchor="middle" x="981" y="-371" font-family="Helvetica,sans-Serif" font-size="10.00">ghapi/</text>
<text text-anchor="middle" x="981" y="-360" font-family="Helvetica,sans-Serif" font-size="10.00">(GitHub OAuth +</text>
<text text-anchor="middle" x="981" y="-349" font-family="Helvetica,sans-Serif" font-size="10.00">REST API)</text>
</g>
<!-- go_main&#45;&gt;go_ghapi -->
<g id="edge28" class="edge">
<title>go_main&#45;&gt;go_ghapi</title>
<path fill="none" stroke="#868e96" stroke-width="0.8" d="M975.33,-742.82C1020.61,-736.51 1079.7,-722.51 1123,-691.5 1147.5,-673.95 1149.61,-663.97 1164,-637.5 1172.13,-622.55 1170.54,-617.24 1177,-601.5 1193.91,-560.29 1209.44,-554.01 1219,-510.5 1222.91,-492.7 1228.92,-484.78 1219,-469.5 1179.67,-408.93 1096.82,-382.68 1040.04,-371.5"/>
<polygon fill="#868e96" stroke="#868e96" stroke-width="0.8" points="1040.58,-368.04 1030.1,-369.65 1039.29,-374.92 1040.58,-368.04"/>
</g>
<!-- go_log -->
<g id="node19" class="node">
<title>go_log</title>
<path fill="#fff3bf" stroke="#e67700" stroke-width="1.2" d="M571.5,-508C571.5,-508 510.5,-508 510.5,-508 504.5,-508 498.5,-502 498.5,-496 498.5,-496 498.5,-484 498.5,-484 498.5,-478 504.5,-472 510.5,-472 510.5,-472 571.5,-472 571.5,-472 577.5,-472 583.5,-478 583.5,-484 583.5,-484 583.5,-496 583.5,-496 583.5,-502 577.5,-508 571.5,-508"/>
<text text-anchor="middle" x="541" y="-493" font-family="Helvetica,sans-Serif" font-size="10.00">log/</text>
<text text-anchor="middle" x="541" y="-482" font-family="Helvetica,sans-Serif" font-size="10.00">(issuance log)</text>
</g>
<!-- go_main&#45;&gt;go_log -->
<g id="edge29" class="edge">
<title>go_main&#45;&gt;go_log</title>
<path fill="none" stroke="#868e96" stroke-width="0.8" d="M853.42,-728.42C829.47,-718.79 801.51,-706.11 778,-691.5 692.64,-638.45 605.88,-556.3 565.05,-515.59"/>
<polygon fill="#868e96" stroke="#868e96" stroke-width="0.8" points="567.28,-512.87 557.75,-508.25 562.33,-517.81 567.28,-512.87"/>
</g>
<!-- go_registry -->
<g id="node20" class="node">
<title>go_registry</title>
<path fill="#fff3bf" stroke="#e67700" stroke-width="1.2" d="M939.5,-508C939.5,-508 876.5,-508 876.5,-508 870.5,-508 864.5,-502 864.5,-496 864.5,-496 864.5,-484 864.5,-484 864.5,-478 870.5,-472 876.5,-472 876.5,-472 939.5,-472 939.5,-472 945.5,-472 951.5,-478 951.5,-484 951.5,-484 951.5,-496 951.5,-496 951.5,-502 945.5,-508 939.5,-508"/>
<text text-anchor="middle" x="908" y="-493" font-family="Helvetica,sans-Serif" font-size="10.00">registry/</text>
<text text-anchor="middle" x="908" y="-482" font-family="Helvetica,sans-Serif" font-size="10.00">(remote fetch)</text>
</g>
<!-- go_main&#45;&gt;go_registry -->
<g id="edge30" class="edge">
<title>go_main&#45;&gt;go_registry</title>
<path fill="none" stroke="#868e96" stroke-width="0.8" d="M908,-728.26C908,-682.72 908,-570.24 908,-518.21"/>
<polygon fill="#868e96" stroke="#868e96" stroke-width="0.8" points="911.5,-518.07 908,-508.07 904.5,-518.07 911.5,-518.07"/>
</g>
<!-- go_debuglog -->
<g id="node21" class="node">
<title>go_debuglog</title>
<path fill="#fff3bf" stroke="#e67700" stroke-width="1.2" d="M690.5,-510.5C690.5,-510.5 613.5,-510.5 613.5,-510.5 607.5,-510.5 601.5,-504.5 601.5,-498.5 601.5,-498.5 601.5,-481.5 601.5,-481.5 601.5,-475.5 607.5,-469.5 613.5,-469.5 613.5,-469.5 690.5,-469.5 690.5,-469.5 696.5,-469.5 702.5,-475.5 702.5,-481.5 702.5,-481.5 702.5,-498.5 702.5,-498.5 702.5,-504.5 696.5,-510.5 690.5,-510.5"/>
<text text-anchor="middle" x="652" y="-498.5" font-family="Helvetica,sans-Serif" font-size="10.00">debuglog/</text>
<text text-anchor="middle" x="652" y="-487.5" font-family="Helvetica,sans-Serif" font-size="10.00">(error log,</text>
<text text-anchor="middle" x="652" y="-476.5" font-family="Helvetica,sans-Serif" font-size="10.00">30&#45;day retention)</text>
</g>
<!-- go_main&#45;&gt;go_debuglog -->
<g id="edge26" class="edge">
<title>go_main&#45;&gt;go_debuglog</title>
<path fill="none" stroke="#868e96" stroke-width="0.8" d="M878.2,-728.34C836.61,-699.9 760.37,-644.01 708,-583.5 691.11,-563.98 676.21,-538.75 666.03,-519.56"/>
<polygon fill="#868e96" stroke="#868e96" stroke-width="0.8" points="669.14,-517.95 661.43,-510.69 662.92,-521.18 669.14,-517.95"/>
</g>
<!-- go_update -->
<g id="node23" class="node">
<title>go_update</title>
<path fill="#fff3bf" stroke="#e67700" stroke-width="1.2" d="M1258,-637.5C1258,-637.5 1190,-637.5 1190,-637.5 1184,-637.5 1178,-631.5 1178,-625.5 1178,-625.5 1178,-613.5 1178,-613.5 1178,-607.5 1184,-601.5 1190,-601.5 1190,-601.5 1258,-601.5 1258,-601.5 1264,-601.5 1270,-607.5 1270,-613.5 1270,-613.5 1270,-625.5 1270,-625.5 1270,-631.5 1264,-637.5 1258,-637.5"/>
<text text-anchor="middle" x="1224" y="-622.5" font-family="Helvetica,sans-Serif" font-size="10.00">update/</text>
<text text-anchor="middle" x="1224" y="-611.5" font-family="Helvetica,sans-Serif" font-size="10.00">(release check)</text>
</g>
<!-- go_main&#45;&gt;go_update -->
<g id="edge24" class="edge">
<title>go_main&#45;&gt;go_update</title>
<path fill="none" stroke="#868e96" stroke-width="0.8" d="M975.01,-745.58C1043.89,-741.9 1145.4,-732.78 1177,-710.5 1198.2,-695.56 1210.56,-668.06 1217.23,-647.38"/>
<polygon fill="#868e96" stroke="#868e96" stroke-width="0.8" points="1220.65,-648.15 1220.14,-637.57 1213.94,-646.16 1220.65,-648.15"/>
</g>
<!-- go_buildinfo -->
<g id="node24" class="node">
<title>go_buildinfo</title>
<path fill="#fff3bf" stroke="#e67700" stroke-width="1.2" d="M448,-508C448,-508 410,-508 410,-508 404,-508 398,-502 398,-496 398,-496 398,-484 398,-484 398,-478 404,-472 410,-472 410,-472 448,-472 448,-472 454,-472 460,-478 460,-484 460,-484 460,-496 460,-496 460,-502 454,-508 448,-508"/>
<text text-anchor="middle" x="429" y="-493" font-family="Helvetica,sans-Serif" font-size="10.00">buildinfo/</text>
<text text-anchor="middle" x="429" y="-482" font-family="Helvetica,sans-Serif" font-size="10.00">(version)</text>
</g>
<!-- go_main&#45;&gt;go_buildinfo -->
<g id="edge25" class="edge">
<title>go_main&#45;&gt;go_buildinfo</title>
<path fill="none" stroke="#868e96" stroke-width="0.8" d="M840.73,-732.87C804.55,-723.43 759.73,-709.61 722,-691.5 616.99,-641.1 507.35,-555.85 457.14,-514.67"/>
<polygon fill="#868e96" stroke="#868e96" stroke-width="0.8" points="459.26,-511.88 449.32,-508.21 454.8,-517.28 459.26,-511.88"/>
</g>
<!-- go_safego -->
<g id="node25" class="node">
<title>go_safego</title>
<path fill="#fff3bf" stroke="#e67700" stroke-width="1.2" d="M1198,-510.5C1198,-510.5 1150,-510.5 1150,-510.5 1144,-510.5 1138,-504.5 1138,-498.5 1138,-498.5 1138,-481.5 1138,-481.5 1138,-475.5 1144,-469.5 1150,-469.5 1150,-469.5 1198,-469.5 1198,-469.5 1204,-469.5 1210,-475.5 1210,-481.5 1210,-481.5 1210,-498.5 1210,-498.5 1210,-504.5 1204,-510.5 1198,-510.5"/>
<text text-anchor="middle" x="1174" y="-498.5" font-family="Helvetica,sans-Serif" font-size="10.00">safego/</text>
<text text-anchor="middle" x="1174" y="-487.5" font-family="Helvetica,sans-Serif" font-size="10.00">(panic&#45;safe</text>
<text text-anchor="middle" x="1174" y="-476.5" font-family="Helvetica,sans-Serif" font-size="10.00">goroutines)</text>
</g>
<!-- go_main&#45;&gt;go_safego -->
<g id="edge27" class="edge">
<title>go_main&#45;&gt;go_safego</title>
<path fill="none" stroke="#868e96" stroke-width="0.8" d="M975.28,-738.11C1033.58,-725.61 1114.6,-697.89 1154,-637.5 1166.19,-618.81 1171.05,-557.95 1172.91,-520.81"/>
<polygon fill="#868e96" stroke="#868e96" stroke-width="0.8" points="1176.42,-520.72 1173.38,-510.57 1169.42,-520.4 1176.42,-520.72"/>
</g>
<!-- go_bulk -->
<g id="node13" class="node">
<title>go_bulk</title>
<path fill="#fff3bf" stroke="#e67700" stroke-width="1.2" d="M580,-451.5C580,-451.5 498,-451.5 498,-451.5 492,-451.5 486,-445.5 486,-439.5 486,-439.5 486,-427.5 486,-427.5 486,-421.5 492,-415.5 498,-415.5 498,-415.5 580,-415.5 580,-415.5 586,-415.5 592,-421.5 592,-427.5 592,-427.5 592,-439.5 592,-439.5 592,-445.5 586,-451.5 580,-451.5"/>
<text text-anchor="middle" x="539" y="-436.5" font-family="Helvetica,sans-Serif" font-size="10.00">bulk/</text>
<text text-anchor="middle" x="539" y="-425.5" font-family="Helvetica,sans-Serif" font-size="10.00">(CSV bulk signing)</text>
</g>
<!-- go_gui&#45;&gt;go_bulk -->
<g id="edge32" class="edge">
<title>go_gui&#45;&gt;go_bulk</title>
<path fill="none" stroke="#868e96" stroke-width="0.8" d="M768.38,-557.33C674.99,-545.24 498.01,-521.07 489,-510.5 477.18,-496.63 480.58,-485.66 489,-469.5 491.12,-465.42 493.96,-461.73 497.21,-458.39"/>
<polygon fill="#868e96" stroke="#868e96" stroke-width="0.8" points="499.66,-460.9 504.86,-451.68 495.04,-455.64 499.66,-460.9"/>
</g>
<!-- go_core -->
<g id="node14" class="node">
<title>go_core</title>
<path fill="#fff3bf" stroke="#e67700" stroke-width="1.2" d="M864.5,-305C864.5,-305 763.5,-305 763.5,-305 757.5,-305 751.5,-299 751.5,-293 751.5,-293 751.5,-276 751.5,-276 751.5,-270 757.5,-264 763.5,-264 763.5,-264 864.5,-264 864.5,-264 870.5,-264 876.5,-270 876.5,-276 876.5,-276 876.5,-293 876.5,-293 876.5,-299 870.5,-305 864.5,-305"/>
<text text-anchor="middle" x="814" y="-293" font-family="Helvetica,sans-Serif" font-size="10.00">core/</text>
<text text-anchor="middle" x="814" y="-282" font-family="Helvetica,sans-Serif" font-size="10.00">(credential, canonical,</text>
<text text-anchor="middle" x="814" y="-271" font-family="Helvetica,sans-Serif" font-size="10.00">registry, sign)</text>
</g>
<!-- go_gui&#45;&gt;go_core -->
<g id="edge31" class="edge">
<title>go_gui&#45;&gt;go_core</title>
<path fill="none" stroke="#868e96" stroke-width="0.8" d="M789.8,-547.42C780.4,-542.21 770.5,-536.1 762,-529.5 731.98,-506.21 732.31,-489.12 727,-451.5 724.76,-435.66 722.35,-430.81 727,-415.5 738.98,-376.05 767.36,-337.66 788.46,-312.96"/>
<polygon fill="#868e96" stroke="#868e96" stroke-width="0.8" points="791.36,-314.96 795.31,-305.12 786.09,-310.35 791.36,-314.96"/>
</g>
<!-- go_gui&#45;&gt;go_ghapi -->
<g id="edge37" class="edge">
<title>go_gui&#45;&gt;go_ghapi</title>
<path fill="none" stroke="#868e96" stroke-width="0.8" d="M881.73,-555.76C909.86,-548.43 941.82,-535.01 961,-510.5 974.83,-492.82 979.1,-431.08 980.42,-393.46"/>
<polygon fill="#868e96" stroke="#868e96" stroke-width="0.8" points="983.93,-393.19 980.73,-383.09 976.93,-392.99 983.93,-393.19"/>
</g>
<!-- go_yubikey -->
<g id="node17" class="node">
<title>go_yubikey</title>
<path fill="#fff3bf" stroke="#e67700" stroke-width="1.2" d="M1108,-510.5C1108,-510.5 1022,-510.5 1022,-510.5 1016,-510.5 1010,-504.5 1010,-498.5 1010,-498.5 1010,-481.5 1010,-481.5 1010,-475.5 1016,-469.5 1022,-469.5 1022,-469.5 1108,-469.5 1108,-469.5 1114,-469.5 1120,-475.5 1120,-481.5 1120,-481.5 1120,-498.5 1120,-498.5 1120,-504.5 1114,-510.5 1108,-510.5"/>
<text text-anchor="middle" x="1065" y="-498.5" font-family="Helvetica,sans-Serif" font-size="10.00">yubikey/</text>
<text text-anchor="middle" x="1065" y="-487.5" font-family="Helvetica,sans-Serif" font-size="10.00">(piv&#45;go PIV adapter</text>
<text text-anchor="middle" x="1065" y="-476.5" font-family="Helvetica,sans-Serif" font-size="10.00">+ PIN cache)</text>
</g>
<!-- go_gui&#45;&gt;go_yubikey -->
<g id="edge33" class="edge">
<title>go_gui&#45;&gt;go_yubikey</title>
<path fill="none" stroke="#868e96" stroke-width="0.8" d="M881.73,-550.92C905.71,-544.86 933.86,-537.33 959,-529.5 973.87,-524.87 989.74,-519.39 1004.55,-514.05"/>
<polygon fill="#868e96" stroke="#868e96" stroke-width="0.8" points="1005.91,-517.28 1014.11,-510.57 1003.51,-510.71 1005.91,-517.28"/>
</g>
<!-- go_qr -->
<g id="node18" class="node">
<title>go_qr</title>
<path fill="#fff3bf" stroke="#e67700" stroke-width="1.2" d="M796,-451.5C796,-451.5 740,-451.5 740,-451.5 734,-451.5 728,-445.5 728,-439.5 728,-439.5 728,-427.5 728,-427.5 728,-421.5 734,-415.5 740,-415.5 740,-415.5 796,-415.5 796,-415.5 802,-415.5 808,-421.5 808,-427.5 808,-427.5 808,-439.5 808,-439.5 808,-445.5 802,-451.5 796,-451.5"/>
<text text-anchor="middle" x="768" y="-436.5" font-family="Helvetica,sans-Serif" font-size="10.00">qr/</text>
<text text-anchor="middle" x="768" y="-425.5" font-family="Helvetica,sans-Serif" font-size="10.00">(SVG + PNG)</text>
</g>
<!-- go_gui&#45;&gt;go_qr -->
<g id="edge34" class="edge">
<title>go_gui&#45;&gt;go_qr</title>
<path fill="none" stroke="#868e96" stroke-width="0.8" d="M789.71,-547.32C775.59,-538.44 760.83,-526.15 753,-510.5 745.3,-495.11 749.05,-476.11 754.72,-460.96"/>
<polygon fill="#868e96" stroke="#868e96" stroke-width="0.8" points="757.99,-462.22 758.63,-451.64 751.54,-459.51 757.99,-462.22"/>
</g>
<!-- go_gui&#45;&gt;go_log -->
<g id="edge35" class="edge">
<title>go_gui&#45;&gt;go_log</title>
<path fill="none" stroke="#868e96" stroke-width="0.8" d="M768.4,-553.65C723.18,-544.48 658.1,-530.12 593.63,-510.83"/>
<polygon fill="#868e96" stroke="#868e96" stroke-width="0.8" points="594.29,-507.37 583.7,-507.82 592.26,-514.07 594.29,-507.37"/>
</g>
<!-- go_gui&#45;&gt;go_registry -->
<g id="edge36" class="edge">
<title>go_gui&#45;&gt;go_registry</title>
<path fill="none" stroke="#868e96" stroke-width="0.8" d="M844.25,-547.45C855.17,-537.78 869.01,-525.53 881,-514.91"/>
<polygon fill="#868e96" stroke="#868e96" stroke-width="0.8" points="883.4,-517.46 888.57,-508.21 878.76,-512.22 883.4,-517.46"/>
</g>
<!-- go_gui&#45;&gt;go_debuglog -->
<g id="edge38" class="edge">
<title>go_gui&#45;&gt;go_debuglog</title>
<path fill="none" stroke="#868e96" stroke-width="0.8" d="M768.33,-548.73C751.52,-543.36 733.26,-536.84 717,-529.5 708.22,-525.53 699.12,-520.67 690.61,-515.76"/>
<polygon fill="#868e96" stroke="#868e96" stroke-width="0.8" points="692.39,-512.74 682,-510.65 688.82,-518.76 692.39,-512.74"/>
</g>
<!-- go_errorreport -->
<g id="node22" class="node">
<title>go_errorreport</title>
<path fill="#fff3bf" stroke="#e67700" stroke-width="1.2" d="M834.5,-508C834.5,-508 773.5,-508 773.5,-508 767.5,-508 761.5,-502 761.5,-496 761.5,-496 761.5,-484 761.5,-484 761.5,-478 767.5,-472 773.5,-472 773.5,-472 834.5,-472 834.5,-472 840.5,-472 846.5,-478 846.5,-484 846.5,-484 846.5,-496 846.5,-496 846.5,-502 840.5,-508 834.5,-508"/>
<text text-anchor="middle" x="804" y="-493" font-family="Helvetica,sans-Serif" font-size="10.00">errorreport/</text>
<text text-anchor="middle" x="804" y="-482" font-family="Helvetica,sans-Serif" font-size="10.00">(Report Issue)</text>
</g>
<!-- go_gui&#45;&gt;go_errorreport -->
<g id="edge39" class="edge">
<title>go_gui&#45;&gt;go_errorreport</title>
<path fill="none" stroke="#868e96" stroke-width="0.8" d="M820.13,-547.45C817.63,-538.7 814.53,-527.84 811.71,-517.98"/>
<polygon fill="#868e96" stroke="#868e96" stroke-width="0.8" points="815.03,-516.86 808.92,-508.21 808.3,-518.79 815.03,-516.86"/>
</g>
<!-- go_gui&#45;&gt;go_buildinfo -->
<g id="edge40" class="edge">
<title>go_gui&#45;&gt;go_buildinfo</title>
<path fill="none" stroke="#868e96" stroke-width="0.8" d="M768.44,-561.26C698.01,-556 574.71,-542.72 474,-510.5 472.58,-510.05 471.15,-509.56 469.7,-509.06"/>
<polygon fill="#868e96" stroke="#868e96" stroke-width="0.8" points="470.76,-505.71 460.17,-505.45 468.28,-512.26 470.76,-505.71"/>
</g>
<!-- go_gui&#45;&gt;go_safego -->
<g id="edge41" class="edge">
<title>go_gui&#45;&gt;go_safego</title>
<path fill="none" stroke="#868e96" stroke-width="0.8" d="M881.67,-558.44C941.31,-551.18 1037.82,-536.89 1128.34,-510.36"/>
<polygon fill="#868e96" stroke="#868e96" stroke-width="0.8" points="1129.34,-513.71 1137.92,-507.49 1127.34,-507 1129.34,-513.71"/>
</g>
<!-- fyne -->
<g id="node28" class="node">
<title>fyne</title>
<polygon fill="#d3f9d8" stroke="#2b8a3e" stroke-width="1.2" points="1342,-508 1288,-508 1288,-504 1284,-504 1284,-500 1288,-500 1288,-480 1284,-480 1284,-476 1288,-476 1288,-472 1342,-472 1342,-508"/>
<polyline fill="none" stroke="#2b8a3e" stroke-width="1.2" points="1288,-504 1292,-504 1292,-500 1288,-500 "/>
<polyline fill="none" stroke="#2b8a3e" stroke-width="1.2" points="1288,-480 1292,-480 1292,-476 1288,-476 "/>
<text text-anchor="middle" x="1315" y="-493" font-family="Helvetica,sans-Serif" font-size="10.00">fyne</text>
<text text-anchor="middle" x="1315" y="-482" font-family="Helvetica,sans-Serif" font-size="10.00">(GUI)</text>
</g>
<!-- go_gui&#45;&gt;fyne -->
<g id="edge59" class="edge">
<title>go_gui&#45;&gt;fyne</title>
<path fill="none" stroke="#868e96" stroke-width="0.8" d="M881.86,-565.24C967.97,-564.76 1135.91,-557.55 1278.28,-511.34"/>
<polygon fill="#868e96" stroke="#868e96" stroke-width="0.8" points="1279.67,-514.57 1288.05,-508.1 1277.46,-507.93 1279.67,-514.57"/>
</g>
<!-- go_bulk&#45;&gt;go_core -->
<g id="edge43" class="edge">
<title>go_bulk&#45;&gt;go_core</title>
<path fill="none" stroke="#868e96" stroke-width="0.8" d="M542.53,-415.3C548.53,-390.66 563.22,-345.78 594,-323 616.98,-305.99 686.57,-296.13 741.39,-290.83"/>
<polygon fill="#868e96" stroke="#868e96" stroke-width="0.8" points="741.81,-294.31 751.44,-289.89 741.16,-287.34 741.81,-294.31"/>
</g>
<!-- go_core&#45;&gt;vectors -->
<g id="edge62" class="edge">
<title>go_core&#45;&gt;vectors</title>
<path fill="none" stroke="#868e96" stroke-width="0.8" stroke-dasharray="1,5" d="M769.26,-259.11C737.98,-242.05 696.56,-219.47 666.31,-202.98"/>
<polygon fill="#868e96" stroke="#868e96" stroke-width="0.8" points="767.74,-262.27 778.2,-263.98 771.09,-256.12 767.74,-262.27"/>
<polygon fill="#868e96" stroke="#868e96" stroke-width="0.8" points="667.76,-199.78 657.3,-198.07 664.41,-205.93 667.76,-199.78"/>
<text text-anchor="middle" x="791" y="-234.8" font-family="Times,serif" font-size="14.00">byte&#45;identical</text>
<text text-anchor="middle" x="791" y="-219.8" font-family="Times,serif" font-size="14.00">output</text>
</g>
<!-- go_regmgr&#45;&gt;go_gui -->
<g id="edge51" class="edge">
<title>go_regmgr&#45;&gt;go_gui</title>
<path fill="none" stroke="#868e96" stroke-width="0.8" d="M965.17,-655.47C936.77,-637.44 891.8,-608.9 860.49,-589.03"/>
<polygon fill="#868e96" stroke="#868e96" stroke-width="0.8" points="862.36,-586.07 852.04,-583.66 858.61,-591.98 862.36,-586.07"/>
</g>
<!-- go_regmgr&#45;&gt;go_core -->
<g id="edge52" class="edge">
<title>go_regmgr&#45;&gt;go_core</title>
<path fill="none" stroke="#868e96" stroke-width="0.8" d="M1021.03,-655.38C1030.1,-649.84 1040.06,-643.56 1049,-637.5 1068.51,-624.26 1208.44,-531.58 1219,-510.5 1227.16,-494.21 1227.37,-485.69 1219,-469.5 1155.96,-347.59 985.28,-306.27 886.78,-292.4"/>
<polygon fill="#868e96" stroke="#868e96" stroke-width="0.8" points="886.98,-288.89 876.6,-291.02 886.04,-295.83 886.98,-288.89"/>
</g>
<!-- go_regmgr&#45;&gt;go_ghapi -->
<g id="edge53" class="edge">
<title>go_regmgr&#45;&gt;go_ghapi</title>
<path fill="none" stroke="#868e96" stroke-width="0.8" d="M991.39,-655.45C989.6,-605.21 984.34,-457.33 982.07,-393.45"/>
<polygon fill="#868e96" stroke="#868e96" stroke-width="0.8" points="985.56,-393.11 981.7,-383.24 978.56,-393.36 985.56,-393.11"/>
</g>
<!-- go_regmgr&#45;&gt;go_yubikey -->
<g id="edge54" class="edge">
<title>go_regmgr&#45;&gt;go_yubikey</title>
<path fill="none" stroke="#868e96" stroke-width="0.8" d="M998.87,-655.42C1011.35,-624.4 1037.87,-558.45 1053.27,-520.17"/>
<polygon fill="#868e96" stroke="#868e96" stroke-width="0.8" points="1056.63,-521.2 1057.11,-510.62 1050.13,-518.59 1056.63,-521.2"/>
</g>
<!-- go_regmgr&#45;&gt;go_registry -->
<g id="edge55" class="edge">
<title>go_regmgr&#45;&gt;go_registry</title>
<path fill="none" stroke="#868e96" stroke-width="0.8" d="M984.1,-655.42C969.4,-623.67 937.77,-555.33 920.27,-517.52"/>
<polygon fill="#868e96" stroke="#868e96" stroke-width="0.8" points="923.32,-515.77 915.94,-508.16 916.97,-518.71 923.32,-515.77"/>
</g>
<!-- go_regmgr&#45;&gt;go_debuglog -->
<g id="edge56" class="edge">
<title>go_regmgr&#45;&gt;go_debuglog</title>
<path fill="none" stroke="#868e96" stroke-width="0.8" d="M932,-655.45C914.74,-650.13 895.99,-643.96 879,-637.5 824.71,-616.87 808.99,-614.7 760,-583.5 729.96,-564.37 699.47,-537.42 678.59,-517.54"/>
<polygon fill="#868e96" stroke="#868e96" stroke-width="0.8" points="680.98,-514.98 671.35,-510.57 676.12,-520.02 680.98,-514.98"/>
</g>
<!-- go_regmgr&#45;&gt;go_safego -->
<g id="edge57" class="edge">
<title>go_regmgr&#45;&gt;go_safego</title>
<path fill="none" stroke="#868e96" stroke-width="0.8" d="M1009.12,-655.42C1040.9,-623.74 1109.19,-555.63 1147.16,-517.77"/>
<polygon fill="#868e96" stroke="#868e96" stroke-width="0.8" points="1149.72,-520.16 1154.33,-510.62 1144.78,-515.2 1149.72,-520.16"/>
</g>
<!-- go_regmgr&#45;&gt;fyne -->
<g id="edge60" class="edge">
<title>go_regmgr&#45;&gt;fyne</title>
<path fill="none" stroke="#868e96" stroke-width="0.8" d="M1056.6,-672.89C1130.99,-671.96 1247.08,-665.81 1279,-637.5 1312.62,-607.68 1317.35,-552.01 1316.8,-518.55"/>
<polygon fill="#868e96" stroke="#868e96" stroke-width="0.8" points="1320.29,-517.99 1316.45,-508.12 1313.29,-518.23 1320.29,-517.99"/>
</g>
<!-- go_ghapi&#45;&gt;go_core -->
<g id="edge46" class="edge">
<title>go_ghapi&#45;&gt;go_core</title>
<path fill="none" stroke="#868e96" stroke-width="0.8" d="M937.99,-341.93C916.08,-331.96 889.25,-319.75 866.17,-309.24"/>
<polygon fill="#868e96" stroke="#868e96" stroke-width="0.8" points="867.41,-305.96 856.86,-305.01 864.51,-312.33 867.41,-305.96"/>
</g>
<!-- keyring -->
<g id="node29" class="node">
<title>keyring</title>
<polygon fill="#d3f9d8" stroke="#2b8a3e" stroke-width="1.2" points="1370,-302.5 1286,-302.5 1286,-298.5 1282,-298.5 1282,-294.5 1286,-294.5 1286,-274.5 1282,-274.5 1282,-270.5 1286,-270.5 1286,-266.5 1370,-266.5 1370,-302.5"/>
<polyline fill="none" stroke="#2b8a3e" stroke-width="1.2" points="1286,-298.5 1290,-298.5 1290,-294.5 1286,-294.5 "/>
<polyline fill="none" stroke="#2b8a3e" stroke-width="1.2" points="1286,-274.5 1290,-274.5 1290,-270.5 1286,-270.5 "/>
<text text-anchor="middle" x="1328" y="-287.5" font-family="Helvetica,sans-Serif" font-size="10.00">go&#45;keyring</text>
<text text-anchor="middle" x="1328" y="-276.5" font-family="Helvetica,sans-Serif" font-size="10.00">(OS keychain)</text>
</g>
<!-- go_ghapi&#45;&gt;keyring -->
<g id="edge61" class="edge">
<title>go_ghapi&#45;&gt;keyring</title>
<path fill="none" stroke="#868e96" stroke-width="0.8" d="M1030.26,-355.57C1088.45,-347.84 1188.11,-332.31 1279.86,-305.4"/>
<polygon fill="#868e96" stroke="#868e96" stroke-width="0.8" points="1280.99,-308.72 1289.57,-302.5 1278.99,-302.01 1280.99,-308.72"/>
</g>
<!-- pivgo -->
<g id="node27" class="node">
<title>pivgo</title>
<polygon fill="#d3f9d8" stroke="#2b8a3e" stroke-width="1.2" points="1342,-380.5 1288,-380.5 1288,-376.5 1284,-376.5 1284,-372.5 1288,-372.5 1288,-352.5 1284,-352.5 1284,-348.5 1288,-348.5 1288,-344.5 1342,-344.5 1342,-380.5"/>
<polyline fill="none" stroke="#2b8a3e" stroke-width="1.2" points="1288,-376.5 1292,-376.5 1292,-372.5 1288,-372.5 "/>
<polyline fill="none" stroke="#2b8a3e" stroke-width="1.2" points="1288,-352.5 1292,-352.5 1292,-348.5 1288,-348.5 "/>
<text text-anchor="middle" x="1315" y="-365.5" font-family="Helvetica,sans-Serif" font-size="10.00">piv&#45;go</text>
<text text-anchor="middle" x="1315" y="-354.5" font-family="Helvetica,sans-Serif" font-size="10.00">(PCSC)</text>
</g>
<!-- go_yubikey&#45;&gt;pivgo -->
<g id="edge58" class="edge">
<title>go_yubikey&#45;&gt;pivgo</title>
<path fill="none" stroke="#868e96" stroke-width="0.8" d="M1120.23,-472.17C1175.45,-454.67 1255.84,-427.11 1282,-407.5 1288.66,-402.51 1294.61,-395.81 1299.57,-389.15"/>
<polygon fill="#868e96" stroke="#868e96" stroke-width="0.8" points="1302.48,-391.08 1305.28,-380.87 1296.72,-387.11 1302.48,-391.08"/>
</g>
<!-- go_qr&#45;&gt;go_core -->
<g id="edge42" class="edge">
<title>go_qr&#45;&gt;go_core</title>
<path fill="none" stroke="#868e96" stroke-width="0.8" d="M773.37,-415.35C781.07,-390.72 795.39,-344.98 804.8,-314.9"/>
<polygon fill="#868e96" stroke="#868e96" stroke-width="0.8" points="808.14,-315.93 807.79,-305.35 801.46,-313.84 808.14,-315.93"/>
</g>
<!-- go_log&#45;&gt;go_core -->
<g id="edge44" class="edge">
<title>go_log&#45;&gt;go_core</title>
<path fill="none" stroke="#868e96" stroke-width="0.8" d="M569.27,-471.95C577.76,-466.08 586.74,-459.06 594,-451.5 634.17,-409.66 620.13,-378.75 665,-342 687.02,-323.97 715.39,-311.31 741.47,-302.61"/>
<polygon fill="#868e96" stroke="#868e96" stroke-width="0.8" points="742.86,-305.84 751.33,-299.47 740.74,-299.17 742.86,-305.84"/>
</g>
<!-- go_registry&#45;&gt;go_core -->
<g id="edge45" class="edge">
<title>go_registry&#45;&gt;go_core</title>
<path fill="none" stroke="#868e96" stroke-width="0.8" d="M900.15,-472C884.07,-437.19 847.23,-357.44 827.34,-314.37"/>
<polygon fill="#868e96" stroke="#868e96" stroke-width="0.8" points="830.5,-312.87 823.13,-305.26 824.14,-315.81 830.5,-312.87"/>
</g>
<!-- go_debuglog&#45;&gt;go_core -->
<g id="edge47" class="edge">
<title>go_debuglog&#45;&gt;go_core</title>
<path fill="none" stroke="#868e96" stroke-width="0.8" d="M654.51,-469.32C659.87,-435.08 675.55,-364.27 717,-323 724.27,-315.76 733.1,-309.89 742.42,-305.13"/>
<polygon fill="#868e96" stroke="#868e96" stroke-width="0.8" points="743.91,-308.3 751.49,-300.9 740.95,-301.96 743.91,-308.3"/>
</g>
<!-- go_errorreport&#45;&gt;go_core -->
<g id="edge49" class="edge">
<title>go_errorreport&#45;&gt;go_core</title>
<path fill="none" stroke="#868e96" stroke-width="0.8" d="M806.66,-471.86C807.55,-465.49 808.46,-458.18 809,-451.5 812.86,-404.12 813.82,-348.92 814.02,-315.62"/>
<polygon fill="#868e96" stroke="#868e96" stroke-width="0.8" points="817.52,-315.23 814.06,-305.21 810.52,-315.2 817.52,-315.23"/>
</g>
<!-- go_errorreport&#45;&gt;go_ghapi -->
<g id="edge50" class="edge">
<title>go_errorreport&#45;&gt;go_ghapi</title>
<path fill="none" stroke="#868e96" stroke-width="0.8" d="M828.24,-471.81C858.35,-450.46 910,-413.84 944.81,-389.16"/>
<polygon fill="#868e96" stroke="#868e96" stroke-width="0.8" points="947.14,-391.8 953.27,-383.16 943.09,-386.09 947.14,-391.8"/>
</g>
<!-- go_update&#45;&gt;go_core -->
<g id="edge48" class="edge">
<title>go_update&#45;&gt;go_core</title>
<path fill="none" stroke="#868e96" stroke-width="0.8" d="M1238.73,-601.38C1251.86,-584.35 1269,-556.86 1269,-529.5 1269,-529.5 1269,-529.5 1269,-361.5 1269,-338.38 1254.71,-333.29 1234,-323 1174.83,-293.61 990.32,-287.02 886.62,-285.69"/>
<polygon fill="#868e96" stroke="#868e96" stroke-width="0.8" points="886.58,-282.19 876.54,-285.58 886.5,-289.19 886.58,-282.19"/>
</g>
</g>
</svg>
