<?xml version="1.0" encoding="UTF-8" standalone="no"?>
<!DOCTYPE svg PUBLIC "-//W3C//DTD SVG 1.1//EN"
 "http://www.w3.org/Graphics/SVG/1.1/DTD/svg11.dtd">
<!-- Generated by graphviz version 2.42.4 (0)
 -->
<!-- Title: module_architecture Pages: 1 -->
<svg width="1118pt" height="436pt"
 viewBox="0.00 0.00 1118.00 435.50" xmlns="http://www.w3.org/2000/svg" xmlns:xlink="http://www.w3.org/1999/xlink">
<g id="graph0" class="graph" transform="scale(1 1) rotate(0) translate(4 431.5)">
<title>module_architecture</title>
<g id="clust1" class="cluster">
<title>cluster_ts</title>
<path fill="transparent" stroke="#4263eb" stroke-dasharray="5,2" d="M20,-8C20,-8 332,-8 332,-8 338,-8 344,-14 344,-20 344,-20 344,-317.5 344,-317.5 344,-323.5 338,-329.5 332,-329.5 332,-329.5 20,-329.5 20,-329.5 14,-329.5 8,-323.5 8,-317.5 8,-317.5 8,-20 8,-20 8,-14 14,-8 20,-8"/>
<text text-anchor="middle" x="95" y="-317.5" font-family="Helvetica,sans-Serif" font-size="10.00" fill="#4263eb">TypeScript — Verification Library</text>
</g>
<g id="clust2" class="cluster">
<title>cluster_go</title>
<path fill="transparent" stroke="#e67700" stroke-dasharray="5,2" d="M364,-256C364,-256 1034,-256 1034,-256 1040,-256 1046,-262 1046,-268 1046,-268 1046,-407.5 1046,-407.5 1046,-413.5 1040,-419.5 1034,-419.5 1034,-419.5 364,-419.5 364,-419.5 358,-419.5 352,-413.5 352,-407.5 352,-407.5 352,-268 352,-268 352,-262 358,-256 364,-256"/>
<text text-anchor="middle" x="425.5" y="-407.5" font-family="Helvetica,sans-Serif" font-size="10.00" fill="#e67700">Go — Desktop Signing App</text>
</g>
<!-- index -->
<g id="node1" class="node">
<title>index</title>
<path fill="#dbe4ff" stroke="#4263eb" stroke-width="1.2" d="M323.5,-302.5C323.5,-302.5 260.5,-302.5 260.5,-302.5 254.5,-302.5 248.5,-296.5 248.5,-290.5 248.5,-290.5 248.5,-278.5 248.5,-278.5 248.5,-272.5 254.5,-266.5 260.5,-266.5 260.5,-266.5 323.5,-266.5 323.5,-266.5 329.5,-266.5 335.5,-272.5 335.5,-278.5 335.5,-278.5 335.5,-290.5 335.5,-290.5 335.5,-296.5 329.5,-302.5 323.5,-302.5"/>
<text text-anchor="middle" x="292" y="-287.5" font-family="Helvetica,sans-Serif" font-size="10.00">index.ts</text>
<text text-anchor="middle" x="292" y="-276.5" font-family="Helvetica,sans-Serif" font-size="10.00">(barrel export)</text>
</g>
<!-- verify -->
<g id="node2" class="node">
<title>verify</title>
<path fill="#dbe4ff" stroke="#4263eb" stroke-width="1.2" d="M194.5,-198C194.5,-198 135.5,-198 135.5,-198 129.5,-198 123.5,-192 123.5,-186 123.5,-186 123.5,-174 123.5,-174 123.5,-168 129.5,-162 135.5,-162 135.5,-162 194.5,-162 194.5,-162 200.5,-162 206.5,-168 206.5,-174 206.5,-174 206.5,-186 206.5,-186 206.5,-192 200.5,-198 194.5,-198"/>
<text text-anchor="middle" x="165" y="-183" font-family="Helvetica,sans-Serif" font-size="10.00">verify.ts</text>
<text text-anchor="middle" x="165" y="-172" font-family="Helvetica,sans-Serif" font-size="10.00">(orchestrator)</text>
</g>
<!-- credential -->
<g id="node4" class="node">
<title>credential</title>
<path fill="#dbe4ff" stroke="#4263eb" stroke-width="1.2" d="M239.5,-125C239.5,-125 148.5,-125 148.5,-125 142.5,-125 136.5,-119 136.5,-113 136.5,-113 136.5,-101 136.5,-101 136.5,-95 142.5,-89 148.5,-89 148.5,-89 239.5,-89 239.5,-89 245.5,-89 251.5,-95 251.5,-101 251.5,-101 251.5,-113 251.5,-113 251.5,-119 245.5,-125 239.5,-125"/>
<text text-anchor="middle" x="194" y="-110" font-family="Helvetica,sans-Serif" font-size="10.00">credential.ts</text>
<text text-anchor="middle" x="194" y="-99" font-family="Helvetica,sans-Serif" font-size="10.00">(schema + sanitize)</text>
</g>
<!-- verify&#45;&gt;credential -->
<g id="edge1" class="edge">
<title>verify&#45;&gt;credential</title>
<path fill="none" stroke="#868e96" stroke-width="0.8" d="M172.02,-161.81C175.37,-153.62 179.45,-143.62 183.18,-134.48"/>
<polygon fill="#868e96" stroke="#868e96" stroke-width="0.8" points="186.5,-135.61 187.04,-125.03 180.02,-132.96 186.5,-135.61"/>
</g>
<!-- crypto -->
<g id="node5" class="node">
<title>crypto</title>
<path fill="#dbe4ff" stroke="#4263eb" stroke-width="1.2" d="M324,-125C324,-125 282,-125 282,-125 276,-125 270,-119 270,-113 270,-113 270,-101 270,-101 270,-95 276,-89 282,-89 282,-89 324,-89 324,-89 330,-89 336,-95 336,-101 336,-101 336,-113 336,-113 336,-119 330,-125 324,-125"/>
<text text-anchor="middle" x="303" y="-110" font-family="Helvetica,sans-Serif" font-size="10.00">crypto.ts</text>
<text text-anchor="middle" x="303" y="-99" font-family="Helvetica,sans-Serif" font-size="10.00">(Ed25519)</text>
</g>
<!-- verify&#45;&gt;crypto -->
<g id="edge2" class="edge">
<title>verify&#45;&gt;crypto</title>
<path fill="none" stroke="#868e96" stroke-width="0.8" d="M198.05,-161.99C216.86,-152.32 240.61,-140.1 260.76,-129.73"/>
<polygon fill="#868e96" stroke="#868e96" stroke-width="0.8" points="262.45,-132.8 269.74,-125.11 259.24,-126.58 262.45,-132.8"/>
</g>
<!-- registry -->
<g id="node6" class="node">
<title>registry</title>
<path fill="#dbe4ff" stroke="#4263eb" stroke-width="1.2" d="M106,-125C106,-125 48,-125 48,-125 42,-125 36,-119 36,-113 36,-113 36,-101 36,-101 36,-95 42,-89 48,-89 48,-89 106,-89 106,-89 112,-89 118,-95 118,-101 118,-101 118,-113 118,-113 118,-119 112,-125 106,-125"/>
<text text-anchor="middle" x="77" y="-110" font-family="Helvetica,sans-Serif" font-size="10.00">registry.ts</text>
<text text-anchor="middle" x="77" y="-99" font-family="Helvetica,sans-Serif" font-size="10.00">(key registry)</text>
</g>
<!-- verify&#45;&gt;registry -->
<g id="edge3" class="edge">
<title>verify&#45;&gt;registry</title>
<path fill="none" stroke="#868e96" stroke-width="0.8" d="M143.7,-161.81C132.35,-152.66 118.22,-141.26 105.9,-131.32"/>
<polygon fill="#868e96" stroke="#868e96" stroke-width="0.8" points="108.09,-128.58 98.11,-125.03 103.69,-134.03 108.09,-128.58"/>
</g>
<!-- verify_page -->
<g id="node3" class="node">
<title>verify_page</title>
<path fill="#dbe4ff" stroke="#4263eb" stroke-width="1.2" d="M104,-302.5C104,-302.5 44,-302.5 44,-302.5 38,-302.5 32,-296.5 32,-290.5 32,-290.5 32,-278.5 32,-278.5 32,-272.5 38,-266.5 44,-266.5 44,-266.5 104,-266.5 104,-266.5 110,-266.5 116,-272.5 116,-278.5 116,-278.5 116,-290.5 116,-290.5 116,-296.5 110,-302.5 104,-302.5"/>
<text text-anchor="middle" x="74" y="-287.5" font-family="Helvetica,sans-Serif" font-size="10.00">verify&#45;page.ts</text>
<text text-anchor="middle" x="74" y="-276.5" font-family="Helvetica,sans-Serif" font-size="10.00">(browser UI)</text>
</g>
<!-- verify_page&#45;&gt;verify -->
<g id="edge4" class="edge">
<title>verify_page&#45;&gt;verify</title>
<path fill="none" stroke="#868e96" stroke-width="0.8" d="M89.44,-266.11C104.17,-249.52 126.51,-224.36 143.08,-205.69"/>
<polygon fill="#868e96" stroke="#868e96" stroke-width="0.8" points="145.77,-207.93 149.79,-198.13 140.53,-203.29 145.77,-207.93"/>
</g>
<!-- verify_page&#45;&gt;registry -->
<g id="edge6" class="edge">
<title>verify_page&#45;&gt;registry</title>
<path fill="none" stroke="#868e96" stroke-width="0.8" d="M74.29,-266.35C74.81,-235.95 75.9,-172.34 76.53,-135.67"/>
<polygon fill="#868e96" stroke="#868e96" stroke-width="0.8" points="80.03,-135.28 76.71,-125.22 73.04,-135.16 80.03,-135.28"/>
</g>
<!-- base64url -->
<g id="node8" class="node">
<title>base64url</title>
<path fill="#dbe4ff" stroke="#4263eb" stroke-width="1.2" d="M88.5,-52C88.5,-52 35.5,-52 35.5,-52 29.5,-52 23.5,-46 23.5,-40 23.5,-40 23.5,-28 23.5,-28 23.5,-22 29.5,-16 35.5,-16 35.5,-16 88.5,-16 88.5,-16 94.5,-16 100.5,-22 100.5,-28 100.5,-28 100.5,-40 100.5,-40 100.5,-46 94.5,-52 88.5,-52"/>
<text text-anchor="middle" x="62" y="-37" font-family="Helvetica,sans-Serif" font-size="10.00">base64url.ts</text>
<text text-anchor="middle" x="62" y="-26" font-family="Helvetica,sans-Serif" font-size="10.00">(encoding)</text>
</g>
<!-- verify_page&#45;&gt;base64url -->
<g id="edge5" class="edge">
<title>verify_page&#45;&gt;base64url</title>
<path fill="none" stroke="#868e96" stroke-width="0.8" d="M63.85,-266.44C44.92,-232.41 7.84,-153.79 27,-89 29.96,-78.98 35.43,-69.08 41.18,-60.54"/>
<polygon fill="#868e96" stroke="#868e96" stroke-width="0.8" points="44.19,-62.35 47.18,-52.19 38.5,-58.27 44.19,-62.35"/>
</g>
<!-- validation -->
<g id="node7" class="node">
<title>validation</title>
<path fill="#dbe4ff" stroke="#4263eb" stroke-width="1.2" d="M201.5,-52C201.5,-52 148.5,-52 148.5,-52 142.5,-52 136.5,-46 136.5,-40 136.5,-40 136.5,-28 136.5,-28 136.5,-22 142.5,-16 148.5,-16 148.5,-16 201.5,-16 201.5,-16 207.5,-16 213.5,-22 213.5,-28 213.5,-28 213.5,-40 213.5,-40 213.5,-46 207.5,-52 201.5,-52"/>
<text text-anchor="middle" x="175" y="-37" font-family="Helvetica,sans-Serif" font-size="10.00">validation.ts</text>
<text text-anchor="middle" x="175" y="-26" font-family="Helvetica,sans-Serif" font-size="10.00">(date utils)</text>
</g>
<!-- credential&#45;&gt;validation -->
<g id="edge7" class="edge">
<title>credential&#45;&gt;validation</title>
<path fill="none" stroke="#868e96" stroke-width="0.8" d="M189.4,-88.81C187.23,-80.7 184.59,-70.84 182.17,-61.78"/>
<polygon fill="#868e96" stroke="#868e96" stroke-width="0.8" points="185.52,-60.78 179.56,-52.03 178.76,-62.59 185.52,-60.78"/>
</g>
<!-- noble -->
<g id="node18" class="node">
<title>noble</title>
<polygon fill="#d3f9d8" stroke="#2b8a3e" stroke-width="1.2" points="440.5,-52 351.5,-52 351.5,-48 347.5,-48 347.5,-44 351.5,-44 351.5,-24 347.5,-24 347.5,-20 351.5,-20 351.5,-16 440.5,-16 440.5,-52"/>
<polyline fill="none" stroke="#2b8a3e" stroke-width="1.2" points="351.5,-48 355.5,-48 355.5,-44 351.5,-44 "/>
<polyline fill="none" stroke="#2b8a3e" stroke-width="1.2" points="351.5,-24 355.5,-24 355.5,-20 351.5,-20 "/>
<text text-anchor="middle" x="396" y="-37" font-family="Helvetica,sans-Serif" font-size="10.00">@noble/curves</text>
<text text-anchor="middle" x="396" y="-26" font-family="Helvetica,sans-Serif" font-size="10.00">(Ed25519)</text>
</g>
<!-- crypto&#45;&gt;noble -->
<g id="edge10" class="edge">
<title>crypto&#45;&gt;noble</title>
<path fill="none" stroke="#868e96" stroke-width="0.8" d="M325.51,-88.81C337.51,-79.66 352.43,-68.26 365.46,-58.32"/>
<polygon fill="#868e96" stroke="#868e96" stroke-width="0.8" points="367.87,-60.88 373.69,-52.03 363.62,-55.32 367.87,-60.88"/>
</g>
<!-- registry&#45;&gt;validation -->
<g id="edge9" class="edge">
<title>registry&#45;&gt;validation</title>
<path fill="none" stroke="#868e96" stroke-width="0.8" d="M100.72,-88.81C113.48,-79.57 129.39,-68.04 143.21,-58.03"/>
<polygon fill="#868e96" stroke="#868e96" stroke-width="0.8" points="145.45,-60.73 151.5,-52.03 141.34,-55.06 145.45,-60.73"/>
</g>
<!-- registry&#45;&gt;base64url -->
<g id="edge8" class="edge">
<title>registry&#45;&gt;base64url</title>
<path fill="none" stroke="#868e96" stroke-width="0.8" d="M73.37,-88.81C71.67,-80.79 69.62,-71.05 67.72,-62.07"/>
<polygon fill="#868e96" stroke="#868e96" stroke-width="0.8" points="71.09,-61.09 65.6,-52.03 64.24,-62.54 71.09,-61.09"/>
</g>
<!-- canonical -->
<g id="node9" class="node">
<title>canonical</title>
<path fill="#dbe4ff" stroke="#4263eb" stroke-width="1.2" d="M218,-302.5C218,-302.5 146,-302.5 146,-302.5 140,-302.5 134,-296.5 134,-290.5 134,-290.5 134,-278.5 134,-278.5 134,-272.5 140,-266.5 146,-266.5 146,-266.5 218,-266.5 218,-266.5 224,-266.5 230,-272.5 230,-278.5 230,-278.5 230,-290.5 230,-290.5 230,-296.5 224,-302.5 218,-302.5"/>
<text text-anchor="middle" x="182" y="-287.5" font-family="Helvetica,sans-Serif" font-size="10.00">canonical.ts</text>
<text text-anchor="middle" x="182" y="-276.5" font-family="Helvetica,sans-Serif" font-size="10.00">(JSON serializer)</text>
</g>
<!-- vectors -->
<g id="node22" class="node">
<title>vectors</title>
<polygon fill="#e9ecef" stroke="#868e96" stroke-width="1.2" points="450,-198 364,-198 364,-162 456,-162 456,-192 450,-198"/>
<polyline fill="none" stroke="#868e96" stroke-width="1.2" points="450,-198 450,-192 "/>
<polyline fill="none" stroke="#868e96" stroke-width="1.2" points="456,-192 450,-192 "/>
<text text-anchor="middle" x="410" y="-183" font-family="Helvetica,sans-Serif" font-size="10.00">Cross&#45;language</text>
<text text-anchor="middle" x="410" y="-172" font-family="Helvetica,sans-Serif" font-size="10.00">test vectors</text>
</g>
<!-- canonical&#45;&gt;vectors -->
<g id="edge24" class="edge">
<title>canonical&#45;&gt;vectors</title>
<path fill="none" stroke="#868e96" stroke-width="0.8" stroke-dasharray="1,5" d="M226.23,-261.97C230.54,-259.93 234.85,-257.91 239,-256 279.78,-237.23 326.48,-216.82 360.76,-202.04"/>
<polygon fill="#868e96" stroke="#868e96" stroke-width="0.8" points="224.39,-258.97 216.87,-266.43 227.41,-265.28 224.39,-258.97"/>
<polygon fill="#868e96" stroke="#868e96" stroke-width="0.8" points="362.28,-205.19 370.08,-198.02 359.51,-198.76 362.28,-205.19"/>
</g>
<!-- go_gui -->
<g id="node10" class="node">
<title>go_gui</title>
<path fill="#fff3bf" stroke="#e67700" stroke-width="1.2" d="M878.5,-392.5C878.5,-392.5 789.5,-392.5 789.5,-392.5 783.5,-392.5 777.5,-386.5 777.5,-380.5 777.5,-380.5 777.5,-368.5 777.5,-368.5 777.5,-362.5 783.5,-356.5 789.5,-356.5 789.5,-356.5 878.5,-356.5 878.5,-356.5 884.5,-356.5 890.5,-362.5 890.5,-368.5 890.5,-368.5 890.5,-380.5 890.5,-380.5 890.5,-386.5 884.5,-392.5 878.5,-392.5"/>
<text text-anchor="middle" x="834" y="-377.5" font-family="Helvetica,sans-Serif" font-size="10.00">gui/</text>
<text text-anchor="middle" x="834" y="-366.5" font-family="Helvetica,sans-Serif" font-size="10.00">(Fyne GUI — 5 tabs)</text>
</g>
<!-- go_core -->
<g id="node11" class="node">
<title>go_core</title>
<path fill="#fff3bf" stroke="#e67700" stroke-width="1.2" d="M473.5,-305C473.5,-305 372.5,-305 372.5,-305 366.5,-305 360.5,-299 360.5,-293 360.5,-293 360.5,-276 360.5,-276 360.5,-270 366.5,-264 372.5,-264 372.5,-264 473.5,-264 473.5,-264 479.5,-264 485.5,-270 485.5,-276 485.5,-276 485.5,-293 485.5,-293 485.5,-299 479.5,-305 473.5,-305"/>
<text text-anchor="middle" x="423" y="-293" font-family="Helvetica,sans-Serif" font-size="10.00">core/</text>
<text text-anchor="middle" x="423" y="-282" font-family="Helvetica,sans-Serif" font-size="10.00">(credential, canonical,</text>
<text text-anchor="middle" x="423" y="-271" font-family="Helvetica,sans-Serif" font-size="10.00">registry, sign)</text>
</g>
<!-- go_gui&#45;&gt;go_core -->
<g id="edge11" class="edge">
<title>go_gui&#45;&gt;go_core</title>
<path fill="none" stroke="#868e96" stroke-width="0.8" d="M777.48,-366.47C682.76,-354.64 501.6,-331.83 495,-329.5 482.01,-324.92 468.85,-317.77 457.39,-310.55"/>
<polygon fill="#868e96" stroke="#868e96" stroke-width="0.8" points="459.28,-307.61 449,-305.06 455.45,-313.47 459.28,-307.61"/>
</g>
<!-- go_yubikey -->
<g id="node14" class="node">
<title>go_yubikey</title>
<path fill="#fff3bf" stroke="#e67700" stroke-width="1.2" d="M718,-305C718,-305 632,-305 632,-305 626,-305 620,-299 620,-293 620,-293 620,-276 620,-276 620,-270 626,-264 632,-264 632,-264 718,-264 718,-264 724,-264 730,-270 730,-276 730,-276 730,-293 730,-293 730,-299 724,-305 718,-305"/>
<text text-anchor="middle" x="675" y="-293" font-family="Helvetica,sans-Serif" font-size="10.00">yubikey/</text>
<text text-anchor="middle" x="675" y="-282" font-family="Helvetica,sans-Serif" font-size="10.00">(piv&#45;go PIV adapter</text>
<text text-anchor="middle" x="675" y="-271" font-family="Helvetica,sans-Serif" font-size="10.00">+ PIN cache)</text>
</g>
<!-- go_gui&#45;&gt;go_yubikey -->
<g id="edge12" class="edge">
<title>go_gui&#45;&gt;go_yubikey</title>
<path fill="none" stroke="#868e96" stroke-width="0.8" d="M793.97,-356.44C777.01,-348.79 757.24,-339.29 740,-329.5 730.11,-323.88 719.76,-317.25 710.3,-310.87"/>
<polygon fill="#868e96" stroke="#868e96" stroke-width="0.8" points="712.13,-307.88 701.91,-305.11 708.17,-313.65 712.13,-307.88"/>
</g>
<!-- go_qr -->
<g id="node15" class="node">
<title>go_qr</title>
<path fill="#fff3bf" stroke="#e67700" stroke-width="1.2" d="M922,-302.5C922,-302.5 866,-302.5 866,-302.5 860,-302.5 854,-296.5 854,-290.5 854,-290.5 854,-278.5 854,-278.5 854,-272.5 860,-266.5 866,-266.5 866,-266.5 922,-266.5 922,-266.5 928,-266.5 934,-272.5 934,-278.5 934,-278.5 934,-290.5 934,-290.5 934,-296.5 928,-302.5 922,-302.5"/>
<text text-anchor="middle" x="894" y="-287.5" font-family="Helvetica,sans-Serif" font-size="10.00">qr/</text>
<text text-anchor="middle" x="894" y="-276.5" font-family="Helvetica,sans-Serif" font-size="10.00">(SVG + PNG)</text>
</g>
<!-- go_gui&#45;&gt;go_qr -->
<g id="edge13" class="edge">
<title>go_gui&#45;&gt;go_qr</title>
<path fill="none" stroke="#868e96" stroke-width="0.8" d="M845.85,-356.11C854.62,-343.26 866.7,-325.54 876.57,-311.07"/>
<polygon fill="#868e96" stroke="#868e96" stroke-width="0.8" points="879.63,-312.78 882.37,-302.55 873.85,-308.84 879.63,-312.78"/>
</g>
<!-- go_log -->
<g id="node16" class="node">
<title>go_log</title>
<path fill="#fff3bf" stroke="#e67700" stroke-width="1.2" d="M1025.5,-302.5C1025.5,-302.5 964.5,-302.5 964.5,-302.5 958.5,-302.5 952.5,-296.5 952.5,-290.5 952.5,-290.5 952.5,-278.5 952.5,-278.5 952.5,-272.5 958.5,-266.5 964.5,-266.5 964.5,-266.5 1025.5,-266.5 1025.5,-266.5 1031.5,-266.5 1037.5,-272.5 1037.5,-278.5 1037.5,-278.5 1037.5,-290.5 1037.5,-290.5 1037.5,-296.5 1031.5,-302.5 1025.5,-302.5"/>
<text text-anchor="middle" x="995" y="-287.5" font-family="Helvetica,sans-Serif" font-size="10.00">log/</text>
<text text-anchor="middle" x="995" y="-276.5" font-family="Helvetica,sans-Serif" font-size="10.00">(issuance log)</text>
</g>
<!-- go_gui&#45;&gt;go_log -->
<g id="edge14" class="edge">
<title>go_gui&#45;&gt;go_log</title>
<path fill="none" stroke="#868e96" stroke-width="0.8" d="M885.8,-356.46C904.46,-349.33 925.27,-340.2 943,-329.5 952.26,-323.91 961.55,-316.69 969.66,-309.73"/>
<polygon fill="#868e96" stroke="#868e96" stroke-width="0.8" points="972.17,-312.18 977.33,-302.92 967.53,-306.94 972.17,-312.18"/>
</g>
<!-- go_registry -->
<g id="node17" class="node">
<title>go_registry</title>
<path fill="#fff3bf" stroke="#e67700" stroke-width="1.2" d="M823.5,-302.5C823.5,-302.5 760.5,-302.5 760.5,-302.5 754.5,-302.5 748.5,-296.5 748.5,-290.5 748.5,-290.5 748.5,-278.5 748.5,-278.5 748.5,-272.5 754.5,-266.5 760.5,-266.5 760.5,-266.5 823.5,-266.5 823.5,-266.5 829.5,-266.5 835.5,-272.5 835.5,-278.5 835.5,-278.5 835.5,-290.5 835.5,-290.5 835.5,-296.5 829.5,-302.5 823.5,-302.5"/>
<text text-anchor="middle" x="792" y="-287.5" font-family="Helvetica,sans-Serif" font-size="10.00">registry/</text>
<text text-anchor="middle" x="792" y="-276.5" font-family="Helvetica,sans-Serif" font-size="10.00">(remote fetch)</text>
</g>
<!-- go_gui&#45;&gt;go_registry -->
<g id="edge15" class="edge">
<title>go_gui&#45;&gt;go_registry</title>
<path fill="none" stroke="#868e96" stroke-width="0.8" d="M825.7,-356.11C819.68,-343.5 811.43,-326.21 804.6,-311.89"/>
<polygon fill="#868e96" stroke="#868e96" stroke-width="0.8" points="807.6,-310.07 800.14,-302.55 801.29,-313.08 807.6,-310.07"/>
</g>
<!-- fyne -->
<g id="node20" class="node">
<title>fyne</title>
<polygon fill="#d3f9d8" stroke="#2b8a3e" stroke-width="1.2" points="1110,-302.5 1056,-302.5 1056,-298.5 1052,-298.5 1052,-294.5 1056,-294.5 1056,-274.5 1052,-274.5 1052,-270.5 1056,-270.5 1056,-266.5 1110,-266.5 1110,-302.5"/>
<polyline fill="none" stroke="#2b8a3e" stroke-width="1.2" points="1056,-298.5 1060,-298.5 1060,-294.5 1056,-294.5 "/>
<polyline fill="none" stroke="#2b8a3e" stroke-width="1.2" points="1056,-274.5 1060,-274.5 1060,-270.5 1056,-270.5 "/>
<text text-anchor="middle" x="1083" y="-287.5" font-family="Helvetica,sans-Serif" font-size="10.00">fyne</text>
<text text-anchor="middle" x="1083" y="-276.5" font-family="Helvetica,sans-Serif" font-size="10.00">(GUI)</text>
</g>
<!-- go_gui&#45;&gt;fyne -->
<g id="edge20" class="edge">
<title>go_gui&#45;&gt;fyne</title>
<path fill="none" stroke="#868e96" stroke-width="0.8" d="M890.75,-366.46C929.82,-360.85 982.65,-351.71 1028,-338.5 1038.14,-335.55 1041.64,-335.96 1050,-329.5 1056.59,-324.41 1062.52,-317.68 1067.47,-311.03"/>
<polygon fill="#868e96" stroke="#868e96" stroke-width="0.8" points="1070.38,-312.97 1073.2,-302.76 1064.63,-308.98 1070.38,-312.97"/>
</g>
<!-- go_core&#45;&gt;vectors -->
<g id="edge23" class="edge">
<title>go_core&#45;&gt;vectors</title>
<path fill="none" stroke="#868e96" stroke-width="0.8" stroke-dasharray="1,5" d="M419.22,-253.73C417.41,-239.4 415.24,-222.33 413.47,-208.33"/>
<polygon fill="#868e96" stroke="#868e96" stroke-width="0.8" points="415.76,-254.26 420.49,-263.74 422.71,-253.38 415.76,-254.26"/>
<polygon fill="#868e96" stroke="#868e96" stroke-width="0.8" points="416.93,-207.8 412.2,-198.32 409.98,-208.68 416.93,-207.8"/>
<text text-anchor="middle" x="468" y="-234.8" font-family="Times,serif" font-size="14.00">byte&#45;identical</text>
<text text-anchor="middle" x="468" y="-219.8" font-family="Times,serif" font-size="14.00">output</text>
</g>
<!-- go_regmgr -->
<g id="node12" class="node">
<title>go_regmgr</title>
<path fill="#fff3bf" stroke="#e67700" stroke-width="1.2" d="M671.5,-392.5C671.5,-392.5 566.5,-392.5 566.5,-392.5 560.5,-392.5 554.5,-386.5 554.5,-380.5 554.5,-380.5 554.5,-368.5 554.5,-368.5 554.5,-362.5 560.5,-356.5 566.5,-356.5 566.5,-356.5 671.5,-356.5 671.5,-356.5 677.5,-356.5 683.5,-362.5 683.5,-368.5 683.5,-368.5 683.5,-380.5 683.5,-380.5 683.5,-386.5 677.5,-392.5 671.5,-392.5"/>
<text text-anchor="middle" x="619" y="-377.5" font-family="Helvetica,sans-Serif" font-size="10.00">regmgr/</text>
<text text-anchor="middle" x="619" y="-366.5" font-family="Helvetica,sans-Serif" font-size="10.00">(Registry Manager tab)</text>
</g>
<!-- go_regmgr&#45;&gt;go_core -->
<g id="edge16" class="edge">
<title>go_regmgr&#45;&gt;go_core</title>
<path fill="none" stroke="#868e96" stroke-width="0.8" d="M563.07,-356.41C541.4,-349.08 516.65,-339.82 495,-329.5 483.53,-324.03 471.57,-317.22 460.77,-310.6"/>
<polygon fill="#868e96" stroke="#868e96" stroke-width="0.8" points="462.34,-307.46 452,-305.12 458.63,-313.39 462.34,-307.46"/>
</g>
<!-- go_ghapi -->
<g id="node13" class="node">
<title>go_ghapi</title>
<path fill="#fff3bf" stroke="#e67700" stroke-width="1.2" d="M590,-305C590,-305 516,-305 516,-305 510,-305 504,-299 504,-293 504,-293 504,-276 504,-276 504,-270 510,-264 516,-264 516,-264 590,-264 590,-264 596,-264 602,-270 602,-276 602,-276 602,-293 602,-293 602,-299 596,-305 590,-305"/>
<text text-anchor="middle" x="553" y="-293" font-family="Helvetica,sans-Serif" font-size="10.00">ghapi/</text>
<text text-anchor="middle" x="553" y="-282" font-family="Helvetica,sans-Serif" font-size="10.00">(GitHub OAuth +</text>
<text text-anchor="middle" x="553" y="-271" font-family="Helvetica,sans-Serif" font-size="10.00">REST API)</text>
</g>
<!-- go_regmgr&#45;&gt;go_ghapi -->
<g id="edge17" class="edge">
<title>go_regmgr&#45;&gt;go_ghapi</title>
<path fill="none" stroke="#868e96" stroke-width="0.8" d="M605.96,-356.11C596.88,-344 584.56,-327.58 574.09,-313.62"/>
<polygon fill="#868e96" stroke="#868e96" stroke-width="0.8" points="576.66,-311.21 567.86,-305.31 571.06,-315.41 576.66,-311.21"/>
</g>
<!-- go_regmgr&#45;&gt;go_yubikey -->
<g id="edge18" class="edge">
<title>go_regmgr&#45;&gt;go_yubikey</title>
<path fill="none" stroke="#868e96" stroke-width="0.8" d="M630.06,-356.11C637.7,-344.12 648.03,-327.89 656.85,-314.02"/>
<polygon fill="#868e96" stroke="#868e96" stroke-width="0.8" points="659.98,-315.62 662.4,-305.31 654.07,-311.86 659.98,-315.62"/>
</g>
<!-- go_regmgr&#45;&gt;fyne -->
<g id="edge21" class="edge">
<title>go_regmgr&#45;&gt;fyne</title>
<path fill="none" stroke="#868e96" stroke-width="0.8" d="M683.58,-365.94C710.04,-362.9 740.98,-359.43 769,-356.5 800.2,-353.23 1022.65,-344.85 1050,-329.5 1057.61,-325.23 1063.99,-318.4 1069.06,-311.38"/>
<polygon fill="#868e96" stroke="#868e96" stroke-width="0.8" points="1072.26,-312.87 1074.75,-302.57 1066.38,-309.06 1072.26,-312.87"/>
</g>
<!-- keyring -->
<g id="node21" class="node">
<title>keyring</title>
<polygon fill="#d3f9d8" stroke="#2b8a3e" stroke-width="1.2" points="595,-198 511,-198 511,-194 507,-194 507,-190 511,-190 511,-170 507,-170 507,-166 511,-166 511,-162 595,-162 595,-198"/>
<polyline fill="none" stroke="#2b8a3e" stroke-width="1.2" points="511,-194 515,-194 515,-190 511,-190 "/>
<polyline fill="none" stroke="#2b8a3e" stroke-width="1.2" points="511,-170 515,-170 515,-166 511,-166 "/>
<text text-anchor="middle" x="553" y="-183" font-family="Helvetica,sans-Serif" font-size="10.00">go&#45;keyring</text>
<text text-anchor="middle" x="553" y="-172" font-family="Helvetica,sans-Serif" font-size="10.00">(OS keychain)</text>
</g>
<!-- go_ghapi&#45;&gt;keyring -->
<g id="edge22" class="edge">
<title>go_ghapi&#45;&gt;keyring</title>
<path fill="none" stroke="#868e96" stroke-width="0.8" d="M553,-263.74C553,-248.03 553,-225.89 553,-208.46"/>
<polygon fill="#868e96" stroke="#868e96" stroke-width="0.8" points="556.5,-208.32 553,-198.32 549.5,-208.32 556.5,-208.32"/>
</g>
<!-- pivgo -->
<g id="node19" class="node">
<title>pivgo</title>
<polygon fill="#d3f9d8" stroke="#2b8a3e" stroke-width="1.2" points="702,-198 648,-198 648,-194 644,-194 644,-190 648,-190 648,-170 644,-170 644,-166 648,-166 648,-162 702,-162 702,-198"/>
<polyline fill="none" stroke="#2b8a3e" stroke-width="1.2" points="648,-194 652,-194 652,-190 648,-190 "/>
<polyline fill="none" stroke="#2b8a3e" stroke-width="1.2" points="648,-170 652,-170 652,-166 648,-166 "/>
<text text-anchor="middle" x="675" y="-183" font-family="Helvetica,sans-Serif" font-size="10.00">piv&#45;go</text>
<text text-anchor="middle" x="675" y="-172" font-family="Helvetica,sans-Serif" font-size="10.00">(PCSC)</text>
</g>
<!-- go_yubikey&#45;&gt;pivgo -->
<g id="edge19" class="edge">
<title>go_yubikey&#45;&gt;pivgo</title>
<path fill="none" stroke="#868e96" stroke-width="0.8" d="M675,-263.74C675,-248.03 675,-225.89 675,-208.46"/>
<polygon fill="#868e96" stroke="#868e96" stroke-width="0.8" points="678.5,-208.32 675,-198.32 671.5,-208.32 678.5,-208.32"/>
</g>
</g>
</svg>
