<?xml version="1.0" encoding="UTF-8" standalone="no"?>
<!DOCTYPE svg PUBLIC "-//W3C//DTD SVG 1.1//EN"
 "http://www.w3.org/Graphics/SVG/1.1/DTD/svg11.dtd">
<!-- Generated by graphviz version 2.42.4 (0)
 -->
<!-- Title: verification_flow Pages: 1 -->
<svg width="394pt" height="787pt"
 viewBox="0.00 0.00 393.52 787.23" xmlns="http://www.w3.org/2000/svg" xmlns:xlink="http://www.w3.org/1999/xlink">
<g id="graph0" class="graph" transform="scale(1 1) rotate(0) translate(4 783.23)">
<title>verification_flow</title>
<g id="clust1" class="cluster">
<title>cluster_browser</title>
<path fill="transparent" stroke="#868e96" stroke-dasharray="5,2" d="M67.02,-100.23C67.02,-100.23 273.02,-100.23 273.02,-100.23 279.02,-100.23 285.02,-106.23 285.02,-112.23 285.02,-112.23 285.02,-631.23 285.02,-631.23 285.02,-637.23 279.02,-643.23 273.02,-643.23 273.02,-643.23 67.02,-643.23 67.02,-643.23 61.02,-643.23 55.02,-637.23 55.02,-631.23 55.02,-631.23 55.02,-112.23 55.02,-112.23 55.02,-106.23 61.02,-100.23 67.02,-100.23"/>
<text text-anchor="middle" x="170.02" y="-631.23" font-family="Helvetica,sans-Serif" font-size="10.00" fill="#495057">Verification Page (client&#45;side, GitHub Pages)</text>
</g>
<!-- qr -->
<g id="node1" class="node">
<title>qr</title>
<polygon fill="#ffe3e3" stroke="#495057" stroke-width="1.2" points="222.52,-779.23 149.52,-779.23 149.52,-743.23 228.52,-743.23 228.52,-773.23 222.52,-779.23"/>
<polyline fill="none" stroke="#495057" stroke-width="1.2" points="222.52,-779.23 222.52,-773.23 "/>
<polyline fill="none" stroke="#495057" stroke-width="1.2" points="228.52,-773.23 222.52,-773.23 "/>
<text text-anchor="middle" x="189.02" y="-764.43" font-family="Helvetica,sans-Serif" font-size="11.00">QR Code</text>
<text text-anchor="middle" x="189.02" y="-752.43" font-family="Helvetica,sans-Serif" font-size="11.00">on Diploma</text>
</g>
<!-- scan -->
<g id="node2" class="node">
<title>scan</title>
<path fill="#dbe4ff" stroke="#495057" stroke-width="1.2" d="M233.02,-706.23C233.02,-706.23 145.02,-706.23 145.02,-706.23 139.02,-706.23 133.02,-700.23 133.02,-694.23 133.02,-694.23 133.02,-682.23 133.02,-682.23 133.02,-676.23 139.02,-670.23 145.02,-670.23 145.02,-670.23 233.02,-670.23 233.02,-670.23 239.02,-670.23 245.02,-676.23 245.02,-682.23 245.02,-682.23 245.02,-694.23 245.02,-694.23 245.02,-700.23 239.02,-706.23 233.02,-706.23"/>
<text text-anchor="middle" x="189.02" y="-685.43" font-family="Helvetica,sans-Serif" font-size="11.00">Scan → open URL</text>
</g>
<!-- qr&#45;&gt;scan -->
<g id="edge1" class="edge">
<title>qr&#45;&gt;scan</title>
<path fill="none" stroke="#6c757d" d="M189.02,-743.04C189.02,-735.01 189.02,-725.27 189.02,-716.29"/>
<polygon fill="#6c757d" stroke="#6c757d" points="192.52,-716.25 189.02,-706.25 185.52,-716.25 192.52,-716.25"/>
</g>
<!-- parse -->
<g id="node3" class="node">
<title>parse</title>
<path fill="#f8f9fa" stroke="#495057" stroke-width="1.2" d="M242.52,-616.23C242.52,-616.23 135.52,-616.23 135.52,-616.23 129.52,-616.23 123.52,-610.23 123.52,-604.23 123.52,-604.23 123.52,-592.23 123.52,-592.23 123.52,-586.23 129.52,-580.23 135.52,-580.23 135.52,-580.23 242.52,-580.23 242.52,-580.23 248.52,-580.23 254.52,-586.23 254.52,-592.23 254.52,-592.23 254.52,-604.23 254.52,-604.23 254.52,-610.23 248.52,-616.23 242.52,-616.23"/>
<text text-anchor="middle" x="189.02" y="-601.43" font-family="Helvetica,sans-Serif" font-size="11.00">1. Parse URL params</text>
<text text-anchor="middle" x="189.02" y="-589.43" font-family="Helvetica,sans-Serif" font-size="11.00">?p=...&amp;s=...</text>
</g>
<!-- scan&#45;&gt;parse -->
<g id="edge2" class="edge">
<title>scan&#45;&gt;parse</title>
<path fill="none" stroke="#6c757d" d="M189.02,-669.84C189.02,-657.47 189.02,-640.59 189.02,-626.45"/>
<polygon fill="#6c757d" stroke="#6c757d" points="192.52,-626.28 189.02,-616.28 185.52,-626.28 192.52,-626.28"/>
</g>
<!-- decode -->
<g id="node4" class="node">
<title>decode</title>
<path fill="#f8f9fa" stroke="#495057" stroke-width="1.2" d="M265.02,-543.23C265.02,-543.23 113.02,-543.23 113.02,-543.23 107.02,-543.23 101.02,-537.23 101.02,-531.23 101.02,-531.23 101.02,-519.23 101.02,-519.23 101.02,-513.23 107.02,-507.23 113.02,-507.23 113.02,-507.23 265.02,-507.23 265.02,-507.23 271.02,-507.23 277.02,-513.23 277.02,-519.23 277.02,-519.23 277.02,-531.23 277.02,-531.23 277.02,-537.23 271.02,-543.23 265.02,-543.23"/>
<text text-anchor="middle" x="189.02" y="-528.43" font-family="Helvetica,sans-Serif" font-size="11.00">2. Base64URL decode</text>
<text text-anchor="middle" x="189.02" y="-516.43" font-family="Helvetica,sans-Serif" font-size="11.00">→ payload + signature bytes</text>
</g>
<!-- parse&#45;&gt;decode -->
<g id="edge3" class="edge">
<title>parse&#45;&gt;decode</title>
<path fill="none" stroke="#6c757d" d="M189.02,-580.04C189.02,-572.01 189.02,-562.27 189.02,-553.29"/>
<polygon fill="#6c757d" stroke="#6c757d" points="192.52,-553.25 189.02,-543.25 185.52,-553.25 192.52,-553.25"/>
</g>
<!-- fetch_reg -->
<g id="node5" class="node">
<title>fetch_reg</title>
<path fill="#f8f9fa" stroke="#495057" stroke-width="1.2" d="M238.52,-470.23C238.52,-470.23 145.52,-470.23 145.52,-470.23 139.52,-470.23 133.52,-464.23 133.52,-458.23 133.52,-458.23 133.52,-446.23 133.52,-446.23 133.52,-440.23 139.52,-434.23 145.52,-434.23 145.52,-434.23 238.52,-434.23 238.52,-434.23 244.52,-434.23 250.52,-440.23 250.52,-446.23 250.52,-446.23 250.52,-458.23 250.52,-458.23 250.52,-464.23 244.52,-470.23 238.52,-470.23"/>
<text text-anchor="middle" x="192.02" y="-455.43" font-family="Helvetica,sans-Serif" font-size="11.00">3. Fetch</text>
<text text-anchor="middle" x="192.02" y="-443.43" font-family="Helvetica,sans-Serif" font-size="11.00">/keys/registry.json</text>
</g>
<!-- decode&#45;&gt;fetch_reg -->
<g id="edge4" class="edge">
<title>decode&#45;&gt;fetch_reg</title>
<path fill="none" stroke="#6c757d" d="M189.75,-507.04C190.09,-499.01 190.5,-489.27 190.88,-480.29"/>
<polygon fill="#6c757d" stroke="#6c757d" points="194.38,-480.39 191.3,-470.25 187.39,-480.1 194.38,-480.39"/>
</g>
<!-- parse_cred -->
<g id="node6" class="node">
<title>parse_cred</title>
<path fill="#f8f9fa" stroke="#495057" stroke-width="1.2" d="M241.02,-384.23C241.02,-384.23 143.02,-384.23 143.02,-384.23 137.02,-384.23 131.02,-378.23 131.02,-372.23 131.02,-372.23 131.02,-360.23 131.02,-360.23 131.02,-354.23 137.02,-348.23 143.02,-348.23 143.02,-348.23 241.02,-348.23 241.02,-348.23 247.02,-348.23 253.02,-354.23 253.02,-360.23 253.02,-360.23 253.02,-372.23 253.02,-372.23 253.02,-378.23 247.02,-384.23 241.02,-384.23"/>
<text text-anchor="middle" x="192.02" y="-369.43" font-family="Helvetica,sans-Serif" font-size="11.00">4. Parse + validate</text>
<text text-anchor="middle" x="192.02" y="-357.43" font-family="Helvetica,sans-Serif" font-size="11.00">credential JSON</text>
</g>
<!-- fetch_reg&#45;&gt;parse_cred -->
<g id="edge6" class="edge">
<title>fetch_reg&#45;&gt;parse_cred</title>
<path fill="none" stroke="#6c757d" d="M192.02,-433.82C192.02,-422.48 192.02,-407.45 192.02,-394.54"/>
<polygon fill="#6c757d" stroke="#6c757d" points="195.52,-394.32 192.02,-384.32 188.52,-394.32 195.52,-394.32"/>
</g>
<!-- registry -->
<g id="node10" class="node">
<title>registry</title>
<path fill="#d3f9d8" stroke="#495057" stroke-width="1.2" d="M385.52,-384.23C385.52,-386.43 364.68,-388.23 339.02,-388.23 313.37,-388.23 292.52,-386.43 292.52,-384.23 292.52,-384.23 292.52,-348.23 292.52,-348.23 292.52,-346.02 313.37,-344.23 339.02,-344.23 364.68,-344.23 385.52,-346.02 385.52,-348.23 385.52,-348.23 385.52,-384.23 385.52,-384.23"/>
<path fill="none" stroke="#495057" stroke-width="1.2" d="M385.52,-384.23C385.52,-382.02 364.68,-380.23 339.02,-380.23 313.37,-380.23 292.52,-382.02 292.52,-384.23"/>
<text text-anchor="middle" x="339.02" y="-369.43" font-family="Helvetica,sans-Serif" font-size="11.00">Key Registry</text>
<text text-anchor="middle" x="339.02" y="-357.43" font-family="Helvetica,sans-Serif" font-size="11.00">(registry.json)</text>
</g>
<!-- fetch_reg&#45;&gt;registry -->
<g id="edge5" class="edge">
<title>fetch_reg&#45;&gt;registry</title>
<path fill="none" stroke="#6c757d" stroke-dasharray="5,2" d="M231.08,-428.91C250.68,-417.71 274.51,-404.09 294.78,-392.51"/>
<polygon fill="#6c757d" stroke="#6c757d" points="229.07,-426.02 222.13,-434.02 232.55,-432.1 229.07,-426.02"/>
<polygon fill="#6c757d" stroke="#6c757d" points="296.58,-395.51 303.52,-387.51 293.11,-389.43 296.58,-395.51"/>
<text text-anchor="middle" x="283.52" y="-409.03" font-family="Helvetica,sans-Serif" font-size="9.00">HTTPS</text>
</g>
<!-- verify_sig -->
<g id="node7" class="node">
<title>verify_sig</title>
<path fill="#f8f9fa" stroke="#495057" stroke-width="1.2" d="M264.52,-307.23C264.52,-307.23 119.52,-307.23 119.52,-307.23 113.52,-307.23 107.52,-301.23 107.52,-295.23 107.52,-295.23 107.52,-275.23 107.52,-275.23 107.52,-269.23 113.52,-263.23 119.52,-263.23 119.52,-263.23 264.52,-263.23 264.52,-263.23 270.52,-263.23 276.52,-269.23 276.52,-275.23 276.52,-275.23 276.52,-295.23 276.52,-295.23 276.52,-301.23 270.52,-307.23 264.52,-307.23"/>
<text text-anchor="middle" x="192.02" y="-294.43" font-family="Helvetica,sans-Serif" font-size="11.00">5. Verify Ed25519 signature</text>
<text text-anchor="middle" x="192.02" y="-282.43" font-family="Helvetica,sans-Serif" font-size="11.00">against all registry keys</text>
<text text-anchor="middle" x="192.02" y="-270.43" font-family="Helvetica,sans-Serif" font-size="11.00">(single pass)</text>
</g>
<!-- parse_cred&#45;&gt;verify_sig -->
<g id="edge7" class="edge">
<title>parse_cred&#45;&gt;verify_sig</title>
<path fill="none" stroke="#6c757d" d="M192.02,-348.08C192.02,-339.1 192.02,-327.81 192.02,-317.35"/>
<polygon fill="#6c757d" stroke="#6c757d" points="195.52,-317.27 192.02,-307.27 188.52,-317.27 195.52,-317.27"/>
</g>
<!-- derive -->
<g id="node8" class="node">
<title>derive</title>
<path fill="#f8f9fa" stroke="#495057" stroke-width="1.2" d="M173.52,-217.23C173.52,-217.23 76.52,-217.23 76.52,-217.23 70.52,-217.23 64.52,-211.23 64.52,-205.23 64.52,-205.23 64.52,-193.23 64.52,-193.23 64.52,-187.23 70.52,-181.23 76.52,-181.23 76.52,-181.23 173.52,-181.23 173.52,-181.23 179.52,-181.23 185.52,-187.23 185.52,-193.23 185.52,-193.23 185.52,-205.23 185.52,-205.23 185.52,-211.23 179.52,-217.23 173.52,-217.23"/>
<text text-anchor="middle" x="125.02" y="-202.43" font-family="Helvetica,sans-Serif" font-size="11.00">6. Derive authority</text>
<text text-anchor="middle" x="125.02" y="-190.43" font-family="Helvetica,sans-Serif" font-size="11.00">from matching key</text>
</g>
<!-- verify_sig&#45;&gt;derive -->
<g id="edge8" class="edge">
<title>verify_sig&#45;&gt;derive</title>
<path fill="none" stroke="#6c757d" d="M169.92,-263.07C164.49,-257.47 158.85,-251.29 154.02,-245.23 149.25,-239.23 144.54,-232.42 140.35,-225.95"/>
<polygon fill="#6c757d" stroke="#6c757d" points="143.29,-224.05 135,-217.44 137.36,-227.77 143.29,-224.05"/>
<text text-anchor="middle" x="185.52" y="-238.03" font-family="Helvetica,sans-Serif" font-size="9.00">matching key</text>
</g>
<!-- render -->
<g id="node9" class="node">
<title>render</title>
<path fill="#f8f9fa" stroke="#495057" stroke-width="1.2" d="M214.52,-144.23C214.52,-144.23 133.52,-144.23 133.52,-144.23 127.52,-144.23 121.52,-138.23 121.52,-132.23 121.52,-132.23 121.52,-120.23 121.52,-120.23 121.52,-114.23 127.52,-108.23 133.52,-108.23 133.52,-108.23 214.52,-108.23 214.52,-108.23 220.52,-108.23 226.52,-114.23 226.52,-120.23 226.52,-120.23 226.52,-132.23 226.52,-132.23 226.52,-138.23 220.52,-144.23 214.52,-144.23"/>
<text text-anchor="middle" x="174.02" y="-123.43" font-family="Helvetica,sans-Serif" font-size="11.00">7. Render result</text>
</g>
<!-- verify_sig&#45;&gt;render -->
<g id="edge11" class="edge">
<title>verify_sig&#45;&gt;render</title>
<path fill="none" stroke="#6c757d" stroke-dasharray="5,2" d="M210.27,-262.75C215.26,-254.51 218.86,-244.79 217.02,-235.23 211.45,-206.18 198.17,-174.99 187.83,-153.64"/>
<polygon fill="#6c757d" stroke="#6c757d" points="190.9,-151.96 183.32,-144.56 184.63,-155.07 190.9,-151.96"/>
<text text-anchor="middle" x="234.02" y="-197.03" font-family="Helvetica,sans-Serif" font-size="9.00">no match</text>
</g>
<!-- derive&#45;&gt;render -->
<g id="edge9" class="edge">
<title>derive&#45;&gt;render</title>
<path fill="none" stroke="#6c757d" d="M136.89,-181.04C142.78,-172.49 150.03,-161.99 156.55,-152.55"/>
<polygon fill="#6c757d" stroke="#6c757d" points="159.47,-154.47 162.27,-144.25 153.71,-150.5 159.47,-154.47"/>
</g>
<!-- success -->
<g id="node11" class="node">
<title>success</title>
<ellipse fill="#b2f2bb" stroke="#495057" stroke-width="1.2" cx="82.02" cy="-31.11" rx="82.05" ry="31.23"/>
<text text-anchor="middle" x="82.02" y="-40.31" font-family="Helvetica,sans-Serif" font-size="11.00">Verified</text>
<text text-anchor="middle" x="82.02" y="-28.31" font-family="Helvetica,sans-Serif" font-size="11.00">(credential details</text>
<text text-anchor="middle" x="82.02" y="-16.31" font-family="Helvetica,sans-Serif" font-size="11.00">+ authority)</text>
</g>
<!-- render&#45;&gt;success -->
<g id="edge10" class="edge">
<title>render&#45;&gt;success</title>
<path fill="none" stroke="#6c757d" d="M157.15,-108.15C145.93,-96.79 130.78,-81.46 117.03,-67.54"/>
<polygon fill="#6c757d" stroke="#6c757d" points="119.51,-65.07 109.99,-60.42 114.53,-69.99 119.51,-65.07"/>
<text text-anchor="middle" x="149.02" y="-83.03" font-family="Helvetica,sans-Serif" font-size="9.00">valid</text>
</g>
<!-- failure -->
<g id="node12" class="node">
<title>failure</title>
<ellipse fill="#ffc9c9" stroke="#495057" stroke-width="1.2" cx="266.02" cy="-31.11" rx="84.29" ry="22.76"/>
<text text-anchor="middle" x="266.02" y="-34.31" font-family="Helvetica,sans-Serif" font-size="11.00">Rejected</text>
<text text-anchor="middle" x="266.02" y="-22.31" font-family="Helvetica,sans-Serif" font-size="11.00">(reason displayed)</text>
</g>
<!-- render&#45;&gt;failure -->
<g id="edge12" class="edge">
<title>render&#45;&gt;failure</title>
<path fill="none" stroke="#6c757d" d="M190.9,-108.15C204,-94.88 222.47,-76.19 237.81,-60.66"/>
<polygon fill="#6c757d" stroke="#6c757d" points="240.52,-62.91 245.06,-53.33 235.54,-57.99 240.52,-62.91"/>
<text text-anchor="middle" x="232.02" y="-83.03" font-family="Helvetica,sans-Serif" font-size="9.00">invalid</text>
</g>
</g>
</svg>
