<?xml version="1.0" encoding="UTF-8" standalone="no"?>
<!DOCTYPE svg PUBLIC "-//W3C//DTD SVG 1.1//EN"
 "http://www.w3.org/Graphics/SVG/1.1/DTD/svg11.dtd">
<!-- Generated by graphviz version 2.42.4 (0)
 -->
<!-- Title: verification_flow Pages: 1 -->
<svg width="375pt" height="826pt"
 viewBox="0.00 0.00 375.06 826.25" xmlns="http://www.w3.org/2000/svg" xmlns:xlink="http://www.w3.org/1999/xlink">
<g id="graph0" class="graph" transform="scale(1 1) rotate(0) translate(4 822.25)">
<title>verification_flow</title>
<g id="clust1" class="cluster">
<title>cluster_browser</title>
<path fill="transparent" stroke="#868e96" stroke-dasharray="5,2" d="M48.56,-83.25C48.56,-83.25 254.56,-83.25 254.56,-83.25 260.56,-83.25 266.56,-89.25 266.56,-95.25 266.56,-95.25 266.56,-670.25 266.56,-670.25 266.56,-676.25 260.56,-682.25 254.56,-682.25 254.56,-682.25 48.56,-682.25 48.56,-682.25 42.56,-682.25 36.56,-676.25 36.56,-670.25 36.56,-670.25 36.56,-95.25 36.56,-95.25 36.56,-89.25 42.56,-83.25 48.56,-83.25"/>
<text text-anchor="middle" x="151.56" y="-670.25" font-family="Helvetica,sans-Serif" font-size="10.00" fill="#495057">Verification Page (client&#45;side, GitHub Pages)</text>
</g>
<!-- qr -->
<g id="node1" class="node">
<title>qr</title>
<polygon fill="#ffe3e3" stroke="#495057" stroke-width="1.2" points="204.06,-818.25 131.06,-818.25 131.06,-782.25 210.06,-782.25 210.06,-812.25 204.06,-818.25"/>
<polyline fill="none" stroke="#495057" stroke-width="1.2" points="204.06,-818.25 204.06,-812.25 "/>
<polyline fill="none" stroke="#495057" stroke-width="1.2" points="210.06,-812.25 204.06,-812.25 "/>
<text text-anchor="middle" x="170.56" y="-803.45" font-family="Helvetica,sans-Serif" font-size="11.00">QR Code</text>
<text text-anchor="middle" x="170.56" y="-791.45" font-family="Helvetica,sans-Serif" font-size="11.00">on Diploma</text>
</g>
<!-- scan -->
<g id="node2" class="node">
<title>scan</title>
<path fill="#dbe4ff" stroke="#495057" stroke-width="1.2" d="M214.56,-745.25C214.56,-745.25 126.56,-745.25 126.56,-745.25 120.56,-745.25 114.56,-739.25 114.56,-733.25 114.56,-733.25 114.56,-721.25 114.56,-721.25 114.56,-715.25 120.56,-709.25 126.56,-709.25 126.56,-709.25 214.56,-709.25 214.56,-709.25 220.56,-709.25 226.56,-715.25 226.56,-721.25 226.56,-721.25 226.56,-733.25 226.56,-733.25 226.56,-739.25 220.56,-745.25 214.56,-745.25"/>
<text text-anchor="middle" x="170.56" y="-724.45" font-family="Helvetica,sans-Serif" font-size="11.00">Scan → open URL</text>
</g>
<!-- qr&#45;&gt;scan -->
<g id="edge1" class="edge">
<title>qr&#45;&gt;scan</title>
<path fill="none" stroke="#6c757d" d="M170.56,-782.07C170.56,-774.04 170.56,-764.3 170.56,-755.32"/>
<polygon fill="#6c757d" stroke="#6c757d" points="174.06,-755.28 170.56,-745.28 167.06,-755.28 174.06,-755.28"/>
</g>
<!-- parse -->
<g id="node3" class="node">
<title>parse</title>
<path fill="#f8f9fa" stroke="#495057" stroke-width="1.2" d="M224.06,-655.25C224.06,-655.25 117.06,-655.25 117.06,-655.25 111.06,-655.25 105.06,-649.25 105.06,-643.25 105.06,-643.25 105.06,-631.25 105.06,-631.25 105.06,-625.25 111.06,-619.25 117.06,-619.25 117.06,-619.25 224.06,-619.25 224.06,-619.25 230.06,-619.25 236.06,-625.25 236.06,-631.25 236.06,-631.25 236.06,-643.25 236.06,-643.25 236.06,-649.25 230.06,-655.25 224.06,-655.25"/>
<text text-anchor="middle" x="170.56" y="-640.45" font-family="Helvetica,sans-Serif" font-size="11.00">1. Parse URL params</text>
<text text-anchor="middle" x="170.56" y="-628.45" font-family="Helvetica,sans-Serif" font-size="11.00">?p=...&amp;s=...</text>
</g>
<!-- scan&#45;&gt;parse -->
<g id="edge2" class="edge">
<title>scan&#45;&gt;parse</title>
<path fill="none" stroke="#6c757d" d="M170.56,-708.87C170.56,-696.5 170.56,-679.62 170.56,-665.47"/>
<polygon fill="#6c757d" stroke="#6c757d" points="174.06,-665.31 170.56,-655.31 167.06,-665.31 174.06,-665.31"/>
</g>
<!-- decode -->
<g id="node4" class="node">
<title>decode</title>
<path fill="#f8f9fa" stroke="#495057" stroke-width="1.2" d="M246.56,-582.25C246.56,-582.25 94.56,-582.25 94.56,-582.25 88.56,-582.25 82.56,-576.25 82.56,-570.25 82.56,-570.25 82.56,-558.25 82.56,-558.25 82.56,-552.25 88.56,-546.25 94.56,-546.25 94.56,-546.25 246.56,-546.25 246.56,-546.25 252.56,-546.25 258.56,-552.25 258.56,-558.25 258.56,-558.25 258.56,-570.25 258.56,-570.25 258.56,-576.25 252.56,-582.25 246.56,-582.25"/>
<text text-anchor="middle" x="170.56" y="-567.45" font-family="Helvetica,sans-Serif" font-size="11.00">2. Base64URL decode</text>
<text text-anchor="middle" x="170.56" y="-555.45" font-family="Helvetica,sans-Serif" font-size="11.00">→ payload + signature bytes</text>
</g>
<!-- parse&#45;&gt;decode -->
<g id="edge3" class="edge">
<title>parse&#45;&gt;decode</title>
<path fill="none" stroke="#6c757d" d="M170.56,-619.07C170.56,-611.04 170.56,-601.3 170.56,-592.32"/>
<polygon fill="#6c757d" stroke="#6c757d" points="174.06,-592.28 170.56,-582.28 167.06,-592.28 174.06,-592.28"/>
</g>
<!-- fetch_reg -->
<g id="node5" class="node">
<title>fetch_reg</title>
<path fill="#f8f9fa" stroke="#495057" stroke-width="1.2" d="M226.06,-509.25C226.06,-509.25 133.06,-509.25 133.06,-509.25 127.06,-509.25 121.06,-503.25 121.06,-497.25 121.06,-497.25 121.06,-485.25 121.06,-485.25 121.06,-479.25 127.06,-473.25 133.06,-473.25 133.06,-473.25 226.06,-473.25 226.06,-473.25 232.06,-473.25 238.06,-479.25 238.06,-485.25 238.06,-485.25 238.06,-497.25 238.06,-497.25 238.06,-503.25 232.06,-509.25 226.06,-509.25"/>
<text text-anchor="middle" x="179.56" y="-494.45" font-family="Helvetica,sans-Serif" font-size="11.00">3. Fetch</text>
<text text-anchor="middle" x="179.56" y="-482.45" font-family="Helvetica,sans-Serif" font-size="11.00">/keys/registry.json</text>
</g>
<!-- decode&#45;&gt;fetch_reg -->
<g id="edge4" class="edge">
<title>decode&#45;&gt;fetch_reg</title>
<path fill="none" stroke="#6c757d" d="M172.74,-546.07C173.76,-538.04 174.99,-528.3 176.13,-519.32"/>
<polygon fill="#6c757d" stroke="#6c757d" points="179.62,-519.64 177.4,-509.28 172.67,-518.76 179.62,-519.64"/>
</g>
<!-- parse_cred -->
<g id="node6" class="node">
<title>parse_cred</title>
<path fill="#f8f9fa" stroke="#495057" stroke-width="1.2" d="M228.56,-423.25C228.56,-423.25 130.56,-423.25 130.56,-423.25 124.56,-423.25 118.56,-417.25 118.56,-411.25 118.56,-411.25 118.56,-399.25 118.56,-399.25 118.56,-393.25 124.56,-387.25 130.56,-387.25 130.56,-387.25 228.56,-387.25 228.56,-387.25 234.56,-387.25 240.56,-393.25 240.56,-399.25 240.56,-399.25 240.56,-411.25 240.56,-411.25 240.56,-417.25 234.56,-423.25 228.56,-423.25"/>
<text text-anchor="middle" x="179.56" y="-408.45" font-family="Helvetica,sans-Serif" font-size="11.00">4. Parse + validate</text>
<text text-anchor="middle" x="179.56" y="-396.45" font-family="Helvetica,sans-Serif" font-size="11.00">credential JSON</text>
</g>
<!-- fetch_reg&#45;&gt;parse_cred -->
<g id="edge6" class="edge">
<title>fetch_reg&#45;&gt;parse_cred</title>
<path fill="none" stroke="#6c757d" d="M179.56,-472.85C179.56,-461.51 179.56,-446.48 179.56,-433.57"/>
<polygon fill="#6c757d" stroke="#6c757d" points="183.06,-433.35 179.56,-423.35 176.06,-433.35 183.06,-433.35"/>
</g>
<!-- registry -->
<g id="node11" class="node">
<title>registry</title>
<path fill="#d3f9d8" stroke="#495057" stroke-width="1.2" d="M367.06,-423.25C367.06,-425.46 346.22,-427.25 320.56,-427.25 294.9,-427.25 274.06,-425.46 274.06,-423.25 274.06,-423.25 274.06,-387.25 274.06,-387.25 274.06,-385.05 294.9,-383.25 320.56,-383.25 346.22,-383.25 367.06,-385.05 367.06,-387.25 367.06,-387.25 367.06,-423.25 367.06,-423.25"/>
<path fill="none" stroke="#495057" stroke-width="1.2" d="M367.06,-423.25C367.06,-421.05 346.22,-419.25 320.56,-419.25 294.9,-419.25 274.06,-421.05 274.06,-423.25"/>
<text text-anchor="middle" x="320.56" y="-408.45" font-family="Helvetica,sans-Serif" font-size="11.00">Key Registry</text>
<text text-anchor="middle" x="320.56" y="-396.45" font-family="Helvetica,sans-Serif" font-size="11.00">(registry.json)</text>
</g>
<!-- fetch_reg&#45;&gt;registry -->
<g id="edge5" class="edge">
<title>fetch_reg&#45;&gt;registry</title>
<path fill="none" stroke="#6c757d" stroke-dasharray="5,2" d="M217.31,-467.77C235.98,-456.64 258.6,-443.17 277.9,-431.67"/>
<polygon fill="#6c757d" stroke="#6c757d" points="215.23,-464.93 208.43,-473.05 218.82,-470.94 215.23,-464.93"/>
<polygon fill="#6c757d" stroke="#6c757d" points="279.71,-434.67 286.51,-426.54 276.13,-428.65 279.71,-434.67"/>
<text text-anchor="middle" x="268.06" y="-448.05" font-family="Helvetica,sans-Serif" font-size="9.00">HTTPS</text>
</g>
<!-- find_keys -->
<g id="node7" class="node">
<title>find_keys</title>
<path fill="#f8f9fa" stroke="#495057" stroke-width="1.2" d="M209.56,-346.25C209.56,-346.25 149.56,-346.25 149.56,-346.25 143.56,-346.25 137.56,-340.25 137.56,-334.25 137.56,-334.25 137.56,-322.25 137.56,-322.25 137.56,-316.25 143.56,-310.25 149.56,-310.25 149.56,-310.25 209.56,-310.25 209.56,-310.25 215.56,-310.25 221.56,-316.25 221.56,-322.25 221.56,-322.25 221.56,-334.25 221.56,-334.25 221.56,-340.25 215.56,-346.25 209.56,-346.25"/>
<text text-anchor="middle" x="179.56" y="-331.45" font-family="Helvetica,sans-Serif" font-size="11.00">5. Find keys</text>
<text text-anchor="middle" x="179.56" y="-319.45" font-family="Helvetica,sans-Serif" font-size="11.00">by authority</text>
</g>
<!-- parse_cred&#45;&gt;find_keys -->
<g id="edge7" class="edge">
<title>parse_cred&#45;&gt;find_keys</title>
<path fill="none" stroke="#6c757d" d="M179.56,-387.24C179.56,-378.19 179.56,-366.85 179.56,-356.61"/>
<polygon fill="#6c757d" stroke="#6c757d" points="183.06,-356.47 179.56,-346.47 176.06,-356.47 183.06,-356.47"/>
</g>
<!-- verify_sig -->
<g id="node8" class="node">
<title>verify_sig</title>
<path fill="#f8f9fa" stroke="#495057" stroke-width="1.2" d="M224.06,-273.25C224.06,-273.25 135.06,-273.25 135.06,-273.25 129.06,-273.25 123.06,-267.25 123.06,-261.25 123.06,-261.25 123.06,-249.25 123.06,-249.25 123.06,-243.25 129.06,-237.25 135.06,-237.25 135.06,-237.25 224.06,-237.25 224.06,-237.25 230.06,-237.25 236.06,-243.25 236.06,-249.25 236.06,-249.25 236.06,-261.25 236.06,-261.25 236.06,-267.25 230.06,-273.25 224.06,-273.25"/>
<text text-anchor="middle" x="179.56" y="-258.45" font-family="Helvetica,sans-Serif" font-size="11.00">6. Verify Ed25519</text>
<text text-anchor="middle" x="179.56" y="-246.45" font-family="Helvetica,sans-Serif" font-size="11.00">signature</text>
</g>
<!-- find_keys&#45;&gt;verify_sig -->
<g id="edge8" class="edge">
<title>find_keys&#45;&gt;verify_sig</title>
<path fill="none" stroke="#6c757d" d="M179.56,-310.07C179.56,-302.04 179.56,-292.3 179.56,-283.32"/>
<polygon fill="#6c757d" stroke="#6c757d" points="183.06,-283.28 179.56,-273.28 176.06,-283.28 183.06,-283.28"/>
</g>
<!-- check_date -->
<g id="node9" class="node">
<title>check_date</title>
<path fill="#f8f9fa" stroke="#495057" stroke-width="1.2" d="M243.06,-200.25C243.06,-200.25 116.06,-200.25 116.06,-200.25 110.06,-200.25 104.06,-194.25 104.06,-188.25 104.06,-188.25 104.06,-176.25 104.06,-176.25 104.06,-170.25 110.06,-164.25 116.06,-164.25 116.06,-164.25 243.06,-164.25 243.06,-164.25 249.06,-164.25 255.06,-170.25 255.06,-176.25 255.06,-176.25 255.06,-188.25 255.06,-188.25 255.06,-194.25 249.06,-200.25 243.06,-200.25"/>
<text text-anchor="middle" x="179.56" y="-185.45" font-family="Helvetica,sans-Serif" font-size="11.00">7. Check credential date</text>
<text text-anchor="middle" x="179.56" y="-173.45" font-family="Helvetica,sans-Serif" font-size="11.00">vs key validity range</text>
</g>
<!-- verify_sig&#45;&gt;check_date -->
<g id="edge9" class="edge">
<title>verify_sig&#45;&gt;check_date</title>
<path fill="none" stroke="#6c757d" d="M179.56,-237.07C179.56,-229.04 179.56,-219.3 179.56,-210.32"/>
<polygon fill="#6c757d" stroke="#6c757d" points="183.06,-210.28 179.56,-200.28 176.06,-210.28 183.06,-210.28"/>
</g>
<!-- render -->
<g id="node10" class="node">
<title>render</title>
<path fill="#f8f9fa" stroke="#495057" stroke-width="1.2" d="M220.06,-127.25C220.06,-127.25 139.06,-127.25 139.06,-127.25 133.06,-127.25 127.06,-121.25 127.06,-115.25 127.06,-115.25 127.06,-103.25 127.06,-103.25 127.06,-97.25 133.06,-91.25 139.06,-91.25 139.06,-91.25 220.06,-91.25 220.06,-91.25 226.06,-91.25 232.06,-97.25 232.06,-103.25 232.06,-103.25 232.06,-115.25 232.06,-115.25 232.06,-121.25 226.06,-127.25 220.06,-127.25"/>
<text text-anchor="middle" x="179.56" y="-106.45" font-family="Helvetica,sans-Serif" font-size="11.00">8. Render result</text>
</g>
<!-- check_date&#45;&gt;render -->
<g id="edge10" class="edge">
<title>check_date&#45;&gt;render</title>
<path fill="none" stroke="#6c757d" d="M179.56,-164.07C179.56,-156.04 179.56,-146.3 179.56,-137.32"/>
<polygon fill="#6c757d" stroke="#6c757d" points="183.06,-137.28 179.56,-127.28 176.06,-137.28 183.06,-137.28"/>
</g>
<!-- success -->
<g id="node12" class="node">
<title>success</title>
<ellipse fill="#b2f2bb" stroke="#495057" stroke-width="1.2" cx="85.56" cy="-22.63" rx="85.62" ry="22.76"/>
<text text-anchor="middle" x="85.56" y="-25.83" font-family="Helvetica,sans-Serif" font-size="11.00">Verified</text>
<text text-anchor="middle" x="85.56" y="-13.83" font-family="Helvetica,sans-Serif" font-size="11.00">(credential details)</text>
</g>
<!-- render&#45;&gt;success -->
<g id="edge11" class="edge">
<title>render&#45;&gt;success</title>
<path fill="none" stroke="#6c757d" d="M160.54,-91.13C147.95,-79.8 131.16,-64.68 116.66,-51.63"/>
<polygon fill="#6c757d" stroke="#6c757d" points="118.66,-48.71 108.88,-44.62 113.97,-53.92 118.66,-48.71"/>
<text text-anchor="middle" x="148.56" y="-66.05" font-family="Helvetica,sans-Serif" font-size="9.00">valid</text>
</g>
<!-- failure -->
<g id="node13" class="node">
<title>failure</title>
<ellipse fill="#ffc9c9" stroke="#495057" stroke-width="1.2" cx="273.56" cy="-22.63" rx="84.29" ry="22.76"/>
<text text-anchor="middle" x="273.56" y="-25.83" font-family="Helvetica,sans-Serif" font-size="11.00">Rejected</text>
<text text-anchor="middle" x="273.56" y="-13.83" font-family="Helvetica,sans-Serif" font-size="11.00">(reason displayed)</text>
</g>
<!-- render&#45;&gt;failure -->
<g id="edge12" class="edge">
<title>render&#45;&gt;failure</title>
<path fill="none" stroke="#6c757d" d="M198.58,-91.13C211.17,-79.8 227.96,-64.68 242.46,-51.63"/>
<polygon fill="#6c757d" stroke="#6c757d" points="245.15,-53.92 250.24,-44.62 240.46,-48.71 245.15,-53.92"/>
<text text-anchor="middle" x="243.56" y="-66.05" font-family="Helvetica,sans-Serif" font-size="9.00">invalid</text>
</g>
</g>
</svg>
